RobotoCondensed-Regular.ufo
<glyph name="numbersign" format="1">
  <advance width="1122"/>
  <unicode hex="0023"/>
  <outline>
    <contour>
      <point x="599" y="0" type="line"/>
      <point x="734" y="0" type="line"/>
      <point x="801.864013671875" y="410" type="line"/>
      <point x="1006" y="410" type="line"/>
      <point x="1006" y="548" type="line"/>
      <point x="824.7060470581055" y="548" type="line"/>
      <point x="883.1352996826172" y="901" type="line"/>
      <point x="1069" y="901" type="line"/>
      <point x="1069" y="1040" type="line"/>
      <point x="906.1428604125977" y="1040" type="line"/>
      <point x="975" y="1456" type="line"/>
      <point x="841" y="1456" type="line"/>
      <point x="771.8571395874023" y="1040" type="line"/>
      <point x="565.8571395874023" y="1040" type="line"/>
      <point x="635" y="1456" type="line"/>
      <point x="500" y="1456" type="line"/>
      <point x="431.14286041259766" y="1040" type="line"/>
      <point x="195" y="1040" type="line"/>
      <point x="195" y="901" type="line"/>
      <point x="408.1352996826172" y="901" type="line"/>
      <point x="349.70604705810547" y="548" type="line"/>
      <point x="131" y="548" type="line"/>
      <point x="131" y="410" type="line"/>
      <point x="326.864013671875" y="410" type="line"/>
      <point x="259" y="0" type="line"/>
      <point x="393" y="0" type="line"/>
      <point x="461.1456069946289" y="410" type="line"/>
      <point x="667.1456069946289" y="410" type="line"/>
    </contour>
    <contour>
      <point x="484.0824203491211" y="548" type="line"/>
      <point x="542.7541198730469" y="901" type="line"/>
      <point x="748.7541198730469" y="901" type="line"/>
      <point x="690.0824203491211" y="548" type="line"/>
    </contour>
  </outline>
</glyph>
<glyph name="dollar" format="1">
  <advance width="1011"/>
  <unicode hex="0024"/>
  <outline>
    <contour>
      <point x="901.0" y="377.0" type="curve"/>
      <point x="901" y="614"/>
      <point x="782" y="726"/>
      <point x="564" y="809" type="curve" smooth="yes"/>
      <point x="394" y="883"/>
      <point x="336" y="954"/>
      <point x="336" y="1083" type="curve"/>
      <point x="336" y="1221"/>
      <point x="396" y="1315"/>
      <point x="524" y="1315" type="curve" smooth="yes"/>
      <point x="647" y="1315"/>
      <point x="714" y="1187"/>
      <point x="714" y="1008" type="curve"/>
      <point x="890" y="1008" type="line"/>
      <point x="890.0" y="1277.878767"/>
      <point x="782.107542317944" y="1439.0717494232229"/>
      <point x="596" y="1471.082893371582" type="curve"/>
      <point x="596" y="1692" type="line"/>
      <point x="456" y="1692" type="line"/>
      <point x="456" y="1471.8783798217773" type="line"/>
      <point x="273.92268804" y="1443.5205973074999"/>
      <point x="159.0" y="1298.8707499999998"/>
      <point x="159.0" y="1080.0" type="curve"/>
      <point x="159" y="843"/>
      <point x="290" y="723"/>
      <point x="502" y="645" type="curve" smooth="yes"/>
      <point x="664" y="577"/>
      <point x="725" y="494"/>
      <point x="725" y="375" type="curve"/>
      <point x="725" y="232"/>
      <point x="644" y="141"/>
      <point x="501" y="141" type="curve" smooth="yes"/>
      <point x="400" y="141"/>
      <point x="288" y="203"/>
      <point x="288" y="429" type="curve"/>
      <point x="111" y="429" type="line"/>
      <point x="111.0" y="129.634138"/>
      <point x="268.03549337292395" y="7.031846429823986"/>
      <point x="437" y="-16.615570068359375" type="curve"/>
      <point x="437" y="-208" type="line"/>
      <point x="577" y="-208" type="line"/>
      <point x="577" y="-16.045257568359375" type="line"/>
      <point x="776.2339131601871" y="10.977018340244001"/>
      <point x="901.0000000000001" y="147.896579"/>
    </contour>
  </outline>
</glyph>
<glyph name="ampersand" format="1">
  <advance width="1114"/>
  <unicode hex="0026"/>
  <outline>
    <contour>
      <point x="885" y="0" type="line"/>
      <point x="1096" y="0" type="line"/>
      <point x="918.3678359985352" y="256.06311798095703" type="line"/>
      <point x="988.663257379993" y="369.318679345111"/>
      <point x="1020.0" y="510.324882"/>
      <point x="1019.9999999999999" y="672.0" type="curve"/>
      <point x="862" y="672" type="line"/>
      <point x="862.0" y="571.44364"/>
      <point x="844.6512945104" y="481.16081509439994"/>
      <point x="815.3851623535156" y="404.5163269042969" type="curve"/>
      <point x="559.1584625244141" y="773.8762817382812" type="line"/>
      <point x="650" y="852" type="line" smooth="yes"/>
      <point x="754" y="939"/>
      <point x="817" y="1028"/>
      <point x="817" y="1169" type="curve"/>
      <point x="817" y="1334"/>
      <point x="700" y="1476"/>
      <point x="515" y="1476" type="curve" smooth="yes"/>
      <point x="325" y="1476"/>
      <point x="199" y="1350"/>
      <point x="199" y="1123" type="curve" smooth="yes"/>
      <point x="199.0" y="1007.059673"/>
      <point x="257.125638700384" y="907.467181884483"/>
      <point x="342.7531204223633" y="786.0630035400391" type="curve"/>
      <point x="200.42050749475" y="670.014036708125"/>
      <point x="103.00000000000003" y="564.2185549999999"/>
      <point x="103.0" y="391.99999999999994" type="curve"/>
      <point x="103" y="152"/>
      <point x="257" y="-20"/>
      <point x="505" y="-20" type="curve"/>
      <point x="609.1263730000001" y="-20.0"/>
      <point x="727.509552777298" y="22.770420331894"/>
      <point x="810.806999206543" y="108.32498168945312" type="curve"/>
    </contour>
    <contour>
      <point x="376.0" y="1129.0000000000002" type="curve" smooth="yes"/>
      <point x="376" y="1234"/>
      <point x="423" y="1325"/>
      <point x="514" y="1325" type="curve" smooth="yes"/>
      <point x="603" y="1325"/>
      <point x="654" y="1248"/>
      <point x="654" y="1169" type="curve"/>
      <point x="654" y="1068"/>
      <point x="619" y="1020"/>
      <point x="549" y="963" type="curve"/>
      <point x="472.72572326660156" y="896.9524383544922" type="line"/>
      <point x="415.082446341127" y="981.9297482532261"/>
      <point x="376.0" y="1057.325943"/>
    </contour>
    <contour>
      <point x="280" y="392" type="curve"/>
      <point x="280" y="435"/>
      <point x="288" y="531"/>
      <point x="400" y="637" type="curve" smooth="yes"/>
      <point x="430.65501403808594" y="663.3633117675781" type="line"/>
      <point x="719.3593063354492" y="241.84256744384766" type="line"/>
      <point x="657.038027139844" y="171.484265346148"/>
      <point x="580.9280359999999" y="132.0"/>
      <point x="505.0" y="132.00000000000006" type="curve" smooth="yes"/>
      <point x="353" y="132"/>
      <point x="280" y="250"/>
    </contour>
  </outline>
</glyph>
<glyph name="six" format="1">
  <advance width="1011"/>
  <unicode hex="0036"/>
  <outline>
    <contour>
      <point x="911" y="475" type="curve" smooth="yes"/>
      <point x="911" y="714"/>
      <point x="808" y="955"/>
      <point x="560" y="955" type="curve" smooth="yes"/>
      <point x="465.74792" y="955.0"/>
      <point x="378.25833137907205" y="917.806297415104"/>
      <point x="312.69873046875" y="833.8622589111328" type="curve"/>
      <point x="328.48270816" y="1076.51515836"/>
      <point x="418.7894" y="1301.0"/>
      <point x="720.0" y="1301.0" type="curve" smooth="yes"/>
      <point x="733" y="1301" type="line"/>
      <point x="733" y="1458" type="line"/>
      <point x="720" y="1458" type="line" name="hr00"/>
      <point x="218" y="1458"/>
      <point x="132" y="1036"/>
      <point x="132" y="626" type="curve" smooth="yes"/>
      <point x="132" y="539" type="line" smooth="yes"/>
      <point x="132" y="268"/>
      <point x="253" y="-20"/>
      <point x="525" y="-20" type="curve" smooth="yes"/>
      <point x="781" y="-20"/>
      <point x="911" y="199"/>
    </contour>
    <contour>
      <point x="310" y="533" type="curve"/>
      <point x="310" y="607.5839157104492" type="line"/>
      <point x="343.892771832322" y="716.526459173746"/>
      <point x="431.341133" y="802.0"/>
      <point x="531.0" y="802.0000000000001" type="curve" smooth="yes"/>
      <point x="671" y="802"/>
      <point x="736" y="640"/>
      <point x="736" y="466" type="curve" smooth="yes"/>
      <point x="736" y="272"/>
      <point x="661" y="133"/>
      <point x="525" y="133" type="curve" smooth="yes"/>
      <point x="418" y="133"/>
      <point x="310" y="274"/>
    </contour>
  </outline>
</glyph>
<glyph name="eight" format="1">
  <advance width="1011"/>
  <unicode hex="0038"/>
  <outline>
    <contour>
      <point x="894" y="394" type="curve" smooth="yes"/>
      <point x="894.0" y="555.605521"/>
      <point x="813.733878965916" y="686.377105261297"/>
      <point x="688.1263198852539" y="750.3539123535156" type="curve"/>
      <point x="797.339764090992" y="813.2293182958721"/>
      <point x="867.0" y="933.2769720000001"/>
      <point x="867.0" y="1077.0" type="curve" smooth="yes"/>
      <point x="867" y="1331"/>
      <point x="717" y="1476"/>
      <point x="506" y="1476" type="curve" smooth="yes"/>
      <point x="295" y="1476"/>
      <point x="144" y="1331"/>
      <point x="144" y="1077" type="curve" smooth="yes"/>
      <point x="144.0" y="933.735135"/>
      <point x="211.407225417725" y="813.9949392733"/>
      <point x="320.3575973510742" y="750.9521713256836" type="curve"/>
      <point x="194.80758387500003" y="687.1839570625"/>
      <point x="117.00000000000004" y="556.10425"/>
      <point x="117.0" y="393.99999999999994" type="curve" smooth="yes"/>
      <point x="117" y="128"/>
      <point x="285" y="-20"/>
      <point x="505" y="-20" type="curve" smooth="yes"/>
      <point x="726" y="-20"/>
      <point x="894" y="128"/>
    </contour>
    <contour>
      <point x="690" y="1074" type="curve" smooth="yes"/>
      <point x="690" y="923"/>
      <point x="618" y="825"/>
      <point x="506" y="825" type="curve" smooth="yes"/>
      <point x="393" y="825"/>
      <point x="321" y="923"/>
      <point x="321" y="1074" type="curve" smooth="yes"/>
      <point x="321" y="1227"/>
      <point x="394" y="1324"/>
      <point x="506" y="1324" type="curve" smooth="yes"/>
      <point x="618" y="1324"/>
      <point x="690" y="1219"/>
    </contour>
    <contour>
      <point x="718" y="398" type="curve" smooth="yes"/>
      <point x="718" y="230"/>
      <point x="641" y="132"/>
      <point x="505" y="132" type="curve" smooth="yes"/>
      <point x="371" y="132"/>
      <point x="293" y="230"/>
      <point x="293" y="398" type="curve" smooth="yes"/>
      <point x="293" y="560"/>
      <point x="372" y="674"/>
      <point x="504" y="674" type="curve" smooth="yes"/>
      <point x="633" y="674"/>
      <point x="718" y="560"/>
    </contour>
  </outline>
</glyph>
<glyph name="nine" format="1">
  <advance width="1011"/>
  <unicode hex="0039"/>
  <outline>
    <contour>
      <point x="878" y="820" type="curve" smooth="yes"/>
      <point x="878" y="887" type="line" smooth="yes"/>
      <point x="878" y="1182"/>
      <point x="773" y="1476"/>
      <point x="487" y="1476" type="curve" smooth="yes"/>
      <point x="231" y="1476"/>
      <point x="104" y="1250"/>
      <point x="104" y="973" type="curve" smooth="yes"/>
      <point x="104" y="735"/>
      <point x="205" y="487"/>
      <point x="452" y="487" type="curve" smooth="yes"/>
      <point x="551.019764" y="487.0"/>
      <point x="637.788098010188" y="542.131434954154"/>
      <point x="700.8688201904297" y="624.1542053222656" type="curve"/>
      <point x="691.7604927805439" y="378.9684524697601"/>
      <point x="621.9580799999999" y="155.0000000000001"/>
      <point x="290.9999999999999" y="155.00000000000014" type="curve" smooth="yes"/>
      <point x="277" y="155" type="line"/>
      <point x="278" y="-2" type="line"/>
      <point x="291" y="-2" type="line" smooth="yes"/>
      <point x="824" y="-2"/>
      <point x="878" y="442"/>
    </contour>
    <contour>
      <point x="277" y="983" type="curve" smooth="yes"/>
      <point x="277" y="1177"/>
      <point x="352" y="1323"/>
      <point x="487" y="1323" type="curve" smooth="yes"/>
      <point x="594" y="1323"/>
      <point x="702" y="1177"/>
      <point x="702" y="912" type="curve"/>
      <point x="702" y="836.9577484130859" type="line"/>
      <point x="660.783830220158" y="726.1756961486241"/>
      <point x="571.983413" y="641.0"/>
      <point x="482.00000000000006" y="641.0" type="curve" smooth="yes"/>
      <point x="341" y="641"/>
      <point x="277" y="810"/>
    </contour>
  </outline>
</glyph>
<glyph name="greater" format="1">
  <advance width="943"/>
  <unicode hex="003E"/>
  <outline>
    <contour>
      <point x="136" y="1100" type="line"/>
      <point x="136" y="909" type="line"/>
      <point x="679.79833984375" y="651.0682525634766" type="line"/>
      <point x="136" y="388" type="line"/>
      <point x="136" y="197" type="line"/>
      <point x="857" y="576" type="line"/>
      <point x="857" y="722" type="line"/>
    </contour>
  </outline>
</glyph>
<glyph name="at" format="1">
  <advance width="1575"/>
  <unicode hex="0040"/>
  <outline>
    <contour>
      <point x="1083" y="-364" type="curve"/>
      <point x="1049" y="-250" type="line"/>
      <point x="979" y="-298"/>
      <point x="870" y="-328"/>
      <point x="771" y="-328" type="curve" smooth="yes"/>
      <point x="423" y="-328"/>
      <point x="232" y="-21"/>
      <point x="251" y="478" type="curve" smooth="yes"/>
      <point x="267" y="966"/>
      <point x="476" y="1300"/>
      <point x="825" y="1300" type="curve" smooth="yes"/>
      <point x="1205" y="1300"/>
      <point x="1371" y="1001"/>
      <point x="1353" y="503" type="curve" smooth="yes"/>
      <point x="1346" y="278"/>
      <point x="1273" y="98"/>
      <point x="1144" y="98" type="curve" smooth="yes"/>
      <point x="1089" y="98"/>
      <point x="1032" y="135"/>
      <point x="1045" y="330" type="curve"/>
      <point x="1089" y="884" type="line"/>
      <point x="1024" y="941"/>
      <point x="965" y="990"/>
      <point x="840" y="990" type="curve" smooth="yes"/>
      <point x="671" y="990"/>
      <point x="504" y="769"/>
      <point x="478" y="418" type="curve" smooth="yes"/>
      <point x="457" y="155"/>
      <point x="539" y="-21"/>
      <point x="706" y="-21" type="curve" smooth="yes"/>
      <point x="781.427673" y="-21.0"/>
      <point x="861.1650846320811" y="34.06888252103499"/>
      <point x="920.0280990600586" y="140.24737548828125" type="curve"/>
      <point x="949.08213861504" y="38.454613061888"/>
      <point x="1017.59712" y="-20.999999999999993"/>
      <point x="1123.0" y="-20.99999999999997" type="curve"/>
      <point x="1373" y="-21"/>
      <point x="1464" y="257"/>
      <point x="1473" y="503" type="curve"/>
      <point x="1492" y="1071"/>
      <point x="1253" y="1431"/>
      <point x="828" y="1431" type="curve" smooth="yes"/>
      <point x="407" y="1431"/>
      <point x="135" y="1026"/>
      <point x="115" y="478" type="curve" smooth="yes"/>
      <point x="96" y="-96"/>
      <point x="342" y="-453"/>
      <point x="768" y="-453" type="curve" smooth="yes"/>
      <point x="873" y="-453"/>
      <point x="1003" y="-424"/>
    </contour>
    <contour>
      <point x="628" y="418" type="curve" smooth="yes"/>
      <point x="649" y="710"/>
      <point x="739" y="861"/>
      <point x="857" y="861" type="curve" smooth="yes"/>
      <point x="891.12423" y="861.0"/>
      <point x="920.970840547822" y="851.731824520281"/>
      <point x="946.4239654541016" y="837.9273452758789" type="curve"/>
      <point x="907" y="330" type="line" smooth="yes"/>
      <point x="906.409442" y="323.348452"/>
      <point x="905.909696528056" y="316.771292985748"/>
      <point x="905.5004959106445" y="310.1790084838867" type="curve"/>
      <point x="866.0674685545799" y="176.586878424217"/>
      <point x="801.6930659999999" y="122.99999999999997"/>
      <point x="752.0" y="123.0" type="curve" smooth="yes"/>
      <point x="660" y="123"/>
      <point x="614" y="230"/>
    </contour>
  </outline>
</glyph>
<glyph name="A" format="1">
  <advance width="1181"/>
  <unicode hex="0041"/>
  <outline>
    <contour>
      <point x="594" y="1601" type="move" name="top"/>
    </contour>
    <contour>
      <point x="604" y="0" type="move" name="bottom"/>
    </contour>
    <contour>
      <point x="1136" y="0" type="move" name="right"/>
    </contour>
    <contour>
      <point x="336" y="1454" type="move" name="tonos"/>
    </contour>
    <contour>
      <point x="1102" y="0" type="move" name="ogonek"/>
    </contour>
    <contour>
      <point x="1161" y="1600" type="move" name="top_dd"/>
    </contour>
    <contour>
      <point x="1161" y="-407" type="move" name="bottom_dd"/>
    </contour>
    <contour>
      <point x="1161" y="1601" type="move" name="top0315"/>
    </contour>
    <contour>
      <point x="43" y="0" type="line"/>
      <point x="231" y="0" type="line"/>
      <point x="345.2712860107422" y="381" type="line"/>
      <point x="836.7287139892578" y="381" type="line"/>
      <point x="951" y="0" type="line"/>
      <point x="1139" y="0" type="line"/>
      <point x="670" y="1456" type="line"/>
      <point x="512" y="1456" type="line"/>
    </contour>
    <contour>
      <point x="392.65938568115234" y="539" type="line"/>
      <point x="591" y="1200.3015060424805" type="line"/>
      <point x="789.3406143188477" y="539" type="line"/>
    </contour>
  </outline>
</glyph>
<glyph name="B" format="1">
  <advance width="1118"/>
  <unicode hex="0042"/>
  <outline>
    <contour>
      <point x="536" y="1612" type="move" name="top"/>
    </contour>
    <contour>
      <point x="544" y="10" type="move" name="bottom"/>
    </contour>
    <contour>
      <point x="1098" y="1600" type="move" name="top_dd"/>
    </contour>
    <contour>
      <point x="1098" y="-407" type="move" name="bottom_dd"/>
    </contour>
    <contour>
      <point x="1098" y="1612" type="move" name="top0315"/>
    </contour>
    <contour>
      <point x="1000" y="420" type="curve" smooth="yes"/>
      <point x="1000.0" y="585.594724"/>
      <point x="925.518480896416" y="724.0347274934851"/>
      <point x="784.7563095092773" y="767.6560592651367" type="curve"/>
      <point x="899.410937184949" y="824.955134249445"/>
      <point x="972.0" y="934.00998"/>
      <point x="972.0000000000001" y="1068.0" type="curve"/>
      <point x="972" y="1339"/>
      <point x="823" y="1456"/>
      <point x="573" y="1456" type="curve"/>
      <point x="157" y="1456" type="line"/>
      <point x="157" y="0" type="line"/>
      <point x="591" y="0" type="line"/>
      <point x="839" y="0"/>
      <point x="1000" y="148"/>
    </contour>
    <contour>
      <point x="341" y="1298" type="line"/>
      <point x="573" y="1298" type="line"/>
      <point x="719" y="1298"/>
      <point x="788" y="1230"/>
      <point x="788" y="1070" type="curve"/>
      <point x="788" y="923"/>
      <point x="699" y="836"/>
      <point x="575" y="836" type="curve"/>
      <point x="341" y="836" type="line"/>
    </contour>
    <contour>
      <point x="816" y="418" type="curve" smooth="yes"/>
      <point x="816" y="258"/>
      <point x="734" y="157"/>
      <point x="591" y="157" type="curve" smooth="yes"/>
      <point x="341" y="157" type="line"/>
      <point x="341" y="681" type="line"/>
      <point x="598" y="681" type="line" smooth="yes"/>
      <point x="753" y="681"/>
      <point x="816" y="580"/>
    </contour>
  </outline>
</glyph>
<glyph name="K" format="1">
  <advance width="1117"/>
  <unicode hex="004B"/>
  <outline>
    <contour>
      <point x="580" y="90" type="move" name="bottom"/>
    </contour>
    <contour>
      <point x="1054" y="-2" type="move" name="right"/>
    </contour>
    <contour>
      <point x="252" y="1229" type="move" name="cross"/>
    </contour>
    <contour>
      <point x="528" y="1595" type="move" name="top"/>
    </contour>
    <contour>
      <point x="1097" y="1600" type="move" name="top_dd"/>
    </contour>
    <contour>
      <point x="1097" y="-407" type="move" name="bottom_dd"/>
    </contour>
    <contour>
      <point x="1097" y="1595" type="move" name="top0315"/>
    </contour>
    <contour>
      <point x="890" y="0" type="line"/>
      <point x="1109" y="0" type="line"/>
      <point x="600.0062561035156" y="814.9565887451172" type="line"/>
      <point x="1073" y="1456" type="line"/>
      <point x="853" y="1456" type="line"/>
      <point x="461" y="912" type="line"/>
      <point x="341" y="754.6046524047852" type="line"/>
      <point x="341" y="1456" type="line"/>
      <point x="157" y="1456" type="line"/>
      <point x="157" y="0" type="line"/>
      <point x="341" y="0" type="line"/>
      <point x="341" y="498.6962432861328" type="line"/>
      <point x="484.3340148925781" y="671.3819351196289" type="line"/>
    </contour>
  </outline>
</glyph>
<glyph name="a" format="1">
  <advance width="981"/>
  <unicode hex="0061"/>
  <outline>
    <contour>
      <point x="509" y="1290" type="move" name="top"/>
    </contour>
    <contour>
      <point x="440" y="0" type="move" name="bottom"/>
    </contour>
    <contour>
      <point x="841" y="0" type="move" name="ogonek"/>
    </contour>
    <contour>
      <point x="608" y="1288" type="move" name="rhalfring"/>
    </contour>
    <contour>
      <point x="961" y="1600" type="move" name="top_dd"/>
    </contour>
    <contour>
      <point x="961" y="-407" type="move" name="bottom_dd"/>
    </contour>
    <contour>
      <point x="758" y="654" type="move" name="rhotichook"/>
    </contour>
    <contour>
      <point x="961" y="1290" type="move" name="top0315"/>
    </contour>
    <contour>
      <point x="690.0" y="-1.559863349598345e-14" type="curve"/>
      <point x="873" y="0" type="line"/>
      <point x="873" y="16" type="line"/>
      <point x="851" y="74"/>
      <point x="840" y="164"/>
      <point x="840" y="236" type="curve" smooth="yes"/>
      <point x="840" y="770" type="line"/>
      <point x="840" y="1012"/>
      <point x="698" y="1102"/>
      <point x="498" y="1102" type="curve" smooth="yes"/>
      <point x="274" y="1102"/>
      <point x="132" y="937"/>
      <point x="132" y="782" type="curve"/>
      <point x="309" y="782" type="line"/>
      <point x="309" y="873"/>
      <point x="376" y="950"/>
      <point x="489" y="950" type="curve" smooth="yes"/>
      <point x="605" y="950"/>
      <point x="663" y="900"/>
      <point x="663" y="772" type="curve"/>
      <point x="663" y="656" type="line"/>
      <point x="541" y="656" type="line"/>
      <point x="257" y="656"/>
      <point x="114" y="503"/>
      <point x="114" y="295" type="curve" smooth="yes"/>
      <point x="114" y="89"/>
      <point x="238" y="-20"/>
      <point x="427" y="-20" type="curve" smooth="yes"/>
      <point x="533.60989" y="-20.0"/>
      <point x="616.62323609866" y="44.10394426530701"/>
      <point x="666.1747817993164" y="117.33045196533203" type="curve"/>
      <point x="670.2305682388807" y="72.46679973155446"/>
      <point x="678.1723076391086" y="27.5979488420802"/>
    </contour>
    <contour>
      <point x="454.0" y="140.99999999999997" type="curve" smooth="yes"/>
      <point x="344" y="141"/>
      <point x="291" y="187"/>
      <point x="291" y="317" type="curve" smooth="yes"/>
      <point x="291" y="451"/>
      <point x="401" y="526"/>
      <point x="570" y="526" type="curve"/>
      <point x="663" y="526" type="line"/>
      <point x="663" y="266.80267333984375" type="line"/>
      <point x="631.475897876992" y="203.47960709939198"/>
      <point x="553.337168" y="140.99999999999997"/>
    </contour>
  </outline>
</glyph>
<glyph name="b" format="1">
  <advance width="1010"/>
  <unicode hex="0062"/>
  <outline>
    <contour>
      <point x="561" y="1611" type="move" name="top"/>
    </contour>
    <contour>
      <point x="525" y="-10" type="move" name="bottom"/>
    </contour>
    <contour>
      <point x="990" y="1600" type="move" name="top_dd"/>
    </contour>
    <contour>
      <point x="990" y="-407" type="move" name="bottom_dd"/>
    </contour>
    <contour>
      <point x="990" y="1611" type="move" name="top0315"/>
    </contour>
    <contour>
      <point x="917" y="489" type="curve" smooth="yes"/>
      <point x="917" y="590" type="line"/>
      <point x="917" y="946"/>
      <point x="790" y="1102"/>
      <point x="560" y="1102" type="curve" smooth="yes"/>
      <point x="445.8552" y="1102.0"/>
      <point x="364.94773512" y="1053.1826640425"/>
      <point x="310" y="964.6637420654297" type="curve"/>
      <point x="310" y="1536" type="line"/>
      <point x="133" y="1536" type="line"/>
      <point x="133" y="0" type="line"/>
      <point x="295" y="0" type="line"/>
      <point x="304.14976501464844" y="128.09667205810547" type="line"/>
      <point x="359.29632657932797" y="32.94898766338798"/>
      <point x="442.122976" y="-20.0"/>
      <point x="561.0" y="-19.999999999999986" type="curve" smooth="yes"/>
      <point x="788" y="-20"/>
      <point x="917" y="147"/>
    </contour>
    <contour>
      <point x="514.0" y="945.9999999999999" type="curve" smooth="yes"/>
      <point x="685" y="946"/>
      <point x="740" y="830"/>
      <point x="740" y="590" type="curve" smooth="yes"/>
      <point x="740" y="489" type="line"/>
      <point x="740" y="248"/>
      <point x="677" y="137"/>
      <point x="515" y="137" type="curve" smooth="yes"/>
      <point x="412.334171" y="137.0"/>
      <point x="348.202356674271" y="200.41040389437"/>
      <point x="310" y="282.94593811035156" type="curve"/>
      <point x="310" y="798.9974212646484" type="line"/>
      <point x="348.772002494375" y="883.45459832"/>
      <point x="414.039425" y="945.9999999999999"/>
    </contour>
  </outline>
</glyph>
<glyph name="d" format="1">
  <advance width="1016"/>
  <unicode hex="0064"/>
  <outline>
    <contour>
      <point x="958" y="1536" type="move" name="caron"/>
    </contour>
    <contour>
      <point x="764" y="1306" type="move" name="cross"/>
    </contour>
    <contour>
      <point x="541" y="0" type="move" name="bottom"/>
    </contour>
    <contour>
      <point x="483" y="1612" type="move" name="top"/>
    </contour>
    <contour>
      <point x="996" y="1600" type="move" name="top_dd"/>
    </contour>
    <contour>
      <point x="996" y="-407" type="move" name="bottom_dd"/>
    </contour>
    <contour>
      <point x="996" y="1612" type="move" name="top0315"/>
    </contour>
    <contour>
      <point x="715" y="0" type="line"/>
      <point x="876" y="0" type="line"/>
      <point x="876" y="1536" type="line"/>
      <point x="700" y="1536" type="line"/>
      <point x="700" y="976.2697830200195" type="line"/>
      <point x="645.2766779906" y="1057.4360293828"/>
      <point x="566.57201" y="1102.0"/>
      <point x="458.0" y="1102.0" type="curve" smooth="yes"/>
      <point x="241" y="1102"/>
      <point x="95" y="946"/>
      <point x="95" y="590" type="curve" smooth="yes"/>
      <point x="95" y="489" type="line"/>
      <point x="95" y="147"/>
      <point x="243" y="-20"/>
      <point x="456" y="-20" type="curve" smooth="yes"/>
      <point x="570.227008" y="-20.0"/>
      <point x="651.4288288927719" y="28.887678552432"/>
      <point x="706.6335983276367" y="117.12964630126953" type="curve"/>
    </contour>
    <contour>
      <point x="272" y="489" type="curve" smooth="yes"/>
      <point x="272" y="590" type="line"/>
      <point x="272" y="831"/>
      <point x="340" y="946"/>
      <point x="504" y="946" type="curve" smooth="yes"/>
      <point x="598.086421" y="946.0"/>
      <point x="660.571561398943" y="890.589535384448"/>
      <point x="700" y="813.6417922973633" type="curve"/>
      <point x="700" y="270.65042877197266" type="line"/>
      <point x="661.209980134336" y="192.094040671296"/>
      <point x="601.866848" y="137.0"/>
      <point x="501.9999999999999" y="137.0" type="curve" smooth="yes"/>
      <point x="340" y="137"/>
      <point x="272" y="248"/>
    </contour>
  </outline>
</glyph>
<glyph name="e" format="1">
  <advance width="960"/>
  <unicode hex="0065"/>
  <outline>
    <contour>
      <point x="494" y="1290" type="move" name="top"/>
    </contour>
    <contour>
      <point x="497" y="0" type="move" name="bottom"/>
    </contour>
    <contour>
      <point x="699" y="26" type="move" name="ogonek"/>
    </contour>
    <contour>
      <point x="941" y="1600" type="move" name="top_dd"/>
    </contour>
    <contour>
      <point x="941" y="-407" type="move" name="bottom_dd"/>
    </contour>
    <contour>
      <point x="783" y="654" type="move" name="rhotichook"/>
    </contour>
    <contour>
      <point x="941" y="1290" type="move" name="top0315"/>
    </contour>
    <contour>
      <point x="871" y="143" type="curve"/>
      <point x="778" y="254" type="line"/>
      <point x="720" y="182"/>
      <point x="649" y="131"/>
      <point x="530" y="131" type="curve" smooth="yes"/>
      <point x="366" y="131"/>
      <point x="276" y="232"/>
      <point x="276" y="463" type="curve" smooth="yes"/>
      <point x="276" y="489" type="line"/>
      <point x="879" y="489" type="line"/>
      <point x="879" y="592" type="line" smooth="yes"/>
      <point x="879" y="922"/>
      <point x="771" y="1102"/>
      <point x="500" y="1102" type="curve" smooth="yes"/>
      <point x="296" y="1102"/>
      <point x="99" y="966"/>
      <point x="99" y="585" type="curve" smooth="yes"/>
      <point x="99" y="463" type="line" smooth="yes"/>
      <point x="99" y="132"/>
      <point x="260" y="-20"/>
      <point x="520" y="-20" type="curve"/>
      <point x="707" y="-20"/>
      <point x="812" y="60"/>
    </contour>
    <contour>
      <point x="500.0" y="949.9999999999999" type="curve"/>
      <point x="654" y="950"/>
      <point x="693" y="832"/>
      <point x="702" y="665" type="curve"/>
      <point x="702" y="640" type="line"/>
      <point x="277.20652770996094" y="640" type="line"/>
      <point x="288.419516249" y="884.6482320331249"/>
      <point x="376.78262" y="949.9999999999999"/>
    </contour>
  </outline>
</glyph>
<glyph name="g" format="1">
  <advance width="1010"/>
  <unicode hex="0067"/>
  <outline>
    <contour>
      <point x="485" y="1290" type="move" name="top"/>
    </contour>
    <contour>
      <point x="485" y="-447" type="move" name="bottom"/>
    </contour>
    <contour>
      <point x="990" y="1600" type="move" name="top_dd"/>
    </contour>
    <contour>
      <point x="990" y="-407" type="move" name="bottom_dd"/>
    </contour>
    <contour>
      <point x="990" y="1290" type="move" name="top0315"/>
    </contour>
    <contour>
      <point x="878" y="-9" type="curve" smooth="yes"/>
      <point x="878" y="1082" type="line"/>
      <point x="719" y="1082" type="line"/>
      <point x="710.4124755859375" y="961.7746200561523" type="line"/>
      <point x="655.301057370226" y="1052.119689853988"/>
      <point x="573.865739" y="1102.0"/>
      <point x="459.0" y="1102.0" type="curve" smooth="yes"/>
      <point x="237" y="1102"/>
      <point x="97" y="946"/>
      <point x="97" y="590" type="curve" smooth="yes"/>
      <point x="97" y="489" type="line"/>
      <point x="97" y="147"/>
      <point x="239" y="-20"/>
      <point x="457" y="-20" type="curve" smooth="yes"/>
      <point x="567.322016" y="-20.0"/>
      <point x="646.838262384713" y="25.60224163522799"/>
      <point x="702" y="108.2156982421875" type="curve"/>
      <point x="702" y="-18" type="line" smooth="yes"/>
      <point x="702" y="-207"/>
      <point x="612" y="-275"/>
      <point x="475" y="-275" type="curve" smooth="yes"/>
      <point x="398" y="-275"/>
      <point x="308" y="-244"/>
      <point x="232" y="-167" type="curve"/>
      <point x="159" y="-290" type="line"/>
      <point x="239" y="-383"/>
      <point x="406" y="-427"/>
      <point x="488" y="-427" type="curve" smooth="yes"/>
      <point x="718" y="-427"/>
      <point x="878" y="-296"/>
    </contour>
    <contour>
      <point x="274" y="489" type="curve" smooth="yes"/>
      <point x="274" y="590" type="line"/>
      <point x="274" y="831"/>
      <point x="341" y="946"/>
      <point x="505" y="946" type="curve" smooth="yes"/>
      <point x="599.529578" y="946.0"/>
      <point x="662.596465383648" y="890.066327793152"/>
      <point x="702" y="812.5550308227539" type="curve"/>
      <point x="702" y="272.6936340332031" type="line"/>
      <point x="663.2315188131109" y="193.04934426532103"/>
      <point x="603.728948" y="137.00000000000003"/>
      <point x="502.99999999999994" y="137.00000000000006" type="curve" smooth="yes"/>
      <point x="341" y="137"/>
      <point x="274" y="248"/>
    </contour>
  </outline>
</glyph>
<glyph name="h" format="1">
  <advance width="989"/>
  <unicode hex="0068"/>
  <outline>
    <contour>
      <point x="445" y="1611" type="move" name="top"/>
    </contour>
    <contour>
      <point x="253" y="1306" type="move" name="cross"/>
    </contour>
    <contour>
      <point x="517" y="10" type="move" name="bottom"/>
    </contour>
    <contour>
      <point x="859" y="0" type="move" name="right"/>
    </contour>
    <contour>
      <point x="969" y="1600" type="move" name="top_dd"/>
    </contour>
    <contour>
      <point x="969" y="-407" type="move" name="bottom_dd"/>
    </contour>
    <contour>
      <point x="969" y="1611" type="move" name="top0315"/>
    </contour>
    <contour>
      <point x="513.0" y="946.0" type="curve" smooth="yes"/>
      <point x="626" y="946"/>
      <point x="682" y="880"/>
      <point x="682" y="711" type="curve" smooth="yes"/>
      <point x="682" y="0" type="line"/>
      <point x="859" y="0" type="line"/>
      <point x="859" y="709" type="line" smooth="yes"/>
      <point x="859" y="993"/>
      <point x="745" y="1102"/>
      <point x="568" y="1102" type="curve" smooth="yes"/>
      <point x="463.09465" y="1102.0"/>
      <point x="374.4931999387" y="1054.17522684648"/>
      <point x="310" y="973.0072479248047" type="curve"/>
      <point x="310" y="1536" type="line"/>
      <point x="133" y="1536" type="line"/>
      <point x="133" y="0" type="line"/>
      <point x="310" y="0" type="line"/>
      <point x="310" y="787.4374923706055" type="line"/>
      <point x="353.629639859784" y="882.0537806969561"/>
      <point x="426.88236" y="946.0000000000001"/>
    </contour>
  </outline>
</glyph>
<glyph name="k" format="1">
  <advance width="923"/>
  <unicode hex="006B"/>
  <outline>
    <contour>
      <point x="466" y="71" type="move" name="bottom"/>
    </contour>
    <contour>
      <point x="215" y="1289" type="move" name="cross"/>
    </contour>
    <contour>
      <point x="482" y="1611" type="move" name="top"/>
    </contour>
    <contour>
      <point x="482" y="1611" type="move" name="marktop"/>
    </contour>
    <contour>
      <point x="903" y="1600" type="move" name="top_dd"/>
    </contour>
    <contour>
      <point x="903" y="-407" type="move" name="bottom_dd"/>
    </contour>
    <contour>
      <point x="794" y="1611" type="move" name="top0315"/>
    </contour>
    <contour>
      <point x="698" y="0" type="line"/>
      <point x="904" y="0" type="line"/>
      <point x="515.9443435668945" y="630.7062149047852" type="line"/>
      <point x="860" y="1082" type="line"/>
      <point x="647" y="1082" type="line"/>
      <point x="389" y="726" type="line"/>
      <point x="311" y="618.5121917724609" type="line"/>
      <point x="311" y="1536" type="line"/>
      <point x="134" y="1536" type="line"/>
      <point x="134" y="0" type="line"/>
      <point x="311" y="0" type="line"/>
      <point x="311" y="388.19327545166016" type="line"/>
      <point x="405.3219757080078" y="496.7824401855469" type="line"/>
    </contour>
  </outline>
</glyph>
<glyph name="m" format="1">
  <advance width="1542"/>
  <unicode hex="006D"/>
  <outline>
    <contour>
      <point x="784" y="1290" type="move" name="top"/>
    </contour>
    <contour>
      <point x="770" y="10" type="move" name="bottom"/>
    </contour>
    <contour>
      <point x="784" y="1290" type="move" name="marktop"/>
    </contour>
    <contour>
      <point x="1522" y="1600" type="move" name="top_dd"/>
    </contour>
    <contour>
      <point x="1522" y="-407" type="move" name="bottom_dd"/>
    </contour>
    <contour>
      <point x="1522" y="1290" type="move" name="top0315"/>
    </contour>
    <contour>
      <point x="498.0" y="946.0" type="curve" smooth="yes"/>
      <point x="611" y="946"/>
      <point x="682" y="881"/>
      <point x="682" y="712" type="curve"/>
      <point x="682" y="0" type="line"/>
      <point x="859" y="0" type="line"/>
      <point x="859" y="721" type="line"/>
      <point x="858.9701232910156" y="727.4803085327148" type="line"/>
      <point x="871.035852987892" y="849.0200867257561"/>
      <point x="937.778524" y="946.0000000000001"/>
      <point x="1047.0" y="946.0" type="curve" smooth="yes"/>
      <point x="1160" y="946"/>
      <point x="1231" y="894"/>
      <point x="1231" y="713" type="curve" smooth="yes"/>
      <point x="1231" y="0" type="line"/>
      <point x="1408" y="0" type="line"/>
      <point x="1408" y="711" type="line" smooth="yes"/>
      <point x="1408" y="984"/>
      <point x="1298" y="1102"/>
      <point x="1101" y="1102" type="curve" smooth="yes"/>
      <point x="973.271708" y="1102.0"/>
      <point x="878.103330738976" y="1039.450690106704"/>
      <point x="817.4792709350586" y="945.0206527709961" type="curve"/>
      <point x="766.751236781032" y="1054.50328752404"/>
      <point x="674.079596" y="1102.0"/>
      <point x="565.0" y="1102.0000000000002" type="curve" smooth="yes"/>
      <point x="452.686876" y="1102.0"/>
      <point x="365.997912354001" y="1058.29988156682"/>
      <point x="304.57916259765625" y="983.5479354858398" type="curve"/>
      <point x="300" y="1082" type="line"/>
      <point x="134" y="1082" type="line"/>
      <point x="134" y="0" type="line"/>
      <point x="310" y="0" type="line"/>
      <point x="310" y="813.9087066650391" type="line"/>
      <point x="343.071538943721" y="893.7934069794311"/>
      <point x="401.846427" y="946.0000000000001"/>
    </contour>
  </outline>
</glyph>
<glyph name="n" format="1">
  <advance width="992"/>
  <unicode hex="006E"/>
  <outline>
    <contour>
      <point x="500" y="1290" type="move" name="top"/>
    </contour>
    <contour>
      <point x="490" y="10" type="move" name="bottom"/>
    </contour>
    <contour>
      <point x="-8" y="1539" type="move" name="caron"/>
    </contour>
    <contour>
      <point x="858" y="0" type="move" name="right"/>
    </contour>
    <contour>
      <point x="500" y="1290" type="move" name="marktop"/>
    </contour>
    <contour>
      <point x="972" y="1600" type="move" name="top_dd"/>
    </contour>
    <contour>
      <point x="972" y="-407" type="move" name="bottom_dd"/>
    </contour>
    <contour>
      <point x="972" y="1290" type="move" name="top0315"/>
    </contour>
    <contour>
      <point x="513.0" y="946.0" type="curve" smooth="yes"/>
      <point x="626" y="946"/>
      <point x="682" y="880"/>
      <point x="682" y="711" type="curve" smooth="yes"/>
      <point x="682" y="0" type="line"/>
      <point x="859" y="0" type="line"/>
      <point x="859" y="709" type="line" smooth="yes"/>
      <point x="859" y="993"/>
      <point x="745" y="1102"/>
      <point x="568" y="1102" type="curve" smooth="yes"/>
      <point x="460.354825" y="1102.0"/>
      <point x="369.876292519675" y="1051.64451527562"/>
      <point x="304.9962387084961" y="966.5868835449219" type="curve"/>
      <point x="300" y="1082" type="line"/>
      <point x="133" y="1082" type="line"/>
      <point x="133" y="0" type="line"/>
      <point x="310" y="0" type="line"/>
      <point x="310" y="787.4374923706055" type="line"/>
      <point x="353.629639859784" y="882.0537806969561"/>
      <point x="426.88236" y="946.0000000000001"/>
    </contour>
  </outline>
</glyph>
<glyph name="p" format="1">
  <advance width="1010"/>
  <unicode hex="0070"/>
  <outline>
    <contour>
      <point x="556" y="1280" type="move" name="top"/>
    </contour>
    <contour>
      <point x="220" y="-407" type="move" name="bottom"/>
    </contour>
    <contour>
      <point x="556" y="1280" type="move" name="marktop"/>
    </contour>
    <contour>
      <point x="990" y="1600" type="move" name="top_dd"/>
    </contour>
    <contour>
      <point x="990" y="-407" type="move" name="bottom_dd"/>
    </contour>
    <contour>
      <point x="990" y="1280" type="move" name="top0315"/>
    </contour>
    <contour>
      <point x="560.0" y="-19.999999999999986" type="curve" smooth="yes"/>
      <point x="787" y="-20"/>
      <point x="915" y="147"/>
      <point x="915" y="489" type="curve" smooth="yes"/>
      <point x="915" y="590" type="line"/>
      <point x="915" y="946"/>
      <point x="789" y="1102"/>
      <point x="558" y="1102" type="curve" smooth="yes"/>
      <point x="443.049975" y="1102.0"/>
      <point x="359.94287357916204" y="1052.930576779652"/>
      <point x="303.0782012939453" y="963.9833908081055" type="curve"/>
      <point x="294" y="1082" type="line"/>
      <point x="133" y="1082" type="line"/>
      <point x="133" y="-416" type="line"/>
      <point x="310" y="-416" type="line"/>
      <point x="310" y="103.81383514404297" type="line"/>
      <point x="366.90725151576305" y="24.073823027261014"/>
      <point x="448.4782660000001" y="-19.99999999999998"/>
    </contour>
    <contour>
      <point x="503.0" y="946.0" type="curve" smooth="yes"/>
      <point x="667" y="946"/>
      <point x="738" y="831"/>
      <point x="738" y="590" type="curve" smooth="yes"/>
      <point x="738" y="489" type="line"/>
      <point x="738" y="248"/>
      <point x="667" y="131"/>
      <point x="505" y="131" type="curve" smooth="yes"/>
      <point x="407.901208" y="131.0"/>
      <point x="348.761195234752" y="182.484321260928"/>
      <point x="310" y="254.6269073486328" type="curve"/>
      <point x="310" y="819.2427597045898" type="line"/>
      <point x="349.54832850688" y="893.2640429588479"/>
      <point x="411.854176" y="945.9999999999999"/>
    </contour>
  </outline>
</glyph>
<glyph name="q" format="1">
  <advance width="1025"/>
  <unicode hex="0071"/>
  <outline>
    <contour>
      <point x="471" y="1290" type="move" name="top"/>
    </contour>
    <contour>
      <point x="788" y="-407" type="move" name="bottom"/>
    </contour>
    <contour>
      <point x="471" y="1290" type="move" name="marktop"/>
    </contour>
    <contour>
      <point x="1005" y="1600" type="move" name="top_dd"/>
    </contour>
    <contour>
      <point x="1005" y="-407" type="move" name="bottom_dd"/>
    </contour>
    <contour>
      <point x="1005" y="1290" type="move" name="top0315"/>
    </contour>
    <contour>
      <point x="876" y="1082" type="line"/>
      <point x="714" y="1082" type="line"/>
      <point x="706.3771133422852" y="976.2959518432617" type="line"/>
      <point x="650.43891696" y="1057.44884288"/>
      <point x="570.5564" y="1102.0"/>
      <point x="462.0000000000001" y="1102.0" type="curve" smooth="yes"/>
      <point x="231" y="1102"/>
      <point x="95" y="946"/>
      <point x="95" y="590" type="curve" smooth="yes"/>
      <point x="95" y="489" type="line"/>
      <point x="95" y="147"/>
      <point x="233" y="-20"/>
      <point x="460" y="-20" type="curve" smooth="yes"/>
      <point x="565.212925" y="-20.0"/>
      <point x="643.311772196644" y="21.108440540572005"/>
      <point x="699" y="95.97553253173828" type="curve"/>
      <point x="699" y="-416" type="line"/>
      <point x="876" y="-416" type="line"/>
    </contour>
    <contour>
      <point x="272" y="489" type="curve" smooth="yes"/>
      <point x="272" y="590" type="line"/>
      <point x="272" y="831"/>
      <point x="344" y="950"/>
      <point x="508" y="950" type="curve" smooth="yes"/>
      <point x="595.710766" y="950.0"/>
      <point x="657.839051873008" y="899.963678575148"/>
      <point x="699" y="829.8767166137695" type="curve"/>
      <point x="699" y="252.25418090820312" type="line"/>
      <point x="658.4815295518" y="180.45355251250004"/>
      <point x="598.46153" y="131.00000000000003"/>
      <point x="506.00000000000006" y="131.0" type="curve" smooth="yes"/>
      <point x="344" y="131"/>
      <point x="272" y="248"/>
    </contour>
  </outline>
</glyph>
<glyph name="r" format="1">
  <advance width="624"/>
  <unicode hex="0072"/>
  <outline>
    <contour>
      <point x="362" y="1290" type="move" name="top"/>
    </contour>
    <contour>
      <point x="234" y="11" type="move" name="bottom"/>
    </contour>
    <contour>
      <point x="604" y="1600" type="move" name="top_dd"/>
    </contour>
    <contour>
      <point x="604" y="-407" type="move" name="bottom_dd"/>
    </contour>
    <contour>
      <point x="604" y="1290" type="move" name="top0315"/>
    </contour>
    <contour>
      <point x="500.0" y="924.0" type="curve"/>
      <point x="531" y="924"/>
      <point x="551" y="922"/>
      <point x="580" y="916" type="curve"/>
      <point x="579" y="1088" type="line"/>
      <point x="569" y="1094"/>
      <point x="530" y="1102"/>
      <point x="509" y="1102" type="curve"/>
      <point x="418.058215" y="1102.0"/>
      <point x="352.05392920475003" y="1052.57841066695"/>
      <point x="307.8567657470703" y="972.7249603271484" type="curve"/>
      <point x="304" y="1082" type="line"/>
      <point x="133" y="1082" type="line"/>
      <point x="133" y="0" type="line"/>
      <point x="310" y="0" type="line"/>
      <point x="310" y="775.6453704833984" type="line"/>
      <point x="343.44189791285004" y="866.128919785575"/>
      <point x="404.82054500000004" y="924.0"/>
    </contour>
  </outline>
</glyph>
<glyph name="u" format="1">
  <advance width="990"/>
  <unicode hex="0075"/>
  <outline>
    <contour>
      <point x="495" y="1290" type="move" name="top"/>
    </contour>
    <contour>
      <point x="847" y="0" type="move" name="ogonek"/>
    </contour>
    <contour>
      <point x="446" y="0" type="move" name="bottomu"/>
    </contour>
    <contour>
      <point x="970" y="1600" type="move" name="top_dd"/>
    </contour>
    <contour>
      <point x="970" y="-407" type="move" name="bottom_dd"/>
    </contour>
    <contour>
      <point x="793" y="654" type="move" name="rhotichook"/>
    </contour>
    <contour>
      <point x="970" y="1290" type="move" name="top0315"/>
    </contour>
    <contour>
      <point x="493" y="0" type="move" name="bottom"/>
    </contour>
    <contour>
      <point x="689" y="0" type="line"/>
      <point x="857" y="0" type="line"/>
      <point x="857" y="1082" type="line"/>
      <point x="680" y="1082" type="line"/>
      <point x="680" y="281.9961471557617" type="line"/>
      <point x="643.315924049279" y="193.98222350875102"/>
      <point x="573.488588" y="137.0"/>
      <point x="458.0" y="136.99999999999997" type="curve" smooth="yes"/>
      <point x="384" y="137"/>
      <point x="306" y="187"/>
      <point x="306" y="382" type="curve"/>
      <point x="306" y="1082" type="line"/>
      <point x="130" y="1082" type="line"/>
      <point x="130" y="384" type="line"/>
      <point x="130" y="96"/>
      <point x="250" y="-20"/>
      <point x="428" y="-20" type="curve" smooth="yes"/>
      <point x="545.7908620000001" y="-20.0"/>
      <point x="629.280642501204" y="22.525317413712003"/>
      <point x="685.5668106079102" y="95.36647033691406" type="curve"/>
    </contour>
  </outline>
</glyph>
<glyph name="v" format="1">
  <advance width="876"/>
  <unicode hex="0076"/>
  <outline>
    <contour>
      <point x="446" y="1280" type="move" name="top"/>
    </contour>
    <contour>
      <point x="446" y="10" type="move" name="bottom"/>
    </contour>
    <contour>
      <point x="856" y="1600" type="move" name="top_dd"/>
    </contour>
    <contour>
      <point x="856" y="-407" type="move" name="bottom_dd"/>
    </contour>
    <contour>
      <point x="856" y="1280" type="move" name="top0315"/>
    </contour>
    <contour>
      <point x="825" y="1082" type="line"/>
      <point x="645" y="1082" type="line"/>
      <point x="439.34920501708984" y="270.9203643798828" type="line"/>
      <point x="226" y="1082" type="line"/>
      <point x="46" y="1082" type="line"/>
      <point x="371" y="0" type="line"/>
      <point x="504" y="0" type="line"/>
    </contour>
  </outline>
</glyph>
<glyph name="w" format="1">
  <advance width="1331"/>
  <unicode hex="0077"/>
  <outline>
    <contour>
      <point x="661" y="1290" type="move" name="top"/>
    </contour>
    <contour>
      <point x="663" y="10" type="move" name="bottom"/>
    </contour>
    <contour>
      <point x="661" y="1290" type="move" name="marktop"/>
    </contour>
    <contour>
      <point x="1311" y="1600" type="move" name="top_dd"/>
    </contour>
    <contour>
      <point x="1311" y="-407" type="move" name="bottom_dd"/>
    </contour>
    <contour>
      <point x="1311" y="1290" type="move" name="top0315"/>
    </contour>
    <contour>
      <point x="1278" y="1082" type="line"/>
      <point x="1104" y="1082" type="line"/>
      <point x="939.6682434082031" y="309.64073181152344" type="line"/>
      <point x="734" y="1082" type="line"/>
      <point x="594" y="1082" type="line"/>
      <point x="392.5433654785156" y="331.8058319091797" type="line"/>
      <point x="225" y="1082" type="line"/>
      <point x="50" y="1082" type="line"/>
      <point x="314" y="0" type="line"/>
      <point x="456" y="0" type="line"/>
      <point x="661.3120422363281" y="774.1974945068359" type="line"/>
      <point x="873" y="0" type="line"/>
      <point x="1014" y="0" type="line"/>
    </contour>
  </outline>
</glyph>
<glyph name="z" format="1">
  <advance width="899"/>
  <unicode hex="007A"/>
  <outline>
    <contour>
      <point x="453" y="1290" type="move" name="top"/>
    </contour>
    <contour>
      <point x="459" y="10" type="move" name="bottom"/>
    </contour>
    <contour>
      <point x="879" y="1600" type="move" name="top_dd"/>
    </contour>
    <contour>
      <point x="879" y="-407" type="move" name="bottom_dd"/>
    </contour>
    <contour>
      <point x="879" y="1290" type="move" name="top0315"/>
    </contour>
    <contour>
      <point x="98" y="929" type="line"/>
      <point x="590.4154357910156" y="929" type="line"/>
      <point x="95" y="136" type="line"/>
      <point x="95" y="0" type="line"/>
      <point x="818" y="0" type="line"/>
      <point x="818" y="152" type="line"/>
      <point x="298.09989166259766" y="152" type="line"/>
      <point x="798" y="951" type="line"/>
      <point x="798" y="1082" type="line"/>
      <point x="98" y="1082" type="line"/>
    </contour>
  </outline>
</glyph>
<glyph name="braceleft" format="1">
  <advance width="628"/>
  <unicode hex="007B"/>
  <outline>
    <contour>
      <point x="245" y="305" type="curve" smooth="yes"/>
      <point x="245" y="99" type="line" smooth="yes"/>
      <point x="245" y="-111"/>
      <point x="317" y="-289"/>
      <point x="549" y="-366" type="curve"/>
      <point x="585" y="-251" type="line"/>
      <point x="458" y="-201"/>
      <point x="421" y="-65"/>
      <point x="421" y="99" type="curve" smooth="yes"/>
      <point x="421" y="305" type="line" smooth="yes"/>
      <point x="421.0" y="438.89650800000004"/>
      <point x="376.62308204308397" y="553.460497286096"/>
      <point x="274.4720687866211" y="615.4797058105469" type="curve"/>
      <point x="376.623082043084" y="677.425835288588"/>
      <point x="421.0" y="791.766346"/>
      <point x="421.00000000000006" y="925.0" type="curve"/>
      <point x="421" y="1132" type="line"/>
      <point x="421" y="1296"/>
      <point x="459" y="1433"/>
      <point x="585" y="1483" type="curve"/>
      <point x="549" y="1597" type="line"/>
      <point x="317" y="1520"/>
      <point x="245" y="1342"/>
      <point x="245" y="1132" type="curve"/>
      <point x="245" y="925" type="line"/>
      <point x="245" y="780"/>
      <point x="194" y="688"/>
      <point x="72" y="688" type="curve"/>
      <point x="72" y="543" type="line"/>
      <point x="194" y="543"/>
      <point x="245" y="450"/>
    </contour>
  </outline>
</glyph>
<glyph name="braceright" format="1">
  <advance width="628"/>
  <unicode hex="007D"/>
  <outline>
    <contour>
      <point x="380" y="925" type="curve" smooth="yes"/>
      <point x="380" y="1132" type="line" smooth="yes"/>
      <point x="380" y="1342"/>
      <point x="309" y="1520"/>
      <point x="76" y="1597" type="curve"/>
      <point x="40" y="1483" type="line"/>
      <point x="166" y="1433"/>
      <point x="204" y="1296"/>
      <point x="204" y="1132" type="curve" smooth="yes"/>
      <point x="204" y="925" type="line" smooth="yes"/>
      <point x="204.0" y="786.331306"/>
      <point x="252.547280586072" y="672.412206024272"/>
      <point x="363.76111602783203" y="615.1028289794922" type="curve"/>
      <point x="252.54728058607202" y="558.015674513256"/>
      <point x="204.00000000000003" y="444.35858800000005"/>
      <point x="204.0" y="305.0" type="curve" smooth="yes"/>
      <point x="204" y="99" type="line" smooth="yes"/>
      <point x="204" y="-65"/>
      <point x="167" y="-201"/>
      <point x="40" y="-251" type="curve"/>
      <point x="76" y="-366" type="line"/>
      <point x="309" y="-289"/>
      <point x="380" y="-111"/>
      <point x="380" y="99" type="curve" smooth="yes"/>
      <point x="380" y="305" type="line" smooth="yes"/>
      <point x="380" y="450"/>
      <point x="431" y="543"/>
      <point x="553" y="543" type="curve"/>
      <point x="553" y="688" type="line"/>
      <point x="431" y="688"/>
      <point x="380" y="780"/>
    </contour>
  </outline>
</glyph>
<glyph name="cent" format="1">
  <advance width="983"/>
  <unicode hex="00A2"/>
  <outline>
    <contour>
      <point x="881.0000000000001" y="341.99999999999994" type="curve"/>
      <point x="714" y="342" type="line"/>
      <point x="706" y="220"/>
      <point x="620" y="132"/>
      <point x="515" y="132" type="curve" smooth="yes"/>
      <point x="327" y="132"/>
      <point x="281" y="330"/>
      <point x="281" y="520" type="curve" smooth="yes"/>
      <point x="281" y="562" type="line" smooth="yes"/>
      <point x="281" y="750"/>
      <point x="329" y="950"/>
      <point x="515" y="950" type="curve"/>
      <point x="635" y="950"/>
      <point x="706" y="843"/>
      <point x="714" y="710" type="curve"/>
      <point x="881" y="710" type="line"/>
      <point x="873.996296" y="905.228249"/>
      <point x="766.589546167661" y="1059.0689829240741"/>
      <point x="593" y="1094.351303100586" type="curve"/>
      <point x="593" y="1318" type="line"/>
      <point x="416" y="1318" type="line"/>
      <point x="416" y="1090.5262069702148" type="line"/>
      <point x="203.32501444437" y="1038.41239709404"/>
      <point x="103.99999999999996" y="815.48697"/>
      <point x="103.99999999999989" y="561.9999999999999" type="curve" smooth="yes"/>
      <point x="104" y="520" type="line" smooth="yes"/>
      <point x="104.0" y="266.51302999999996"/>
      <point x="203.32501444437003" y="43.58760290595998"/>
      <point x="416" y="-8.521865844726562" type="curve"/>
      <point x="416" y="-245" type="line"/>
      <point x="593" y="-245" type="line"/>
      <point x="593" y="-10.853424072265625" type="line"/>
      <point x="751.7389116578449" y="26.739571833623998"/>
      <point x="874.095608" y="175.43154299999998"/>
    </contour>
  </outline>
</glyph>
<glyph name="sterling" format="1">
  <advance width="1047"/>
  <unicode hex="00A3"/>
  <outline>
    <contour>
      <point x="100" y="0" type="line"/>
      <point x="978" y="0" type="line"/>
      <point x="979" y="157" type="line"/>
      <point x="364.03978729248047" y="157" type="line"/>
      <point x="400.15212521676796" y="219.198222608832"/>
      <point x="417.99999999999994" y="308.647"/>
      <point x="418.0" y="402.0" type="curve" smooth="yes"/>
      <point x="411.7551040649414" y="623" type="line"/>
      <point x="667" y="623" type="line"/>
      <point x="667" y="780" type="line"/>
      <point x="407.3186798095703" y="780" type="line"/>
      <point x="400" y="1039" type="line"/>
      <point x="400" y="1219"/>
      <point x="484" y="1319"/>
      <point x="585" y="1319" type="curve" smooth="yes"/>
      <point x="681" y="1319"/>
      <point x="771" y="1254"/>
      <point x="771" y="1087" type="curve"/>
      <point x="954" y="1087" type="line"/>
      <point x="954" y="1319"/>
      <point x="824" y="1476"/>
      <point x="601" y="1476" type="curve" smooth="yes"/>
      <point x="382" y="1476"/>
      <point x="216" y="1315"/>
      <point x="216" y="1039" type="curve" smooth="yes"/>
      <point x="223.30721282958984" y="780" type="line"/>
      <point x="96" y="780" type="line"/>
      <point x="96" y="623" type="line"/>
      <point x="227.73667907714844" y="623" type="line"/>
      <point x="234" y="401" type="line" smooth="yes"/>
      <point x="234" y="313"/>
      <point x="215" y="174"/>
      <point x="157" y="157" type="curve"/>
      <point x="100" y="157" type="line"/>
    </contour>
  </outline>
</glyph>
<glyph name="currency" format="1">
  <advance width="1461"/>
  <unicode hex="00A4"/>
  <outline>
    <contour>
      <point x="1371" y="110" type="line"/>
      <point x="1228.8315200805664" y="254.27989196777344" type="line"/>
      <point x="1292.728092162584" y="354.18678834208"/>
      <point x="1330.0" y="475.48859600000003"/>
      <point x="1330.0" y="608.0" type="curve" smooth="yes"/>
      <point x="1330.0" y="746.6559"/>
      <point x="1289.4209721176" y="872.4973701424"/>
      <point x="1220.3583602905273" y="974.375358581543" type="curve"/>
      <point x="1371" y="1128" type="line"/>
      <point x="1239" y="1265" type="line"/>
      <point x="1090.1166534423828" y="1113.1684646606445" type="line"/>
      <point x="991.0471683587998" y="1189.5887280196"/>
      <point x="868.1857799999998" y="1234.0"/>
      <point x="735.0" y="1234.0" type="curve" smooth="yes"/>
      <point x="603.132192" y="1234.0"/>
      <point x="481.123993663056" y="1190.197471824784"/>
      <point x="382.3616638183594" y="1114.740089416504" type="curve"/>
      <point x="236" y="1264" type="line"/>
      <point x="105" y="1128" type="line"/>
      <point x="252.27247619628906" y="977.8112335205078" type="line"/>
      <point x="181.655511110075" y="875.3342453811"/>
      <point x="140.0" y="748.219675"/>
      <point x="140.00000000000003" y="608.0" type="curve"/>
      <point x="140.0" y="473.929934"/>
      <point x="178.297320002747" y="351.33472043528"/>
      <point x="243.7015609741211" y="250.76148223876953" type="curve"/>
      <point x="105" y="110" type="line"/>
      <point x="236" y="-26" type="line"/>
      <point x="369.66212463378906" y="110.30889892578125" type="line"/>
      <point x="470.574850934349" y="28.20640531166596"/>
      <point x="597.421384" y="-20.000000000000036"/>
      <point x="735.0" y="-20.00000000000003" type="curve" smooth="yes"/>
      <point x="873.909722" y="-20.0"/>
      <point x="1001.5885575099879" y="28.845442829575994"/>
      <point x="1102.756851196289" y="111.9410400390625" type="curve"/>
      <point x="1239" y="-27" type="line"/>
    </contour>
    <contour>
      <point x="312" y="608" type="curve"/>
      <point x="312" y="860"/>
      <point x="501" y="1062"/>
      <point x="735" y="1062" type="curve" smooth="yes"/>
      <point x="969" y="1062"/>
      <point x="1157" y="860"/>
      <point x="1157" y="608" type="curve" smooth="yes"/>
      <point x="1157" y="356"/>
      <point x="969" y="152"/>
      <point x="735" y="152" type="curve" smooth="yes"/>
      <point x="501" y="152"/>
      <point x="312" y="356"/>
    </contour>
  </outline>
</glyph>
<glyph name="yen" format="1">
  <advance width="950"/>
  <unicode hex="00A5"/>
  <outline>
    <contour>
      <point x="825" y="322" type="line"/>
      <point x="825" y="446" type="line"/>
      <point x="563" y="446" type="line"/>
      <point x="563" y="611.0999984741211" type="line"/>
      <point x="563.3802795410156" y="612" type="line"/>
      <point x="825" y="612" type="line"/>
      <point x="825" y="737" type="line"/>
      <point x="616.1971817016602" y="737" type="line"/>
      <point x="920" y="1456" type="line"/>
      <point x="717" y="1456" type="line"/>
      <point x="476.72827911376953" y="831.6096725463867" type="line"/>
      <point x="237" y="1456" type="line"/>
      <point x="30" y="1456" type="line"/>
      <point x="334.64671325683594" y="737" type="line"/>
      <point x="124" y="737" type="line"/>
      <point x="124" y="612" type="line"/>
      <point x="379" y="612" type="line"/>
      <point x="379" y="446" type="line"/>
      <point x="124" y="446" type="line"/>
      <point x="124" y="322" type="line"/>
      <point x="379" y="322" type="line"/>
      <point x="379" y="0" type="line"/>
      <point x="563" y="0" type="line"/>
      <point x="563" y="322" type="line"/>
    </contour>
  </outline>
</glyph>
<glyph name="section" format="1">
  <advance width="1101"/>
  <unicode hex="00A7"/>
  <outline>
    <contour>
      <point x="952" y="-129" type="curve" smooth="yes"/>
      <point x="952.0" y="5.363886000000008"/>
      <point x="910.360792533572" y="92.55608242264802"/>
      <point x="832.4245223999023" y="157.40228271484375" type="curve"/>
      <point x="931.9354870138501" y="210.527604519003"/>
      <point x="990.0000000000001" y="304.699287"/>
      <point x="990.0" y="431.0" type="curve"/>
      <point x="990" y="680"/>
      <point x="848" y="772"/>
      <point x="598" y="855" type="curve" smooth="yes"/>
      <point x="368" y="933"/>
      <point x="312" y="979"/>
      <point x="312" y="1113" type="curve"/>
      <point x="312" y="1229"/>
      <point x="386" y="1325"/>
      <point x="552" y="1325" type="curve" smooth="yes"/>
      <point x="709" y="1325"/>
      <point x="794" y="1200"/>
      <point x="794" y="1046" type="curve"/>
      <point x="971" y="1046" type="line"/>
      <point x="971" y="1324"/>
      <point x="812" y="1477"/>
      <point x="552" y="1477" type="curve" smooth="yes"/>
      <point x="298" y="1477"/>
      <point x="135" y="1332"/>
      <point x="135" y="1111" type="curve"/>
      <point x="135.0" y="978.500128"/>
      <point x="176.341390424064" y="890.456408716288"/>
      <point x="252.24365997314453" y="825.1730194091797" type="curve"/>
      <point x="154.03794817878298" y="771.0493208368109"/>
      <point x="97.0" y="674.7855639999999"/>
      <point x="97.00000000000003" y="550.9999999999999" type="curve" smooth="yes"/>
      <point x="97" y="302"/>
      <point x="241" y="205"/>
      <point x="487" y="126" type="curve"/>
      <point x="706" y="45"/>
      <point x="776" y="-7"/>
      <point x="776" y="-131" type="curve" smooth="yes"/>
      <point x="776" y="-251"/>
      <point x="689" y="-343"/>
      <point x="537" y="-343" type="curve" smooth="yes"/>
      <point x="411" y="-343"/>
      <point x="269" y="-274"/>
      <point x="269" y="-62" type="curve"/>
      <point x="92" y="-64" type="line"/>
      <point x="92" y="-388"/>
      <point x="318" y="-495"/>
      <point x="537" y="-495" type="curve" smooth="yes"/>
      <point x="788" y="-495"/>
      <point x="952" y="-361"/>
    </contour>
    <contour>
      <point x="557.0" y="290.00000000000006" type="curve" smooth="yes"/>
      <point x="329" y="369"/>
      <point x="274" y="419"/>
      <point x="274" y="553" type="curve" smooth="yes"/>
      <point x="274.0" y="643.62069"/>
      <point x="311.25720736216" y="715.6127763189199"/>
      <point x="390.1756057739258" y="742.0441131591797" type="curve"/>
      <point x="431.68488734786104" y="723.6800922328931"/>
      <point x="477.75254300000006" y="707.0710490000001"/>
      <point x="528.0000000000001" y="691.0" type="curve" smooth="yes"/>
      <point x="746" y="609"/>
      <point x="814" y="553"/>
      <point x="814" y="428" type="curve"/>
      <point x="814.0" y="338.865188"/>
      <point x="769.890049091904" y="268.302986908672"/>
      <point x="691.8399276733398" y="239.76641845703125" type="curve"/>
      <point x="651.2137251499" y="257.44941468440004"/>
      <point x="606.18284" y="273.80089000000004"/>
    </contour>
  </outline>
</glyph>
<glyph name="ordfeminine" format="1">
  <advance width="812"/>
  <unicode hex="00AA"/>
  <outline>
    <contour>
      <point x="530.0" y="706.0" type="curve"/>
      <point x="686" y="706" type="line"/>
      <point x="670" y="764"/>
      <point x="664" y="822"/>
      <point x="664" y="887" type="curve" smooth="yes"/>
      <point x="664" y="1201" type="line"/>
      <point x="664" y="1384"/>
      <point x="566" y="1477"/>
      <point x="417" y="1477" type="curve" smooth="yes"/>
      <point x="259" y="1477"/>
      <point x="155" y="1379"/>
      <point x="155" y="1244" type="curve"/>
      <point x="307" y="1231" type="line"/>
      <point x="307" y="1300"/>
      <point x="349" y="1336"/>
      <point x="417" y="1336" type="curve" smooth="yes"/>
      <point x="480" y="1336"/>
      <point x="510" y="1288"/>
      <point x="510" y="1202" type="curve"/>
      <point x="510" y="1149" type="line"/>
      <point x="428" y="1149" type="line"/>
      <point x="233" y="1149"/>
      <point x="140" y="1065"/>
      <point x="140" y="918" type="curve" smooth="yes"/>
      <point x="140" y="781"/>
      <point x="215" y="692"/>
      <point x="350" y="692" type="curve" smooth="yes"/>
      <point x="428.196362" y="692.0"/>
      <point x="481.926511814572" y="729.64032643912"/>
      <point x="516.0314331054688" y="774.2747421264648" type="curve"/>
      <point x="519.370827293014" y="750.421248175183"/>
      <point x="524.058831" y="727.479611"/>
    </contour>
    <contour>
      <point x="388.0" y="829.0" type="curve" smooth="yes"/>
      <point x="325" y="829"/>
      <point x="295" y="864"/>
      <point x="295" y="922" type="curve" smooth="yes"/>
      <point x="295" y="985"/>
      <point x="335" y="1038"/>
      <point x="429" y="1038" type="curve"/>
      <point x="510" y="1038" type="line"/>
      <point x="510" y="891.4023971557617" type="line"/>
      <point x="480.29629030399997" y="857.4889513984"/>
      <point x="431.05152" y="829.0"/>
    </contour>
  </outline>
</glyph>
<glyph name="threesuperior" format="1">
  <advance width="675"/>
  <unicode hex="00B3"/>
  <outline>
    <contour>
      <point x="315" y="1011" type="line" smooth="yes"/>
      <point x="391.0" y="1011.0"/>
      <point x="436.0" y="979.0"/>
      <point x="436.0" y="895.0" type="curve" smooth="yes"/>
      <point x="436.0" y="829.0"/>
      <point x="398.0" y="784.0"/>
      <point x="327.0" y="784.0" type="curve" smooth="yes"/>
      <point x="261.0" y="784.0"/>
      <point x="219.0" y="830.0"/>
      <point x="219.0" y="890.0" type="curve"/>
      <point x="70" y="890" type="line"/>
      <point x="70.0" y="727.0"/>
      <point x="193.0" y="656.0"/>
      <point x="322.0" y="656.0" type="curve" smooth="yes"/>
      <point x="471.0" y="656.0"/>
      <point x="585.0" y="740.0"/>
      <point x="585.0" y="887.0" type="curve" smooth="yes"/>
      <point x="585.0" y="979.23078399999997"/>
      <point x="546.57944969013397" y="1043.424950206314"/>
      <point x="461.50811767578125" y="1072.0890274047852" type="curve"/>
      <point x="534.45714243703594" y="1105.5471891734571"/>
      <point x="574.0" y="1170.272234"/>
      <point x="574.0" y="1243.0" type="curve"/>
      <point x="574.0" y="1389.0"/>
      <point x="471.0" y="1467.0"/>
      <point x="322.0" y="1467.0" type="curve" smooth="yes"/>
      <point x="185.0" y="1467.0"/>
      <point x="78.0" y="1382.0"/>
      <point x="78.0" y="1246.0" type="curve"/>
      <point x="227" y="1246" type="line"/>
      <point x="227.0" y="1303.0"/>
      <point x="268.0" y="1339.0"/>
      <point x="325.0" y="1339.0" type="curve" smooth="yes"/>
      <point x="395.0" y="1339.0"/>
      <point x="425.0" y="1294.0"/>
      <point x="425.0" y="1235.0" type="curve"/>
      <point x="425.0" y="1171.0"/>
      <point x="389.0" y="1126.0"/>
      <point x="315.0" y="1126.0" type="curve" smooth="yes"/>
      <point x="242" y="1126" type="line"/>
      <point x="242" y="1011" type="line"/>
    </contour>
  </outline>
</glyph>
<glyph name="mu" format="1">
  <advance width="1021"/>
  <unicode hex="00B5"/>
  <outline>
    <contour>
      <point x="502.0" y="-21.000000000000014" type="curve" smooth="yes"/>
      <point x="593.077154" y="-21.0"/>
      <point x="660.775950050165" y="24.333685415766986"/>
      <point x="707.6628265380859" y="101.90518188476562" type="curve"/>
      <point x="715" y="0" type="line"/>
      <point x="874" y="0" type="line"/>
      <point x="874" y="1082" type="line"/>
      <point x="697" y="1082" type="line"/>
      <point x="697" y="266.26990509033203" type="line"/>
      <point x="664.186841782475" y="181.91853137387506"/>
      <point x="602.7531399999999" y="131.00000000000006"/>
      <point x="494.99999999999994" y="131.00000000000006" type="curve" smooth="yes"/>
      <point x="398" y="131"/>
      <point x="323" y="185"/>
      <point x="323" y="460" type="curve"/>
      <point x="323" y="1082" type="line"/>
      <point x="147" y="1082" type="line"/>
      <point x="147" y="-416" type="line"/>
      <point x="323" y="-416" type="line"/>
      <point x="323" y="47.80198669433594" type="line"/>
      <point x="367.333732564917" y="0.08200995538398814"/>
      <point x="424.690558" y="-21.00000000000001"/>
    </contour>
  </outline>
</glyph>
<glyph name="AE" format="1">
  <advance width="1664"/>
  <unicode hex="00C6"/>
  <outline>
    <contour>
      <point x="803" y="1612" type="move" name="top"/>
    </contour>
    <contour>
      <point x="1644" y="1600" type="move" name="top_dd"/>
    </contour>
    <contour>
      <point x="1644" y="1612" type="move" name="top0315"/>
    </contour>
    <contour>
      <point x="1617" y="152" type="line"/>
      <point x="1024.6758270263672" y="152" type="line"/>
      <point x="1006.1112670898438" y="682" type="line"/>
      <point x="1497" y="682" type="line"/>
      <point x="1497" y="834" type="line"/>
      <point x="1000.7870864868164" y="834" type="line"/>
      <point x="984.3241729736328" y="1304" type="line"/>
      <point x="1565" y="1304" type="line"/>
      <point x="1565" y="1456" type="line"/>
      <point x="737" y="1456" type="line"/>
      <point x="-3" y="0" type="line"/>
      <point x="214" y="0" type="line"/>
      <point x="381.99234771728516" y="353" type="line"/>
      <point x="841.3928604125977" y="353" type="line"/>
      <point x="854" y="0" type="line"/>
      <point x="1617" y="0" type="line"/>
    </contour>
    <contour>
      <point x="465.27467346191406" y="528" type="line"/>
      <point x="809.3234024047852" y="1250.94482421875" type="line"/>
      <point x="835.1428604125977" y="528" type="line"/>
    </contour>
  </outline>
</glyph>
<glyph name="multiply" format="1">
  <advance width="964"/>
  <unicode hex="00D7"/>
  <outline>
    <contour>
      <point x="859" y="329" type="line"/>
      <point x="583.6178436279297" y="663.7535400390625" type="line"/>
      <point x="861" y="1000" type="line"/>
      <point x="748" y="1124" type="line"/>
      <point x="476.29258728027344" y="794.2177200317383" type="line"/>
      <point x="205" y="1124" type="line"/>
      <point x="92" y="1000" type="line"/>
      <point x="368.8809585571289" y="663.8478851318359" type="line"/>
      <point x="93" y="329" type="line"/>
      <point x="206" y="206" type="line"/>
      <point x="476.20626068115234" y="533.5477447509766" type="line"/>
      <point x="746" y="206" type="line"/>
    </contour>
  </outline>
</glyph>
<glyph name="Oslash" format="1">
  <advance width="1231"/>
  <unicode hex="00D8"/>
  <outline>
    <contour>
      <point x="621" y="1674" type="move" name="top"/>
    </contour>
    <contour>
      <point x="1211" y="1600" type="move" name="top_dd"/>
    </contour>
    <contour>
      <point x="1211" y="1674" type="move" name="top0315"/>
    </contour>
    <contour>
      <point x="616.0" y="-20.0000000000001" type="curve" smooth="yes"/>
      <point x="917" y="-20"/>
      <point x="1113" y="245"/>
      <point x="1113" y="682" type="curve"/>
      <point x="1113" y="774" type="line"/>
      <point x="1113.0" y="975.025648"/>
      <point x="1071.121010977072" y="1139.9120668939202"/>
      <point x="996.4785919189453" y="1259.2444305419922" type="curve"/>
      <point x="1131" y="1516" type="line"/>
      <point x="1001" y="1516" type="line"/>
      <point x="917.5651473999023" y="1357.128189086914" type="line"/>
      <point x="836.810820276096" y="1434.397263090784"/>
      <point x="734.038276" y="1476.0"/>
      <point x="615.0000000000001" y="1476.0" type="curve" smooth="yes"/>
      <point x="323" y="1476"/>
      <point x="117" y="1210"/>
      <point x="117" y="774" type="curve"/>
      <point x="117" y="682" type="line"/>
      <point x="117.0" y="446.659768"/>
      <point x="177.324372845568" y="261.203152006912"/>
      <point x="278.4498825073242" y="140.16197204589844" type="curve"/>
      <point x="156" y="-93" type="line"/>
      <point x="288" y="-93" type="line"/>
      <point x="367.01505279541016" y="57.812835693359375" type="line"/>
      <point x="438.871225267867" y="6.9401275419849"/>
      <point x="523.216687" y="-20.000000000000096"/>
    </contour>
    <contour>
      <point x="298.99999999999994" y="682.0" type="curve" smooth="yes"/>
      <point x="299" y="776" type="line" smooth="yes"/>
      <point x="299" y="1122"/>
      <point x="426" y="1312"/>
      <point x="615" y="1312" type="curve" smooth="yes"/>
      <point x="706.06439" y="1312.0"/>
      <point x="779.7480062957" y="1272.212686701"/>
      <point x="832.8887023925781" y="1195.8922119140625" type="curve"/>
      <point x="369.41947174072266" y="313.3809814453125" type="line"/>
      <point x="324.52708824035597" y="402.96390438927597"/>
      <point x="298.99999999999994" y="526.750142"/>
    </contour>
    <contour>
      <point x="930.0000000000001" y="776.0" type="curve"/>
      <point x="930" y="682" type="line"/>
      <point x="930" y="333"/>
      <point x="817" y="143"/>
      <point x="616" y="143" type="curve" smooth="yes"/>
      <point x="551.494756" y="143.0"/>
      <point x="493.93537731537106" y="165.36804084611"/>
      <point x="446.1492004394531" y="208.85298919677734" type="curve"/>
      <point x="894.0650939941406" y="1063.7719268798828" type="line"/>
      <point x="917.6390621299" y="985.2696897609001"/>
      <point x="930.0" y="888.94651"/>
    </contour>
  </outline>
</glyph>
<glyph name="ae" format="1">
  <advance width="1492"/>
  <unicode hex="00E6"/>
  <outline>
    <contour>
      <point x="742" y="1291" type="move" name="top"/>
    </contour>
    <contour>
      <point x="1472" y="1600" type="move" name="top_dd"/>
    </contour>
    <contour>
      <point x="1472" y="1291" type="move" name="top0315"/>
    </contour>
    <contour>
      <point x="1402" y="102" type="curve"/>
      <point x="1342" y="238" type="line"/>
      <point x="1288" y="193"/>
      <point x="1215" y="131"/>
      <point x="1080" y="131" type="curve" smooth="yes"/>
      <point x="900.4542" y="131.0"/>
      <point x="819.6796335399999" y="293.13391166"/>
      <point x="814.2900619506836" y="498" type="curve"/>
      <point x="1415" y="498" type="line"/>
      <point x="1415" y="616" type="line" smooth="yes"/>
      <point x="1415" y="915"/>
      <point x="1285" y="1102"/>
      <point x="1038" y="1102" type="curve" smooth="yes"/>
      <point x="925.385446" y="1103.009996"/>
      <point x="827.052178880224" y="1046.384798519096"/>
      <point x="757.2954635620117" y="949.3701629638672" type="curve"/>
      <point x="699.6986682714239" y="1050.880650515839"/>
      <point x="598.5301029999999" y="1102.0"/>
      <point x="472.0" y="1102.0" type="curve" smooth="yes"/>
      <point x="255" y="1102"/>
      <point x="107" y="965"/>
      <point x="107" y="778" type="curve"/>
      <point x="283" y="760" type="line"/>
      <point x="283" y="863"/>
      <point x="358" y="950"/>
      <point x="472" y="950" type="curve" smooth="yes"/>
      <point x="578" y="950"/>
      <point x="639" y="863"/>
      <point x="639" y="720" type="curve"/>
      <point x="639" y="636" type="line"/>
      <point x="463" y="636" type="line"/>
      <point x="214" y="636"/>
      <point x="84" y="514"/>
      <point x="84" y="304" type="curve" smooth="yes"/>
      <point x="84" y="107"/>
      <point x="189" y="-21"/>
      <point x="382" y="-21" type="curve" smooth="yes"/>
      <point x="566.988664" y="-21.0"/>
      <point x="685.231500484269" y="65.549534580838"/>
      <point x="744.2665939331055" y="151.97328186035156" type="curve"/>
      <point x="817.120566938112" y="43.63897850010399"/>
      <point x="930.25544" y="-21.00000000000003"/>
      <point x="1080.0" y="-21.00000000000003" type="curve"/>
      <point x="1263" y="-21"/>
      <point x="1369" y="67"/>
    </contour>
    <contour>
      <point x="1038.0" y="950.0000000000001" type="curve"/>
      <point x="1188" y="950"/>
      <point x="1239" y="822"/>
      <point x="1239" y="671" type="curve"/>
      <point x="1239" y="640" type="line"/>
      <point x="817.4900970458984" y="640" type="line"/>
      <point x="834.2163887693459" y="817.3351522980681"/>
      <point x="910.655055" y="950.0000000000001"/>
    </contour>
    <contour>
      <point x="418.0" y="130.0" type="curve" smooth="yes"/>
      <point x="309" y="130"/>
      <point x="260" y="205"/>
      <point x="260" y="300" type="curve" smooth="yes"/>
      <point x="260" y="404"/>
      <point x="332" y="496"/>
      <point x="465" y="496" type="curve"/>
      <point x="639" y="496" type="line"/>
      <point x="639" y="248.87005615234375" type="line"/>
      <point x="586.476023039716" y="186.736809167887"/>
      <point x="494.196574" y="130.0"/>
    </contour>
  </outline>
</glyph>
<glyph name="eth" format="1">
  <advance width="1052"/>
  <unicode hex="00F0"/>
  <outline>
    <contour>
      <point x="923" y="535" type="curve"/>
      <point x="923" y="633" type="line"/>
      <point x="923.0" y="908.582634"/>
      <point x="841.653847918436" y="1136.438189841444"/>
      <point x="706.0966339111328" y="1302.7513427734375" type="curve"/>
      <point x="850" y="1417" type="line"/>
      <point x="781" y="1516" type="line"/>
      <point x="623.0099563598633" y="1390.910270690918" type="line"/>
      <point x="524.464504332966" y="1481.325083725573"/>
      <point x="406.14585900000003" y="1545.865433"/>
      <point x="275.0" y="1580.9999999999998" type="curve"/>
      <point x="221" y="1421" type="line"/>
      <point x="315.50807000000003" y="1391.172985"/>
      <point x="405.63583673922506" y="1345.6218044485"/>
      <point x="483.70484924316406" y="1280.6144638061523" type="curve"/>
      <point x="320" y="1151" type="line"/>
      <point x="389" y="1051" type="line"/>
      <point x="569.8362197875977" y="1194.5706176757812" type="line"/>
      <point x="638.4584103842045" y="1112.1911570804195"/>
      <point x="691.4385793408854" y="1008.114797368861"/>
      <point x="720.6667175292969" y="878.3861389160156" type="curve"/>
      <point x="663.0827221472" y="938.626951901696"/>
      <point x="585.89096" y="978.0"/>
      <point x="498.0" y="978.0" type="curve"/>
      <point x="283" y="978"/>
      <point x="119" y="776"/>
      <point x="119" y="468" type="curve"/>
      <point x="119" y="196"/>
      <point x="284" y="-20"/>
      <point x="521" y="-20" type="curve" smooth="yes"/>
      <point x="754" y="-20"/>
      <point x="923" y="206"/>
    </contour>
    <contour>
      <point x="295" y="468" type="curve"/>
      <point x="295" y="688"/>
      <point x="388" y="826"/>
      <point x="542" y="826" type="curve"/>
      <point x="646.645919" y="826.0"/>
      <point x="714.297710991583" y="763.667429835133"/>
      <point x="744.5946273803711" y="695.6097946166992" type="curve"/>
      <point x="745.5256735350771" y="675.886897378121"/>
      <point x="746.0000000000001" y="655.6767080000001"/>
      <point x="746.0" y="635.0" type="curve" smooth="yes"/>
      <point x="746" y="535" type="line" smooth="yes"/>
      <point x="746" y="305"/>
      <point x="662" y="132"/>
      <point x="525" y="132" type="curve" smooth="yes"/>
      <point x="377" y="132"/>
      <point x="295" y="303"/>
    </contour>
  </outline>
</glyph>
<glyph name="oslash" format="1">
  <advance width="1021"/>
  <unicode hex="00F8"/>
  <outline>
    <contour>
      <point x="475" y="1289" type="move" name="top"/>
    </contour>
    <contour>
      <point x="1001" y="1600" type="move" name="top_dd"/>
    </contour>
    <contour>
      <point x="1001" y="1289" type="move" name="top0315"/>
    </contour>
    <contour>
      <point x="515.0" y="-19.999999999999957" type="curve" smooth="yes"/>
      <point x="773" y="-20"/>
      <point x="931" y="216"/>
      <point x="931" y="529" type="curve"/>
      <point x="931" y="552" type="line"/>
      <point x="931.0" y="742.292732"/>
      <point x="872.600004403232" y="904.494326877504"/>
      <point x="768.3842315673828" y="1002.4154434204102" type="curve"/>
      <point x="854" y="1209" type="line"/>
      <point x="741" y="1209" type="line"/>
      <point x="680.8103179931641" y="1063.7667388916016" type="line"/>
      <point x="631.177473989608" y="1088.528627211148"/>
      <point x="574.9876399999999" y="1102.0"/>
      <point x="513.0" y="1102.0" type="curve" smooth="yes"/>
      <point x="256" y="1102"/>
      <point x="98" y="865"/>
      <point x="98" y="552" type="curve"/>
      <point x="98" y="529" type="line"/>
      <point x="98.0" y="333.28423"/>
      <point x="159.7760382878" y="167.67450397569996"/>
      <point x="269.3926467895508" y="71.04617309570312" type="curve"/>
      <point x="184" y="-135" type="line"/>
      <point x="297" y="-135" type="line"/>
      <point x="358.34803771972656" y="13.028305053710938" type="line"/>
      <point x="405.1946246525" y="-8.41608100999996"/>
      <point x="457.61855" y="-19.999999999999957"/>
    </contour>
    <contour>
      <point x="274.0" y="528.9999999999999" type="curve"/>
      <point x="274" y="552" type="line"/>
      <point x="274" y="764"/>
      <point x="351" y="950"/>
      <point x="513" y="950" type="curve" smooth="yes"/>
      <point x="554.035413" y="950.0"/>
      <point x="589.6836478899149" y="938.211586723814"/>
      <point x="620.0562744140625" y="917.1716842651367" type="curve"/>
      <point x="339.10497283935547" y="239.2568817138672" type="line"/>
      <point x="295.219406062932" y="312.363811169828"/>
      <point x="274.0" y="416.13489"/>
    </contour>
    <contour>
      <point x="753.9999999999999" y="552.0" type="curve"/>
      <point x="754" y="529" type="line"/>
      <point x="754" y="314"/>
      <point x="676" y="132"/>
      <point x="515" y="132" type="curve" smooth="yes"/>
      <point x="478.45424" y="132.0"/>
      <point x="446.2286969072" y="141.0376951392"/>
      <point x="418.2127456665039" y="157.47743225097656" type="curve"/>
      <point x="696.0428085327148" y="827.8609237670898" type="line"/>
      <point x="734.962263455368" y="755.126199818456"/>
      <point x="754.0" y="656.7360560000001"/>
    </contour>
  </outline>
</glyph>
<glyph name="thorn" format="1">
  <advance width="1041"/>
  <unicode hex="00FE"/>
  <outline>
    <contour>
      <point x="569.0" y="-19.999999999999986" type="curve" smooth="yes"/>
      <point x="796" y="-20"/>
      <point x="924" y="213"/>
      <point x="924" y="529" type="curve" smooth="yes"/>
      <point x="924" y="550" type="line"/>
      <point x="924" y="880"/>
      <point x="798" y="1102"/>
      <point x="567" y="1102" type="curve" smooth="yes"/>
      <point x="461.65232" y="1102.0"/>
      <point x="379.61624718950395" y="1062.410460204032"/>
      <point x="319" y="989.9799118041992" type="curve"/>
      <point x="319" y="1536" type="line"/>
      <point x="142" y="1536" type="line"/>
      <point x="142" y="-416" type="line"/>
      <point x="319" y="-416" type="line"/>
      <point x="319" y="88.47185516357422" type="line"/>
      <point x="379.821715918364" y="18.46371482764002"/>
      <point x="462.36564200000004" y="-19.99999999999998"/>
    </contour>
    <contour>
      <point x="512.0" y="946.0" type="curve" smooth="yes"/>
      <point x="676" y="946"/>
      <point x="747" y="765"/>
      <point x="747" y="550" type="curve" smooth="yes"/>
      <point x="747" y="529" type="line"/>
      <point x="747" y="314"/>
      <point x="676" y="132"/>
      <point x="514" y="132" type="curve" smooth="yes"/>
      <point x="416.901208" y="132.0"/>
      <point x="357.761195234752" y="187.411091526592"/>
      <point x="319" y="265.6702194213867" type="curve"/>
      <point x="319" y="808.1108474731445" type="line"/>
      <point x="358.54832850688" y="888.32004698624"/>
      <point x="420.854176" y="946.0"/>
    </contour>
  </outline>
</glyph>
<glyph name="Aogonek" format="1">
  <advance width="1181"/>
  <unicode hex="0104"/>
  <outline>
    <contour>
      <point x="594" y="1601" type="move" name="parent_top"/>
    </contour>
    <contour>
      <point x="604" y="0" type="move" name="bottom"/>
    </contour>
    <contour>
      <point x="1161" y="1600" type="move" name="top_dd"/>
    </contour>
    <contour>
      <point x="1161" y="-407" type="move" name="bottom_dd"/>
    </contour>
    <contour>
      <point x="1161" y="1601" type="move" name="top0315"/>
    </contour>
    <contour>
      <point x="594" y="1601" type="move" name="top"/>
    </contour>
    <contour>
      <point x="43" y="0" type="line"/>
      <point x="231" y="0" type="line"/>
      <point x="345.2712860107422" y="381" type="line"/>
      <point x="836.7287139892578" y="381" type="line"/>
      <point x="949.4773254394531" y="5.076850891113281" type="line"/>
      <point x="847.83987654566" y="-69.527571448478"/>
      <point x="809.0" y="-156.911117"/>
      <point x="809.0" y="-243.0" type="curve" smooth="yes"/>
      <point x="809" y="-368"/>
      <point x="884" y="-434"/>
      <point x="977" y="-434" type="curve" smooth="yes"/>
      <point x="1047" y="-434"/>
      <point x="1089" y="-410"/>
      <point x="1117" y="-390" type="curve"/>
      <point x="1107" y="-268" type="line"/>
      <point x="1090" y="-279"/>
      <point x="1060" y="-295"/>
      <point x="1024" y="-295" type="curve" smooth="yes"/>
      <point x="978" y="-295"/>
      <point x="961" y="-266"/>
      <point x="961" y="-222" type="curve" smooth="yes"/>
      <point x="961" y="-135"/>
      <point x="1031" y="-64"/>
      <point x="1102" y="0" type="curve"/>
      <point x="1139" y="0" type="line"/>
      <point x="670" y="1456" type="line"/>
      <point x="512" y="1456" type="line"/>
    </contour>
    <contour>
      <point x="392.65938568115234" y="539" type="line"/>
      <point x="591" y="1200.3015060424805" type="line"/>
      <point x="789.3406143188477" y="539" type="line"/>
    </contour>
  </outline>
</glyph>
<glyph name="aogonek" format="1">
  <advance width="981"/>
  <unicode hex="0105"/>
  <outline>
    <contour>
      <point x="509" y="1290" type="move" name="parent_top"/>
    </contour>
    <contour>
      <point x="440" y="0" type="move" name="bottom"/>
    </contour>
    <contour>
      <point x="961" y="1600" type="move" name="top_dd"/>
    </contour>
    <contour>
      <point x="961" y="-407" type="move" name="bottom_dd"/>
    </contour>
    <contour>
      <point x="961" y="1290" type="move" name="top0315"/>
    </contour>
    <contour>
      <point x="509" y="1290" type="move" name="top"/>
    </contour>
    <contour>
      <point x="856" y="-390" type="curve"/>
      <point x="846" y="-268" type="line"/>
      <point x="829" y="-279"/>
      <point x="799" y="-295"/>
      <point x="763" y="-295" type="curve" smooth="yes"/>
      <point x="717" y="-295"/>
      <point x="700" y="-266"/>
      <point x="700" y="-222" type="curve" smooth="yes"/>
      <point x="700" y="-135"/>
      <point x="770" y="-64"/>
      <point x="841" y="0" type="curve"/>
      <point x="873" y="0" type="line"/>
      <point x="873" y="16" type="line"/>
      <point x="851" y="74"/>
      <point x="840" y="164"/>
      <point x="840" y="236" type="curve" smooth="yes"/>
      <point x="840" y="770" type="line"/>
      <point x="840" y="1012"/>
      <point x="698" y="1102"/>
      <point x="498" y="1102" type="curve" smooth="yes"/>
      <point x="274" y="1102"/>
      <point x="132" y="937"/>
      <point x="132" y="782" type="curve"/>
      <point x="309" y="782" type="line"/>
      <point x="309" y="873"/>
      <point x="376" y="950"/>
      <point x="489" y="950" type="curve" smooth="yes"/>
      <point x="605" y="950"/>
      <point x="663" y="900"/>
      <point x="663" y="772" type="curve"/>
      <point x="663" y="656" type="line"/>
      <point x="541" y="656" type="line"/>
      <point x="257" y="656"/>
      <point x="114" y="503"/>
      <point x="114" y="295" type="curve" smooth="yes"/>
      <point x="114" y="89"/>
      <point x="238" y="-20"/>
      <point x="427" y="-20" type="curve" smooth="yes"/>
      <point x="533.60989" y="-20.0"/>
      <point x="616.62323609866" y="44.10394426530701"/>
      <point x="666.1747817993164" y="117.33045196533203" type="curve"/>
      <point x="670.0052800543975" y="74.95716114058358"/>
      <point x="677.3020126390329" y="32.58253005064411"/>
      <point x="688.0649795532227" y="4.775077819824219" type="curve"/>
      <point x="586.734806624" y="-69.7641197792"/>
      <point x="548.0" y="-157.02764000000002"/>
      <point x="548.0" y="-243.0" type="curve" smooth="yes"/>
      <point x="548" y="-368"/>
      <point x="623" y="-434"/>
      <point x="716" y="-434" type="curve" smooth="yes"/>
      <point x="786" y="-434"/>
      <point x="828" y="-410"/>
    </contour>
    <contour>
      <point x="454.0" y="140.99999999999997" type="curve" smooth="yes"/>
      <point x="344" y="141"/>
      <point x="291" y="187"/>
      <point x="291" y="317" type="curve" smooth="yes"/>
      <point x="291" y="451"/>
      <point x="401" y="526"/>
      <point x="570" y="526" type="curve"/>
      <point x="663" y="526" type="line"/>
      <point x="663" y="266.80267333984375" type="line"/>
      <point x="631.475897876992" y="203.47960709939198"/>
      <point x="553.337168" y="140.99999999999997"/>
    </contour>
  </outline>
</glyph>
<glyph name="dcroat" format="1">
  <advance width="1084"/>
  <unicode hex="0111"/>
  <outline>
    <contour>
      <point x="958" y="1536" type="move" name="caron"/>
    </contour>
    <contour>
      <point x="541" y="0" type="move" name="bottom"/>
    </contour>
    <contour>
      <point x="483" y="1611" type="move" name="top"/>
    </contour>
    <contour>
      <point x="996" y="1600" type="move" name="top_dd"/>
    </contour>
    <contour>
      <point x="996" y="-407" type="move" name="bottom_dd"/>
    </contour>
    <contour>
      <point x="541" y="0" type="move" name="markbottom"/>
    </contour>
    <contour>
      <point x="1064" y="1611" type="move" name="top0315"/>
    </contour>
    <contour>
      <point x="768" y="1310" type="move" name="parenthesses.w2"/>
    </contour>
    <contour>
      <point x="715" y="0" type="line"/>
      <point x="876" y="0" type="line"/>
      <point x="876" y="1233" type="line"/>
      <point x="1039" y="1233" type="line"/>
      <point x="1039" y="1385" type="line"/>
      <point x="876" y="1385" type="line"/>
      <point x="876" y="1536" type="line"/>
      <point x="700" y="1536" type="line"/>
      <point x="700" y="1385" type="line"/>
      <point x="496" y="1385" type="line"/>
      <point x="496" y="1233" type="line"/>
      <point x="700" y="1233" type="line"/>
      <point x="700" y="992.5606231689453" type="line"/>
      <point x="641.3564278422" y="1063.3511639747"/>
      <point x="561.64562" y="1102.0"/>
      <point x="458.00000000000006" y="1102.0" type="curve" smooth="yes"/>
      <point x="241" y="1102"/>
      <point x="95" y="880"/>
      <point x="95" y="550" type="curve" smooth="yes"/>
      <point x="95" y="529" type="line"/>
      <point x="95" y="213"/>
      <point x="243" y="-20"/>
      <point x="456" y="-20" type="curve" smooth="yes"/>
      <point x="565.68218" y="-20.0"/>
      <point x="648.3647087468751" y="22.55145037492499"/>
      <point x="707.8623123168945" y="99.9276123046875" type="curve"/>
    </contour>
    <contour>
      <point x="272" y="529" type="curve" smooth="yes"/>
      <point x="272" y="550" type="line"/>
      <point x="272" y="765"/>
      <point x="340" y="946"/>
      <point x="504" y="946" type="curve" smooth="yes"/>
      <point x="598.086421" y="946.0"/>
      <point x="660.571561398943" y="885.39480432674"/>
      <point x="700" y="802.0459976196289" type="curve"/>
      <point x="700" y="281.5426788330078" type="line"/>
      <point x="661.209980134336" y="196.64726717305604"/>
      <point x="601.866848" y="137.00000000000003"/>
      <point x="501.9999999999999" y="137.00000000000003" type="curve" smooth="yes"/>
      <point x="340" y="137"/>
      <point x="272" y="314"/>
    </contour>
  </outline>
</glyph>
<glyph name="eogonek" format="1">
  <advance width="960"/>
  <unicode hex="0119"/>
  <outline>
    <contour>
      <point x="494" y="1290" type="move" name="parent_top"/>
    </contour>
    <contour>
      <point x="497" y="0" type="move" name="bottom"/>
    </contour>
    <contour>
      <point x="941" y="1600" type="move" name="top_dd"/>
    </contour>
    <contour>
      <point x="941" y="-407" type="move" name="bottom_dd"/>
    </contour>
    <contour>
      <point x="941" y="1290" type="move" name="top0315"/>
    </contour>
    <contour>
      <point x="494" y="1290" type="move" name="top"/>
    </contour>
    <contour>
      <point x="714" y="-364" type="curve"/>
      <point x="704" y="-242" type="line"/>
      <point x="687" y="-253"/>
      <point x="657" y="-269"/>
      <point x="621" y="-269" type="curve" smooth="yes"/>
      <point x="575" y="-269"/>
      <point x="558" y="-240"/>
      <point x="558" y="-196" type="curve" smooth="yes"/>
      <point x="558.0" y="-120.199771"/>
      <point x="611.13743297023" y="-56.54524096462399"/>
      <point x="671.776725769043" y="0.9109573364257812" type="curve"/>
      <point x="767.867908062034" y="30.056475778563"/>
      <point x="830.3513009999999" y="85.816237"/>
      <point x="871.0" y="143.0" type="curve"/>
      <point x="778" y="254" type="line"/>
      <point x="720" y="182"/>
      <point x="649" y="131"/>
      <point x="530" y="131" type="curve" smooth="yes"/>
      <point x="366" y="131"/>
      <point x="276" y="232"/>
      <point x="276" y="463" type="curve" smooth="yes"/>
      <point x="276" y="489" type="line"/>
      <point x="879" y="489" type="line"/>
      <point x="879" y="592" type="line" smooth="yes"/>
      <point x="879" y="922"/>
      <point x="771" y="1102"/>
      <point x="500" y="1102" type="curve" smooth="yes"/>
      <point x="296" y="1102"/>
      <point x="99" y="966"/>
      <point x="99" y="585" type="curve" smooth="yes"/>
      <point x="99" y="463" type="line" smooth="yes"/>
      <point x="99.0" y="145.42469799999998"/>
      <point x="247.205161169604" y="-7.375921705844036"/>
      <point x="488.85717010498047" y="-19.243637084960938" type="curve"/>
      <point x="429.79064532885997" y="-81.453104489038"/>
      <point x="405.99999999999994" y="-149.623063"/>
      <point x="406.0" y="-217.0" type="curve" smooth="yes"/>
      <point x="406" y="-342"/>
      <point x="481" y="-408"/>
      <point x="574" y="-408" type="curve" smooth="yes"/>
      <point x="644" y="-408"/>
      <point x="686" y="-384"/>
    </contour>
    <contour>
      <point x="500.0" y="949.9999999999999" type="curve"/>
      <point x="654" y="950"/>
      <point x="693" y="832"/>
      <point x="702" y="665" type="curve"/>
      <point x="702" y="640" type="line"/>
      <point x="277.20652770996094" y="640" type="line"/>
      <point x="288.419516249" y="884.6482320331249"/>
      <point x="376.78262" y="949.9999999999999"/>
    </contour>
  </outline>
</glyph>
<glyph name="hbar" format="1">
  <advance width="1019"/>
  <unicode hex="0127"/>
  <outline>
    <contour>
      <point x="445" y="1611" type="move" name="parent_top"/>
    </contour>
    <contour>
      <point x="517" y="10" type="move" name="bottom"/>
    </contour>
    <contour>
      <point x="999" y="1600" type="move" name="top_dd"/>
    </contour>
    <contour>
      <point x="999" y="-407" type="move" name="bottom_dd"/>
    </contour>
    <contour>
      <point x="999" y="1611" type="move" name="top0315"/>
    </contour>
    <contour>
      <point x="445" y="1611" type="move" name="top"/>
    </contour>
    <contour>
      <point x="543.0" y="946.0" type="curve" smooth="yes"/>
      <point x="656" y="946"/>
      <point x="712" y="880"/>
      <point x="712" y="711" type="curve" smooth="yes"/>
      <point x="712" y="0" type="line"/>
      <point x="889" y="0" type="line"/>
      <point x="889" y="709" type="line" smooth="yes"/>
      <point x="889" y="993"/>
      <point x="775" y="1102"/>
      <point x="598" y="1102" type="curve" smooth="yes"/>
      <point x="493.09465" y="1102.0"/>
      <point x="404.4931999387" y="1054.17522684648"/>
      <point x="340" y="973.0072479248047" type="curve"/>
      <point x="340" y="1233" type="line"/>
      <point x="558" y="1233" type="line"/>
      <point x="558" y="1385" type="line"/>
      <point x="340" y="1385" type="line"/>
      <point x="340" y="1536" type="line"/>
      <point x="163" y="1536" type="line"/>
      <point x="163" y="1385" type="line"/>
      <point x="16" y="1385" type="line"/>
      <point x="16" y="1233" type="line"/>
      <point x="163" y="1233" type="line"/>
      <point x="163" y="0" type="line"/>
      <point x="340" y="0" type="line"/>
      <point x="340" y="787.4374923706055" type="line"/>
      <point x="383.629639859784" y="882.0537806969561"/>
      <point x="456.88236" y="946.0000000000001"/>
    </contour>
  </outline>
</glyph>
<glyph name="kgreenlandic" format="1">
  <advance width="1006"/>
  <unicode hex="0138"/>
  <outline>
    <contour>
      <point x="521" y="1290" type="move" name="top"/>
    </contour>
    <contour>
      <point x="521" y="10" type="move" name="bottom"/>
    </contour>
    <contour>
      <point x="986" y="1290" type="move" name="top0315"/>
    </contour>
    <contour>
      <point x="721" y="0" type="line"/>
      <point x="944" y="0" type="line"/>
      <point x="539.6430892944336" y="560.708251953125" type="line"/>
      <point x="918" y="1082" type="line"/>
      <point x="705" y="1082" type="line"/>
      <point x="387" y="624" type="line"/>
      <point x="324" y="624" type="line"/>
      <point x="324" y="1082" type="line"/>
      <point x="147" y="1082" type="line"/>
      <point x="147" y="0" type="line"/>
      <point x="324" y="0" type="line"/>
      <point x="324" y="462" type="line"/>
      <point x="400.42857360839844" y="462" type="line"/>
    </contour>
  </outline>
</glyph>
<glyph name="oe" format="1">
  <advance width="1592"/>
  <unicode hex="0153"/>
  <outline>
    <contour>
      <point x="809" y="1290" type="move" name="top"/>
    </contour>
    <contour>
      <point x="809" y="-1" type="move" name="bottom"/>
    </contour>
    <contour>
      <point x="1572" y="1600" type="move" name="top_dd"/>
    </contour>
    <contour>
      <point x="1572" y="-407" type="move" name="bottom_dd"/>
    </contour>
    <contour>
      <point x="1572" y="1290" type="move" name="top0315"/>
    </contour>
    <contour>
      <point x="1491" y="113" type="curve"/>
      <point x="1422" y="239" type="line"/>
      <point x="1367" y="179"/>
      <point x="1287" y="131"/>
      <point x="1168" y="131" type="curve" smooth="yes"/>
      <point x="1009.674728" y="131.0"/>
      <point x="933.364866259552" y="293.16683392229595"/>
      <point x="928.2734832763672" y="498" type="curve"/>
      <point x="1515" y="498" type="line"/>
      <point x="1515" y="620" type="line" smooth="yes"/>
      <point x="1515" y="902"/>
      <point x="1400" y="1102"/>
      <point x="1140" y="1102" type="curve" smooth="yes"/>
      <point x="1022.241121" y="1103.160186"/>
      <point x="910.202876107033" y="1028.2695891653261"/>
      <point x="836.8750762939453" y="903.4759368896484" type="curve"/>
      <point x="767.721442460089" y="1026.102185793163"/>
      <point x="656.1342599999999" y="1102.0"/>
      <point x="508.9999999999999" y="1102.0" type="curve" smooth="yes"/>
      <point x="252" y="1102"/>
      <point x="103" y="865"/>
      <point x="103" y="552" type="curve"/>
      <point x="103" y="529" type="line"/>
      <point x="103" y="216"/>
      <point x="252" y="-21"/>
      <point x="511" y="-21" type="curve" smooth="yes"/>
      <point x="655.045012" y="-21.0"/>
      <point x="765.113141037036" y="52.876341855251994"/>
      <point x="834.2430038452148" y="172.6219940185547" type="curve"/>
      <point x="905.395226239705" y="51.903011639746"/>
      <point x="1019.7621790000001" y="-21.0"/>
      <point x="1168.0" y="-21.0" type="curve"/>
      <point x="1336" y="-21"/>
      <point x="1438" y="49"/>
    </contour>
    <contour>
      <point x="1140.0" y="950.0" type="curve"/>
      <point x="1282" y="950"/>
      <point x="1338" y="820"/>
      <point x="1338" y="675" type="curve"/>
      <point x="1338" y="649" type="line"/>
      <point x="932.847900390625" y="649" type="line"/>
      <point x="952.965332128264" y="821.806497233488"/>
      <point x="1033.812378" y="950.0"/>
    </contour>
    <contour>
      <point x="279" y="552" type="line"/>
      <point x="279" y="764"/>
      <point x="348" y="950"/>
      <point x="509" y="950" type="curve" smooth="yes"/>
      <point x="672" y="950"/>
      <point x="741" y="764"/>
      <point x="741" y="552" type="curve"/>
      <point x="741" y="529" type="line"/>
      <point x="741" y="314"/>
      <point x="672" y="131"/>
      <point x="511" y="131" type="curve" smooth="yes"/>
      <point x="348" y="131"/>
      <point x="279" y="314"/>
      <point x="279" y="529" type="curve"/>
    </contour>
  </outline>
</glyph>
<glyph name="Uogonek" format="1">
  <advance width="1150"/>
  <unicode hex="0172"/>
  <outline>
    <contour>
      <point x="576" y="1601" type="move" name="parent_top"/>
    </contour>
    <contour>
      <point x="577" y="0" type="move" name="bottom"/>
    </contour>
    <contour>
      <point x="1130" y="1600" type="move" name="top_dd"/>
    </contour>
    <contour>
      <point x="1130" y="-407" type="move" name="bottom_dd"/>
    </contour>
    <contour>
      <point x="1130" y="1601" type="move" name="top0315"/>
    </contour>
    <contour>
      <point x="576" y="1601" type="move" name="top"/>
    </contour>
    <contour>
      <point x="826" y="-346" type="curve"/>
      <point x="816" y="-224" type="line"/>
      <point x="799" y="-235"/>
      <point x="769" y="-251"/>
      <point x="733" y="-251" type="curve" smooth="yes"/>
      <point x="687" y="-251"/>
      <point x="670" y="-222"/>
      <point x="670" y="-178" type="curve" smooth="yes"/>
      <point x="670.0" y="-103.106398"/>
      <point x="721.87390850012" y="-40.069689371456"/>
      <point x="781.6042022705078" y="16.851402282714844" type="curve"/>
      <point x="923.344409836323" y="74.38706914344499"/>
      <point x="1026.0" y="203.29354399999997"/>
      <point x="1026.0" y="430.9999999999999" type="curve"/>
      <point x="1026" y="1456" type="line"/>
      <point x="842" y="1456" type="line"/>
      <point x="842" y="431" type="line" smooth="yes"/>
      <point x="842" y="203"/>
      <point x="738" y="137"/>
      <point x="577" y="137" type="curve" smooth="yes"/>
      <point x="417" y="137"/>
      <point x="313" y="203"/>
      <point x="313" y="431" type="curve" smooth="yes"/>
      <point x="313" y="1456" type="line"/>
      <point x="130" y="1456" type="line"/>
      <point x="130" y="431" type="line"/>
      <point x="130" y="103"/>
      <point x="325" y="-20"/>
      <point x="577" y="-20" type="curve" smooth="yes"/>
      <point x="579.432452" y="-20.0"/>
      <point x="581.862460612273" y="-19.986933187373"/>
      <point x="584.2899856567383" y="-19.95587158203125" type="curve"/>
      <point x="537.29941123424" y="-76.987014292192"/>
      <point x="518.0" y="-138.31516399999998"/>
      <point x="518.0" y="-199.0" type="curve" smooth="yes"/>
      <point x="518" y="-324"/>
      <point x="593" y="-390"/>
      <point x="686" y="-390" type="curve" smooth="yes"/>
      <point x="756" y="-390"/>
      <point x="798" y="-366"/>
    </contour>
  </outline>
</glyph>
<glyph name="uogonek" format="1">
  <advance width="990"/>
  <unicode hex="0173"/>
  <outline>
    <contour>
      <point x="495" y="1290" type="move" name="parent_top"/>
    </contour>
    <contour>
      <point x="970" y="1600" type="move" name="top_dd"/>
    </contour>
    <contour>
      <point x="970" y="-407" type="move" name="bottom_dd"/>
    </contour>
    <contour>
      <point x="970" y="1290" type="move" name="top0315"/>
    </contour>
    <contour>
      <point x="493" y="0" type="move" name="bottom"/>
    </contour>
    <contour>
      <point x="495" y="1290" type="move" name="top"/>
    </contour>
    <contour>
      <point x="862" y="-390" type="curve"/>
      <point x="852" y="-268" type="line"/>
      <point x="835" y="-279"/>
      <point x="805" y="-295"/>
      <point x="769" y="-295" type="curve" smooth="yes"/>
      <point x="723" y="-295"/>
      <point x="706" y="-266"/>
      <point x="706" y="-222" type="curve" smooth="yes"/>
      <point x="706" y="-135"/>
      <point x="776" y="-64"/>
      <point x="847" y="0" type="curve"/>
      <point x="857" y="0" type="line"/>
      <point x="857" y="1082" type="line"/>
      <point x="680" y="1082" type="line"/>
      <point x="680" y="281.9961471557617" type="line"/>
      <point x="643.315924049279" y="193.98222350875102"/>
      <point x="573.488588" y="137.0"/>
      <point x="458.0" y="136.99999999999997" type="curve" smooth="yes"/>
      <point x="384" y="137"/>
      <point x="306" y="187"/>
      <point x="306" y="382" type="curve"/>
      <point x="306" y="1082" type="line"/>
      <point x="130" y="1082" type="line"/>
      <point x="130" y="384" type="line"/>
      <point x="130" y="96"/>
      <point x="250" y="-20"/>
      <point x="428" y="-20" type="curve" smooth="yes"/>
      <point x="545.7908620000001" y="-20.0"/>
      <point x="629.280642501204" y="22.525317413712003"/>
      <point x="685.5668106079102" y="95.36647033691406" type="curve"/>
      <point x="688.9649810791016" y="0.97271728515625" type="line"/>
      <point x="591.4324448269399" y="-72.722853839102"/>
      <point x="553.9999999999999" y="-158.48530100000002"/>
      <point x="553.9999999999999" y="-243.0" type="curve" smooth="yes"/>
      <point x="554" y="-368"/>
      <point x="629" y="-434"/>
      <point x="722" y="-434" type="curve" smooth="yes"/>
      <point x="792" y="-434"/>
      <point x="834" y="-410"/>
    </contour>
  </outline>
</glyph>
<glyph name="Bhook" format="1">
  <advance width="1295"/>
  <unicode hex="0181"/>
  <outline>
    <contour>
      <point x="46" y="1173" type="curve" smooth="yes"/>
      <point x="46" y="1138"/>
      <point x="52" y="1089"/>
      <point x="60" y="1057" type="curve"/>
      <point x="201" y="1058" type="line"/>
      <point x="196" y="1078"/>
      <point x="195" y="1106"/>
      <point x="195" y="1125" type="curve" smooth="yes"/>
      <point x="195.0" y="1236.927291"/>
      <point x="231.300852330813" y="1296.856063796403"/>
      <point x="335" y="1297.969482421875" type="curve"/>
      <point x="335" y="0" type="line"/>
      <point x="768" y="0" type="line"/>
      <point x="1016" y="0"/>
      <point x="1177" y="148"/>
      <point x="1177" y="420" type="curve" smooth="yes"/>
      <point x="1177.0" y="585.594724"/>
      <point x="1102.518480896416" y="724.0347274934851"/>
      <point x="961.7563095092773" y="767.6560592651367" type="curve"/>
      <point x="1076.410937184949" y="824.955134249445"/>
      <point x="1149.0" y="934.00998"/>
      <point x="1149.0" y="1068.0" type="curve"/>
      <point x="1149" y="1339"/>
      <point x="1000" y="1456"/>
      <point x="750" y="1456" type="curve"/>
      <point x="335" y="1456" type="line"/>
      <point x="335" y="1455.9830932617188" type="line"/>
      <point x="149" y="1456"/>
      <point x="46" y="1363"/>
    </contour>
    <contour>
      <point x="518" y="1298" type="line"/>
      <point x="750" y="1298" type="line"/>
      <point x="896" y="1298"/>
      <point x="965" y="1230"/>
      <point x="965" y="1070" type="curve"/>
      <point x="965" y="923"/>
      <point x="876" y="836"/>
      <point x="752" y="836" type="curve"/>
      <point x="518" y="836" type="line"/>
    </contour>
    <contour>
      <point x="993" y="418" type="curve" smooth="yes"/>
      <point x="993" y="258"/>
      <point x="911" y="157"/>
      <point x="768" y="157" type="curve" smooth="yes"/>
      <point x="518" y="157" type="line"/>
      <point x="518" y="681" type="line"/>
      <point x="775" y="681" type="line" smooth="yes"/>
      <point x="930" y="681"/>
      <point x="993" y="580"/>
    </contour>
  </outline>
</glyph>
<glyph name="btopbar" format="1">
  <advance width="1010"/>
  <unicode hex="0183"/>
  <outline>
    <contour>
      <point x="133" y="0" type="line"/>
      <point x="295" y="0" type="line"/>
      <point x="302.7819061279297" y="108.94671630859375" type="line"/>
      <point x="362.59043382020604" y="25.864542210956998"/>
      <point x="447.127876" y="-19.999999999999986"/>
      <point x="561.0" y="-19.99999999999997" type="curve" smooth="yes"/>
      <point x="788" y="-20"/>
      <point x="917" y="213"/>
      <point x="917" y="529" type="curve" smooth="yes"/>
      <point x="917" y="550" type="line"/>
      <point x="917" y="880"/>
      <point x="790" y="1102"/>
      <point x="560" y="1102" type="curve" smooth="yes"/>
      <point x="451.187952" y="1102.0"/>
      <point x="369.161450278624" y="1060.121010977072"/>
      <point x="310" y="983.7018737792969" type="curve"/>
      <point x="310" y="1384" type="line"/>
      <point x="717" y="1384" type="line"/>
      <point x="717" y="1536" type="line"/>
      <point x="133" y="1536" type="line"/>
    </contour>
    <contour>
      <point x="514.0" y="946.0" type="curve" smooth="yes"/>
      <point x="685" y="946"/>
      <point x="740" y="765"/>
      <point x="740" y="550" type="curve" smooth="yes"/>
      <point x="740" y="529" type="line"/>
      <point x="740" y="314"/>
      <point x="677" y="137"/>
      <point x="515" y="137" type="curve" smooth="yes"/>
      <point x="412.334171" y="137.0"/>
      <point x="348.202356674271" y="205.28812727086"/>
      <point x="310" y="294.52811431884766" type="curve"/>
      <point x="310" y="786.1884078979492" type="line"/>
      <point x="348.772002494375" y="877.5909669125"/>
      <point x="414.039425" y="946.0"/>
    </contour>
  </outline>
</glyph>
<glyph name="tonesix" format="1">
  <advance width="1124"/>
  <unicode hex="0185"/>
  <outline>
    <contour>
      <point x="1029" y="529" type="curve" smooth="yes"/>
      <point x="1029" y="550" type="line"/>
      <point x="1029" y="880"/>
      <point x="903" y="1102"/>
      <point x="672" y="1102" type="curve" smooth="yes"/>
      <point x="563.403915" y="1102.0"/>
      <point x="481.28760546380397" y="1059.931324464763"/>
      <point x="422" y="983.1842880249023" type="curve"/>
      <point x="422" y="1536" type="line"/>
      <point x="246" y="1536" type="line"/>
      <point x="106" y="1329" type="line"/>
      <point x="106" y="1253" type="line"/>
      <point x="246" y="1047" type="line"/>
      <point x="246" y="0" type="line"/>
      <point x="407" y="0" type="line"/>
      <point x="414.7942886352539" y="109.1200180053711" type="line"/>
      <point x="474.73910627020797" y="25.929011647487997"/>
      <point x="559.565024" y="-20.000000000000014"/>
      <point x="674.0" y="-20.00000000000003" type="curve" smooth="yes"/>
      <point x="901" y="-20"/>
      <point x="1029" y="213"/>
    </contour>
    <contour>
      <point x="626.0000000000001" y="946.0000000000001" type="curve" smooth="yes"/>
      <point x="797" y="946"/>
      <point x="853" y="765"/>
      <point x="853" y="550" type="curve" smooth="yes"/>
      <point x="853" y="529" type="line"/>
      <point x="853" y="314"/>
      <point x="789" y="137"/>
      <point x="628" y="137" type="curve" smooth="yes"/>
      <point x="524.8314310000001" y="137.0"/>
      <point x="460.0826307584621" y="205.95855931006"/>
      <point x="422" y="295.8463134765625" type="curve"/>
      <point x="422" y="784.3148803710938" type="line"/>
      <point x="460.379495523968" y="876.65554314784"/>
      <point x="525.358316" y="946.0"/>
    </contour>
  </outline>
</glyph>
<glyph name="chook" format="1">
  <advance width="1103"/>
  <unicode hex="0188"/>
  <outline>
    <contour>
      <point x="998" y="1017" type="curve" smooth="yes"/>
      <point x="1009" y="1017"/>
      <point x="1027" y="1015"/>
      <point x="1041" y="1010" type="curve"/>
      <point x="1041" y="1137" type="line"/>
      <point x="1019" y="1146"/>
      <point x="982" y="1152"/>
      <point x="958" y="1152" type="curve" smooth="yes"/>
      <point x="860.912895" y="1152.0"/>
      <point x="798.98021575575" y="1098.263949201925"/>
      <point x="771.1342620849609" y="997.5333862304688" type="curve"/>
      <point x="707.95564726072" y="1065.361670535055"/>
      <point x="618.0849489999999" y="1102.0"/>
      <point x="507.99999999999994" y="1102.0" type="curve" smooth="yes"/>
      <point x="228" y="1102"/>
      <point x="97" y="916"/>
      <point x="97" y="602" type="curve" smooth="yes"/>
      <point x="97" y="480" type="line" smooth="yes"/>
      <point x="97" y="166"/>
      <point x="227" y="-20"/>
      <point x="508" y="-20" type="curve"/>
      <point x="703" y="-20"/>
      <point x="866" y="125"/>
      <point x="874" y="342" type="curve"/>
      <point x="707" y="342" type="line"/>
      <point x="699" y="192"/>
      <point x="613" y="131"/>
      <point x="508" y="131" type="curve" smooth="yes"/>
      <point x="320" y="131"/>
      <point x="274" y="268"/>
      <point x="274" y="480" type="curve" smooth="yes"/>
      <point x="274" y="602" type="line" smooth="yes"/>
      <point x="274" y="812"/>
      <point x="322" y="950"/>
      <point x="508" y="950" type="curve"/>
      <point x="628" y="950"/>
      <point x="699" y="870"/>
      <point x="707" y="710" type="curve"/>
      <point x="874" y="710" type="line"/>
      <point x="874" y="850" type="line" smooth="yes"/>
      <point x="874" y="972"/>
      <point x="924" y="1017"/>
    </contour>
  </outline>
</glyph>
<glyph name="dtopbar" format="1">
  <advance width="1016"/>
  <unicode hex="018C"/>
  <outline>
    <contour>
      <point x="294" y="1384" type="line"/>
      <point x="700" y="1384" type="line"/>
      <point x="700" y="992.5606231689453" type="line"/>
      <point x="641.3564278422" y="1063.3511639747"/>
      <point x="561.64562" y="1102.0"/>
      <point x="458.00000000000006" y="1102.0" type="curve" smooth="yes"/>
      <point x="241" y="1102"/>
      <point x="95" y="880"/>
      <point x="95" y="550" type="curve" smooth="yes"/>
      <point x="95" y="529" type="line"/>
      <point x="95" y="213"/>
      <point x="243" y="-20"/>
      <point x="456" y="-20" type="curve" smooth="yes"/>
      <point x="565.68218" y="-20.0"/>
      <point x="648.3647087468751" y="22.55145037492499"/>
      <point x="707.8623123168945" y="99.9276123046875" type="curve"/>
      <point x="715" y="0" type="line"/>
      <point x="876" y="0" type="line"/>
      <point x="876" y="1536" type="line"/>
      <point x="294" y="1536" type="line"/>
    </contour>
    <contour>
      <point x="272" y="529" type="curve" smooth="yes"/>
      <point x="272" y="550" type="line"/>
      <point x="272" y="765"/>
      <point x="340" y="946"/>
      <point x="504" y="946" type="curve" smooth="yes"/>
      <point x="598.086421" y="946.0"/>
      <point x="660.571561398943" y="885.39480432674"/>
      <point x="700" y="802.0459976196289" type="curve"/>
      <point x="700" y="281.5426788330078" type="line"/>
      <point x="661.209980134336" y="196.64726717305604"/>
      <point x="601.866848" y="137.00000000000003"/>
      <point x="501.9999999999999" y="137.00000000000003" type="curve" smooth="yes"/>
      <point x="340" y="137"/>
      <point x="272" y="314"/>
    </contour>
  </outline>
</glyph>
<glyph name="Epsilon1" format="1">
  <advance width="1054"/>
  <unicode hex="0190"/>
  <outline>
    <contour>
      <point x="532" y="1603" type="move" name="top"/>
    </contour>
    <contour>
      <point x="532" y="0" type="move" name="bottom"/>
    </contour>
    <contour>
      <point x="1034" y="1603" type="move" name="top0315"/>
    </contour>
    <contour>
      <point x="529" y="822" type="line" smooth="yes"/>
      <point x="357" y="822"/>
      <point x="290" y="922"/>
      <point x="290" y="1067" type="curve" smooth="yes"/>
      <point x="290" y="1208"/>
      <point x="365" y="1319"/>
      <point x="544" y="1319" type="curve" smooth="yes"/>
      <point x="678" y="1319"/>
      <point x="774" y="1219"/>
      <point x="774" y="1075" type="curve"/>
      <point x="958" y="1075" type="line"/>
      <point x="958" y="1323"/>
      <point x="770" y="1477"/>
      <point x="544" y="1477" type="curve" smooth="yes"/>
      <point x="280" y="1477"/>
      <point x="107" y="1334"/>
      <point x="107" y="1063" type="curve" smooth="yes"/>
      <point x="107.0" y="912.777374"/>
      <point x="182.737750534336" y="803.005592035384"/>
      <point x="303.44336700439453" y="745.2658386230469" type="curve"/>
      <point x="165.988508125165" y="689.078462499892"/>
      <point x="88.0" y="573.062743"/>
      <point x="87.99999999999997" y="406.0" type="curve" smooth="yes"/>
      <point x="88" y="101"/>
      <point x="285" y="-21"/>
      <point x="544" y="-21" type="curve" smooth="yes"/>
      <point x="755" y="-21"/>
      <point x="976" y="106"/>
      <point x="976" y="404" type="curve"/>
      <point x="792" y="404" type="line"/>
      <point x="792" y="254"/>
      <point x="697" y="136"/>
      <point x="544" y="136" type="curve" smooth="yes"/>
      <point x="379" y="136"/>
      <point x="272" y="223"/>
      <point x="272" y="402" type="curve" smooth="yes"/>
      <point x="272" y="583"/>
      <point x="359" y="663"/>
      <point x="529" y="663" type="curve" smooth="yes"/>
      <point x="665" y="663" type="line"/>
      <point x="665" y="822" type="line"/>
    </contour>
  </outline>
</glyph>
<glyph name="Ghook" format="1">
  <advance width="1264"/>
  <unicode hex="0193"/>
  <outline>
    <contour>
      <point x="1215" y="1352" type="curve" smooth="yes"/>
      <point x="1228" y="1352"/>
      <point x="1250" y="1349"/>
      <point x="1267" y="1343" type="curve"/>
      <point x="1266" y="1492" type="line"/>
      <point x="1240" y="1502"/>
      <point x="1196" y="1509"/>
      <point x="1168" y="1509" type="curve" smooth="yes"/>
      <point x="1059.596607" y="1509.0"/>
      <point x="987.007895281551" y="1453.237901295813"/>
      <point x="951.1495361328125" y="1348.118019104004" type="curve"/>
      <point x="874.2309677929001" y="1430.92263010985"/>
      <point x="760.9516100000001" y="1476.0"/>
      <point x="614.0000000000002" y="1476.0" type="curve" smooth="yes"/>
      <point x="289" y="1476"/>
      <point x="124" y="1274"/>
      <point x="124" y="865" type="curve" smooth="yes"/>
      <point x="124" y="592" type="line" smooth="yes"/>
      <point x="124" y="182"/>
      <point x="332" y="-20"/>
      <point x="633" y="-20" type="curve" smooth="yes"/>
      <point x="914" y="-20"/>
      <point x="1021" y="117"/>
      <point x="1069" y="182" type="curve"/>
      <point x="1069" y="725" type="line"/>
      <point x="619" y="725" type="line"/>
      <point x="619" y="569" type="line"/>
      <point x="886" y="569" type="line"/>
      <point x="886" y="233" type="line"/>
      <point x="854" y="205"/>
      <point x="803" y="137"/>
      <point x="634" y="137" type="curve" smooth="yes"/>
      <point x="435" y="137"/>
      <point x="308" y="282"/>
      <point x="308" y="592" type="curve" smooth="yes"/>
      <point x="308" y="867" type="line" smooth="yes"/>
      <point x="308" y="1169"/>
      <point x="391" y="1318"/>
      <point x="614" y="1318" type="curve" smooth="yes"/>
      <point x="789" y="1318"/>
      <point x="870" y="1210"/>
      <point x="885" y="1030" type="curve"/>
      <point x="1069" y="1030" type="line"/>
      <point x="1069" y="1161" type="line" smooth="yes"/>
      <point x="1069" y="1301"/>
      <point x="1127" y="1352"/>
    </contour>
  </outline>
</glyph>
<glyph name="Gamma1" format="1">
  <advance width="1130"/>
  <unicode hex="0194"/>
  <outline>
    <contour>
      <point x="800" y="-194" type="curve" smooth="yes"/>
      <point x="800.0" y="-102.407175"/>
      <point x="738.64928431715" y="4.988107069825006"/>
      <point x="648.2116470336914" y="241.11416625976562" type="curve"/>
      <point x="1094" y="1456" type="line"/>
      <point x="891" y="1456" type="line"/>
      <point x="563.0648345947266" y="491.6758117675781" type="line"/>
      <point x="240" y="1456" type="line"/>
      <point x="36" y="1456" type="line"/>
      <point x="479.2705993652344" y="247.97567749023438" type="line"/>
      <point x="385.906047335411" y="7.0596521135930175"/>
      <point x="330.0" y="-101.52443499999997"/>
      <point x="330.0" y="-193.99999999999994" type="curve" smooth="yes"/>
      <point x="330" y="-343"/>
      <point x="417" y="-429"/>
      <point x="565" y="-429" type="curve" smooth="yes"/>
      <point x="713" y="-429"/>
      <point x="800" y="-343"/>
    </contour>
    <contour>
      <point x="507" y="-194" type="curve" smooth="yes"/>
      <point x="507.0" y="-148.561937"/>
      <point x="526.06387413843" y="-84.69546233285101"/>
      <point x="565.2047729492188" y="19.377395629882812" type="curve"/>
      <point x="606.166123340166" y="-88.35926890242901"/>
      <point x="623.0" y="-147.330474"/>
      <point x="623.0" y="-194.0" type="curve" smooth="yes"/>
      <point x="623" y="-237"/>
      <point x="609" y="-272"/>
      <point x="565" y="-272" type="curve" smooth="yes"/>
      <point x="522" y="-272"/>
      <point x="507" y="-238"/>
    </contour>
  </outline>
</glyph>
<glyph name="hv" format="1">
  <advance width="1471"/>
  <unicode hex="0195"/>
  <outline>
    <contour>
      <point x="568" y="1102" type="curve" smooth="yes"/>
      <point x="463.09465" y="1102.0"/>
      <point x="374.4931999387" y="1054.17522684648"/>
      <point x="310" y="973.0072479248047" type="curve"/>
      <point x="310" y="1536" type="line"/>
      <point x="133" y="1536" type="line"/>
      <point x="133" y="0" type="line"/>
      <point x="310" y="0" type="line"/>
      <point x="310" y="787.4374923706055" type="line"/>
      <point x="353.629639859784" y="882.0537806969561"/>
      <point x="426.88236" y="946.0000000000001"/>
      <point x="513.0" y="946.0" type="curve" smooth="yes"/>
      <point x="647" y="946"/>
      <point x="682" y="849"/>
      <point x="682" y="705" type="curve" smooth="yes"/>
      <point x="682" y="445" type="line" smooth="yes"/>
      <point x="682" y="115"/>
      <point x="801" y="-20"/>
      <point x="1010" y="-20" type="curve" smooth="yes"/>
      <point x="1220" y="-20"/>
      <point x="1338" y="115"/>
      <point x="1338" y="445" type="curve" smooth="yes"/>
      <point x="1338" y="1082" type="line"/>
      <point x="1162" y="1082" type="line"/>
      <point x="1162" y="443" type="line" smooth="yes"/>
      <point x="1162" y="200"/>
      <point x="1084" y="137"/>
      <point x="1010" y="137" type="curve" smooth="yes"/>
      <point x="937" y="137"/>
      <point x="859" y="200"/>
      <point x="859" y="443" type="curve" smooth="yes"/>
      <point x="859" y="705" type="line" smooth="yes"/>
      <point x="859" y="930"/>
      <point x="792" y="1102"/>
    </contour>
  </outline>
</glyph>
<glyph name="Khook" format="1">
  <advance width="1117"/>
  <unicode hex="0198"/>
  <outline>
    <contour>
      <point x="890" y="0" type="line"/>
      <point x="1109" y="0" type="line"/>
      <point x="598.6061172485352" y="817.198371887207" type="line"/>
      <point x="848" y="1194" type="line" smooth="yes"/>
      <point x="892" y="1260"/>
      <point x="915" y="1301"/>
      <point x="956" y="1301" type="curve" smooth="yes"/>
      <point x="994" y="1301"/>
      <point x="1018" y="1285"/>
      <point x="1040" y="1265" type="curve"/>
      <point x="1102" y="1397" type="line"/>
      <point x="1057" y="1442"/>
      <point x="1002" y="1476"/>
      <point x="937" y="1476" type="curve" smooth="yes"/>
      <point x="839" y="1476"/>
      <point x="782" y="1396"/>
      <point x="701" y="1280" type="curve" smooth="yes"/>
      <point x="461" y="912" type="line"/>
      <point x="341" y="735.0697708129883" type="line"/>
      <point x="341" y="1456" type="line"/>
      <point x="157" y="1456" type="line"/>
      <point x="157" y="0" type="line"/>
      <point x="341" y="0" type="line"/>
      <point x="341" y="470.3139953613281" type="line"/>
      <point x="487.94530487060547" y="665.4052047729492" type="line"/>
    </contour>
  </outline>
</glyph>
<glyph name="lambdabar" format="1">
  <advance width="995"/>
  <unicode hex="019B"/>
  <outline>
    <contour>
      <point x="841" y="1611" type="move" name="top0315"/>
    </contour>
    <contour>
      <point x="929" y="-5" type="curve"/>
      <point x="925" y="147" type="line"/>
      <point x="916" y="145"/>
      <point x="905" y="145"/>
      <point x="895" y="145" type="curve" smooth="yes"/>
      <point x="861" y="145"/>
      <point x="841" y="168"/>
      <point x="821" y="234" type="curve" smooth="yes"/>
      <point x="499.1805114746094" y="1207.3504943847656" type="line"/>
      <point x="600" y="1253" type="line"/>
      <point x="600" y="1415" type="line"/>
      <point x="452.6775436401367" y="1348.294677734375" type="line"/>
      <point x="422" y="1450"/>
      <point x="366" y="1518"/>
      <point x="243" y="1518" type="curve"/>
      <point x="218" y="1518"/>
      <point x="174" y="1512"/>
      <point x="156" y="1506" type="curve"/>
      <point x="156" y="1364" type="line"/>
      <point x="166" y="1365"/>
      <point x="185" y="1366"/>
      <point x="195" y="1366" type="curve" smooth="yes"/>
      <point x="235.76583" y="1366.0"/>
      <point x="260.516070870175" y="1341.50556956615"/>
      <point x="282.96685791015625" y="1271.4523086547852" type="curve"/>
      <point x="187" y="1228" type="line"/>
      <point x="187" y="1066" type="line"/>
      <point x="331.9367980957031" y="1131.6251373291016" type="line"/>
      <point x="371.1202163696289" y="1020.2821655273438" type="line"/>
      <point x="48" y="0" type="line"/>
      <point x="244" y="0" type="line"/>
      <point x="459.5824661254883" y="756.4132614135742" type="line"/>
      <point x="649" y="186" type="line" smooth="yes"/>
      <point x="708" y="12"/>
      <point x="761" y="-17"/>
      <point x="861" y="-17" type="curve" smooth="yes"/>
      <point x="889" y="-17"/>
      <point x="916" y="-10"/>
    </contour>
  </outline>
</glyph>
<glyph name="mcapturn" format="1">
  <advance width="1599"/>
  <unicode hex="019C"/>
  <outline>
    <contour>
      <point x="1271" y="0" type="line"/>
      <point x="1438" y="0" type="line"/>
      <point x="1438" y="1456" type="line"/>
      <point x="1261" y="1456" type="line"/>
      <point x="1261" y="344.5390319824219" type="line"/>
      <point x="1233.5621635611428" y="221.35934363023995"/>
      <point x="1166.0704749999998" y="136.99999999999994"/>
      <point x="1038.9999999999998" y="136.99999999999994" type="curve" smooth="yes"/>
      <point x="966" y="137"/>
      <point x="888" y="200"/>
      <point x="888" y="443" type="curve"/>
      <point x="888" y="1456" type="line"/>
      <point x="711" y="1456" type="line"/>
      <point x="711" y="445" type="line"/>
      <point x="711.0" y="414.08625"/>
      <point x="711.936156675" y="385.005806821875"/>
      <point x="713.7657470703125" y="357.7777404785156" type="curve"/>
      <point x="688.268697173703" y="227.44141993103997"/>
      <point x="620.571475" y="136.99999999999997"/>
      <point x="489.00000000000006" y="136.99999999999994" type="curve" smooth="yes"/>
      <point x="416" y="137"/>
      <point x="338" y="200"/>
      <point x="338" y="443" type="curve" smooth="yes"/>
      <point x="338" y="1456" type="line"/>
      <point x="161" y="1456" type="line"/>
      <point x="161" y="445" type="line" smooth="yes"/>
      <point x="161" y="97"/>
      <point x="278" y="-20"/>
      <point x="459" y="-20" type="curve" smooth="yes"/>
      <point x="601.74975" y="-20.0"/>
      <point x="694.9414415838479" y="51.72876876022001"/>
      <point x="748.6281585693359" y="169.12588500976562" type="curve"/>
      <point x="797.348497099018" y="31.163922523915005"/>
      <point x="890.272042" y="-19.99999999999998"/>
      <point x="1009.0" y="-19.999999999999943" type="curve" smooth="yes"/>
      <point x="1126.362831" y="-20.0"/>
      <point x="1210.056335299606" y="28.09903814342001"/>
      <point x="1265.9075317382812" y="109.99732971191406" type="curve"/>
    </contour>
  </outline>
</glyph>
<glyph name="Ohorn" format="1">
  <advance width="1215"/>
  <unicode hex="01A0"/>
  <outline>
    <contour>
      <point x="606" y="1595" type="move" name="top"/>
    </contour>
    <contour>
      <point x="601" y="0" type="move" name="bottom"/>
    </contour>
    <contour>
      <point x="1195" y="1595" type="move" name="top0315"/>
    </contour>
    <contour>
      <point x="1091" y="682" type="curve"/>
      <point x="1091" y="774" type="line"/>
      <point x="1091.0" y="944.442864"/>
      <point x="1060.894149966128" y="1088.90606045808"/>
      <point x="1006.2386169433594" y="1201.649658203125" type="curve"/>
      <point x="1149.817125319228" y="1245.823105064128"/>
      <point x="1224.0" y="1382.148358"/>
      <point x="1224.0" y="1592.0" type="curve"/>
      <point x="1065" y="1592" type="line"/>
      <point x="1065.0" y="1437.329132"/>
      <point x="1025.729533340928" y="1340.745829266544"/>
      <point x="927.2082138061523" y="1323.7149810791016" type="curve"/>
      <point x="842.4021905026159" y="1422.3409262086138"/>
      <point x="728.1908389999999" y="1475.9999999999998"/>
      <point x="593.0" y="1476.0" type="curve" smooth="yes"/>
      <point x="302" y="1476"/>
      <point x="96" y="1210"/>
      <point x="96" y="774" type="curve"/>
      <point x="96" y="682" type="line"/>
      <point x="96" y="245"/>
      <point x="303" y="-20"/>
      <point x="595" y="-20" type="curve" smooth="yes"/>
      <point x="896" y="-20"/>
      <point x="1091" y="245"/>
    </contour>
    <contour>
      <point x="909" y="682" type="line"/>
      <point x="909" y="333"/>
      <point x="795" y="143"/>
      <point x="595" y="143" type="curve" smooth="yes"/>
      <point x="406" y="143"/>
      <point x="278" y="333"/>
      <point x="278" y="682" type="curve" smooth="yes"/>
      <point x="278" y="776" type="line" smooth="yes"/>
      <point x="278" y="1122"/>
      <point x="405" y="1312"/>
      <point x="593" y="1312" type="curve" smooth="yes"/>
      <point x="792" y="1312"/>
      <point x="909" y="1122"/>
      <point x="909" y="776" type="curve"/>
    </contour>
  </outline>
</glyph>
<glyph name="ohorn" format="1">
  <advance width="1031"/>
  <unicode hex="01A1"/>
  <outline>
    <contour>
      <point x="509" y="1290" type="move" name="top"/>
    </contour>
    <contour>
      <point x="509" y="-10" type="move" name="bottom"/>
    </contour>
    <contour>
      <point x="1011" y="1290" type="move" name="top0315"/>
    </contour>
    <contour>
      <point x="931" y="529" type="curve"/>
      <point x="931" y="552" type="line"/>
      <point x="931.0" y="667.6222"/>
      <point x="909.43989512" y="772.87371664"/>
      <point x="869.1424179077148" y="859.6302719116211" type="curve"/>
      <point x="997.905389785025" y="899.029471384125"/>
      <point x="1045.0" y="1021.8243"/>
      <point x="1045.0000000000002" y="1201.0" type="curve"/>
      <point x="904" y="1201" type="line"/>
      <point x="904.0" y="1073.379936"/>
      <point x="891.256585076736" y="983.1936533370881"/>
      <point x="803.2192840576172" y="965.2745132446289" type="curve"/>
      <point x="732.110939505738" y="1051.082779439803"/>
      <point x="633.51234" y="1102.0"/>
      <point x="513.0" y="1102.0" type="curve" smooth="yes"/>
      <point x="256" y="1102"/>
      <point x="98" y="865"/>
      <point x="98" y="552" type="curve"/>
      <point x="98" y="529" type="line"/>
      <point x="98" y="216"/>
      <point x="256" y="-20"/>
      <point x="515" y="-20" type="curve" smooth="yes"/>
      <point x="773" y="-20"/>
      <point x="931" y="216"/>
    </contour>
    <contour>
      <point x="274" y="552" type="line"/>
      <point x="274" y="764"/>
      <point x="351" y="950"/>
      <point x="513" y="950" type="curve" smooth="yes"/>
      <point x="676" y="950"/>
      <point x="754" y="764"/>
      <point x="754" y="552" type="curve"/>
      <point x="754" y="529" type="line"/>
      <point x="754" y="314"/>
      <point x="676" y="132"/>
      <point x="515" y="132" type="curve" smooth="yes"/>
      <point x="351" y="132"/>
      <point x="274" y="314"/>
      <point x="274" y="529" type="curve"/>
    </contour>
  </outline>
</glyph>
<glyph name="OI" format="1">
  <advance width="1520"/>
  <unicode hex="01A2"/>
  <outline>
    <contour>
      <point x="633" y="-20" type="curve" smooth="yes"/>
      <point x="915" y="-20"/>
      <point x="1018" y="114"/>
      <point x="1065" y="193" type="curve"/>
      <point x="1065" y="1216.6331634521484" type="line"/>
      <point x="1183" y="1270" type="line"/>
      <point x="1183" y="-416" type="line"/>
      <point x="1360" y="-416" type="line"/>
      <point x="1360" y="1456" type="line"/>
      <point x="1224" y="1456" type="line"/>
      <point x="999.6749572753906" y="1348.5109176635742" type="line"/>
      <point x="934.904011780756" y="1413.379500126376"/>
      <point x="825.7768920000001" y="1476.0"/>
      <point x="633.0000000000002" y="1475.9999999999998" type="curve" smooth="yes"/>
      <point x="333" y="1476"/>
      <point x="117" y="1219"/>
      <point x="117" y="784" type="curve" smooth="yes"/>
      <point x="117" y="672" type="line" smooth="yes"/>
      <point x="117" y="224"/>
      <point x="335" y="-20"/>
    </contour>
    <contour>
      <point x="633" y="1319" type="curve" smooth="yes"/>
      <point x="806" y="1319"/>
      <point x="857" y="1255"/>
      <point x="890" y="1211" type="curve"/>
      <point x="890" y="245" type="line"/>
      <point x="857" y="201"/>
      <point x="806" y="137"/>
      <point x="641" y="137" type="curve" smooth="yes"/>
      <point x="412" y="137"/>
      <point x="298" y="352"/>
      <point x="298" y="672" type="curve" smooth="yes"/>
      <point x="298" y="784" type="line" smooth="yes"/>
      <point x="298" y="1123"/>
      <point x="432" y="1319"/>
    </contour>
  </outline>
</glyph>
<glyph name="phook" format="1">
  <advance width="1010"/>
  <unicode hex="01A5"/>
  <outline>
    <contour>
      <point x="560.0" y="-19.999999999999986" type="curve" smooth="yes"/>
      <point x="787" y="-20"/>
      <point x="915" y="147"/>
      <point x="915" y="489" type="curve" smooth="yes"/>
      <point x="915" y="590" type="line"/>
      <point x="915" y="946"/>
      <point x="789" y="1102"/>
      <point x="558" y="1102" type="curve" smooth="yes"/>
      <point x="447.629625" y="1102.0"/>
      <point x="366.61544951944995" y="1056.7625777897001"/>
      <point x="310" y="974.4188537597656" type="curve"/>
      <point x="310" y="1074" type="line" smooth="yes"/>
      <point x="310" y="1195"/>
      <point x="359" y="1241"/>
      <point x="433" y="1241" type="curve" smooth="yes"/>
      <point x="445" y="1241"/>
      <point x="463" y="1238"/>
      <point x="477" y="1233" type="curve"/>
      <point x="476" y="1360" type="line"/>
      <point x="454" y="1369"/>
      <point x="417" y="1376"/>
      <point x="394" y="1376" type="curve" smooth="yes"/>
      <point x="257" y="1376"/>
      <point x="133" y="1268"/>
      <point x="133" y="1074" type="curve" smooth="yes"/>
      <point x="133" y="-416" type="line"/>
      <point x="310" y="-416" type="line"/>
      <point x="310" y="103.81383514404297" type="line"/>
      <point x="366.90725151576305" y="24.073823027261014"/>
      <point x="448.4782660000001" y="-19.99999999999998"/>
    </contour>
    <contour>
      <point x="503.0" y="946.0" type="curve" smooth="yes"/>
      <point x="667" y="946"/>
      <point x="738" y="831"/>
      <point x="738" y="590" type="curve" smooth="yes"/>
      <point x="738" y="489" type="line"/>
      <point x="738" y="248"/>
      <point x="667" y="131"/>
      <point x="505" y="131" type="curve" smooth="yes"/>
      <point x="407.901208" y="131.0"/>
      <point x="348.761195234752" y="182.484321260928"/>
      <point x="310" y="254.6269073486328" type="curve"/>
      <point x="310" y="819.2427597045898" type="line"/>
      <point x="349.54832850688" y="893.2640429588479"/>
      <point x="411.854176" y="945.9999999999999"/>
    </contour>
  </outline>
</glyph>
<glyph name="YR" format="1">
  <advance width="1228"/>
  <unicode hex="01A6"/>
  <outline>
    <contour>
      <point x="342" y="0" type="line"/>
      <point x="342" y="590" type="line"/>
      <point x="597.9813537597656" y="590" type="line"/>
      <point x="1018" y="-359" type="line"/>
      <point x="1215" y="-359" type="line"/>
      <point x="1215" y="-347" type="line"/>
      <point x="771.2873992919922" y="631.6921234130859" type="line"/>
      <point x="916.663405678433" y="698.748470133561"/>
      <point x="999.0" y="839.289317"/>
      <point x="999.0000000000001" y="1018.9999999999999" type="curve" smooth="yes"/>
      <point x="999" y="1303"/>
      <point x="848" y="1456"/>
      <point x="565" y="1456" type="curve" smooth="yes"/>
      <point x="342" y="1456" type="line"/>
      <point x="342" y="1558" type="line"/>
      <point x="158" y="1558" type="line"/>
      <point x="158" y="0" type="line"/>
    </contour>
    <contour>
      <point x="342" y="1298" type="line"/>
      <point x="565" y="1298" type="line" smooth="yes"/>
      <point x="746" y="1298"/>
      <point x="815" y="1187"/>
      <point x="815" y="1019" type="curve" smooth="yes"/>
      <point x="815" y="868"/>
      <point x="731" y="747"/>
      <point x="563" y="747" type="curve" smooth="yes"/>
      <point x="342" y="747" type="line"/>
    </contour>
  </outline>
</glyph>
<glyph name="Uhorn" format="1">
  <advance width="1246"/>
  <unicode hex="01AF"/>
  <outline>
    <contour>
      <point x="607" y="1612" type="move" name="top"/>
    </contour>
    <contour>
      <point x="608" y="-9" type="move" name="bottom"/>
    </contour>
    <contour>
      <point x="1226" y="1612" type="move" name="top0315"/>
    </contour>
    <contour>
      <point x="1026" y="471" type="curve"/>
      <point x="1026" y="1108.4022598266602" type="line"/>
      <point x="1259.104898302368" y="1124.106339586128"/>
      <point x="1350.0" y="1271.7931279999998"/>
      <point x="1349.9999999999998" y="1538.0" type="curve"/>
      <point x="1201" y="1538" type="line"/>
      <point x="1201.0" y="1361.36785"/>
      <point x="1162.038657895625" y="1261.0004547575002"/>
      <point x="1026" y="1244.4475860595703" type="curve"/>
      <point x="1026" y="1456" type="line"/>
      <point x="842" y="1456" type="line"/>
      <point x="842" y="471" type="line" smooth="yes"/>
      <point x="842" y="243"/>
      <point x="738" y="137"/>
      <point x="577" y="137" type="curve" smooth="yes"/>
      <point x="417" y="137"/>
      <point x="313" y="243"/>
      <point x="313" y="471" type="curve" smooth="yes"/>
      <point x="313" y="1456" type="line"/>
      <point x="130" y="1456" type="line"/>
      <point x="130" y="471" type="line"/>
      <point x="130" y="143"/>
      <point x="325" y="-20"/>
      <point x="577" y="-20" type="curve" smooth="yes"/>
      <point x="813" y="-20"/>
      <point x="1026" y="143"/>
    </contour>
  </outline>
</glyph>
<glyph name="uhorn" format="1">
  <advance width="1126"/>
  <unicode hex="01B0"/>
  <outline>
    <contour>
      <point x="507" y="1269" type="move" name="top"/>
    </contour>
    <contour>
      <point x="882" y="0" type="move" name="right"/>
    </contour>
    <contour>
      <point x="1106" y="1269" type="move" name="top0315"/>
    </contour>
    <contour>
      <point x="446" y="0" type="move" name="bottomu"/>
    </contour>
    <contour>
      <point x="493" y="0" type="move" name="bottom"/>
    </contour>
    <contour>
      <point x="689" y="0" type="line"/>
      <point x="857" y="0" type="line"/>
      <point x="857" y="838.1802749633789" type="line"/>
      <point x="1067.749532104251" y="843.1621362433631"/>
      <point x="1126.0" y="954.9925430000001"/>
      <point x="1126.0" y="1169.0" type="curve"/>
      <point x="992" y="1169" type="line"/>
      <point x="992.0" y="1022.245672"/>
      <point x="992.0" y="956.590047793527"/>
      <point x="857" y="952.2473449707031" type="curve"/>
      <point x="857" y="1082" type="line"/>
      <point x="680" y="1082" type="line"/>
      <point x="680" y="281.9961471557617" type="line"/>
      <point x="643.315924049279" y="193.98222350875102"/>
      <point x="573.488588" y="137.0"/>
      <point x="458.0" y="136.99999999999997" type="curve" smooth="yes"/>
      <point x="384" y="137"/>
      <point x="306" y="187"/>
      <point x="306" y="382" type="curve"/>
      <point x="306" y="1082" type="line"/>
      <point x="130" y="1082" type="line"/>
      <point x="130" y="384" type="line"/>
      <point x="130" y="96"/>
      <point x="250" y="-20"/>
      <point x="428" y="-20" type="curve" smooth="yes"/>
      <point x="545.7908620000001" y="-20.0"/>
      <point x="629.280642501204" y="22.525317413712003"/>
      <point x="685.5668106079102" y="95.36647033691406" type="curve"/>
    </contour>
  </outline>
</glyph>
<glyph name="Upsilon2" format="1">
  <advance width="1183"/>
  <unicode hex="01B1"/>
  <outline>
    <contour>
      <point x="879" y="729" type="curve" smooth="yes"/>
      <point x="879" y="613" type="line" smooth="yes"/>
      <point x="879" y="302"/>
      <point x="769" y="136"/>
      <point x="593" y="136" type="curve" smooth="yes"/>
      <point x="415" y="136"/>
      <point x="304" y="302"/>
      <point x="304" y="613" type="curve" smooth="yes"/>
      <point x="304" y="729" type="line"/>
      <point x="304" y="1069"/>
      <point x="390" y="1256"/>
      <point x="541" y="1292" type="curve"/>
      <point x="541" y="1456" type="line"/>
      <point x="127" y="1456" type="line"/>
      <point x="127" y="1298" type="line"/>
      <point x="308.93641662597656" y="1298" type="line"/>
      <point x="189.56666271299997" y="1163.3645574177"/>
      <point x="117.99999999999996" y="947.6557100000001"/>
      <point x="118.0" y="729.0" type="curve" smooth="yes"/>
      <point x="118" y="615" type="line" smooth="yes"/>
      <point x="118" y="237"/>
      <point x="311" y="-21"/>
      <point x="593" y="-21" type="curve" smooth="yes"/>
      <point x="874" y="-21"/>
      <point x="1066" y="237"/>
      <point x="1066" y="615" type="curve" smooth="yes"/>
      <point x="1066" y="729" type="line" smooth="yes"/>
      <point x="1066.0" y="947.692084"/>
      <point x="993.576613427948" y="1163.4537419537319"/>
      <point x="872.8367309570312" y="1298" type="curve"/>
      <point x="1058" y="1298" type="line"/>
      <point x="1058" y="1456" type="line"/>
      <point x="636" y="1456" type="line"/>
      <point x="636" y="1292" type="line"/>
      <point x="789" y="1257"/>
      <point x="879" y="1071"/>
    </contour>
  </outline>
</glyph>
<glyph name="Yhook" format="1">
  <advance width="1173"/>
  <unicode hex="01B3"/>
  <outline>
    <contour>
      <point x="842" y="1041" type="line" smooth="yes"/>
      <point x="928" y="1220"/>
      <point x="945" y="1301"/>
      <point x="1018" y="1301" type="curve" smooth="yes"/>
      <point x="1056" y="1301"/>
      <point x="1081" y="1285"/>
      <point x="1103" y="1265" type="curve"/>
      <point x="1164" y="1397" type="line"/>
      <point x="1118" y="1444"/>
      <point x="1056" y="1476"/>
      <point x="986" y="1476" type="curve" smooth="yes"/>
      <point x="847" y="1476"/>
      <point x="788" y="1347"/>
      <point x="687" y="1123" type="curve" smooth="yes"/>
      <point x="535.4785079956055" y="757.3281326293945" type="line"/>
      <point x="239" y="1456" type="line"/>
      <point x="30" y="1456" type="line"/>
      <point x="444" y="550.7327194213867" type="line"/>
      <point x="444" y="0" type="line"/>
      <point x="628" y="0" type="line"/>
      <point x="628" y="548.431037902832" type="line"/>
    </contour>
  </outline>
</glyph>
<glyph name="Zbar" format="1">
  <advance width="1071"/>
  <unicode hex="01B5"/>
  <outline>
    <contour>
      <point x="539" y="1601" type="move" name="top"/>
    </contour>
    <contour>
      <point x="530" y="10" type="move" name="bottom"/>
    </contour>
    <contour>
      <point x="1051" y="1601" type="move" name="top0315"/>
    </contour>
    <contour>
      <point x="98" y="1298" type="line"/>
      <point x="754.3185958862305" y="1298" type="line"/>
      <point x="475.38719177246094" y="812" type="line"/>
      <point x="114" y="812" type="line"/>
      <point x="114" y="661" type="line"/>
      <point x="388.7233200073242" y="661" type="line"/>
      <point x="92" y="144" type="line"/>
      <point x="92" y="0" type="line"/>
      <point x="985" y="0" type="line"/>
      <point x="985" y="157" type="line"/>
      <point x="294.95288848876953" y="157" type="line"/>
      <point x="583.7188415527344" y="661" type="line"/>
      <point x="930" y="661" type="line"/>
      <point x="930" y="812" type="line" name="hr00"/>
      <point x="670.2340393066406" y="812" type="line"/>
      <point x="959" y="1316" type="line"/>
      <point x="959" y="1456" type="line"/>
      <point x="98" y="1456" type="line"/>
    </contour>
  </outline>
</glyph>
<glyph name="zbar" format="1">
  <advance width="917"/>
  <unicode hex="01B6"/>
  <outline>
    <contour>
      <point x="454" y="1290" type="move" name="top"/>
    </contour>
    <contour>
      <point x="460" y="10" type="move" name="bottom"/>
    </contour>
    <contour>
      <point x="897" y="1290" type="move" name="top0315"/>
    </contour>
    <contour>
      <point x="108" y="929" type="line"/>
      <point x="600.4154357910156" y="929" type="line"/>
      <point x="408.62156677246094" y="622" type="line"/>
      <point x="143" y="622" type="line"/>
      <point x="143" y="470" type="line"/>
      <point x="313.66173553466797" y="470" type="line"/>
      <point x="105" y="136" type="line"/>
      <point x="105" y="0" type="line"/>
      <point x="828" y="0" type="line"/>
      <point x="828" y="152" type="line"/>
      <point x="308.09989166259766" y="152" type="line"/>
      <point x="507.0588836669922" y="470" type="line"/>
      <point x="764" y="470" type="line"/>
      <point x="764" y="622" type="line"/>
      <point x="602.1587829589844" y="622" type="line"/>
      <point x="808" y="951" type="line"/>
      <point x="808" y="1082" type="line"/>
      <point x="108" y="1082" type="line"/>
    </contour>
  </outline>
</glyph>
<glyph name="uni01B7" format="1">
  <advance width="1155"/>
  <unicode hex="01B7"/>
  <outline>
    <contour>
      <point x="120" y="1298" type="line"/>
      <point x="774.0635375976562" y="1298" type="line"/>
      <point x="348" y="732" type="line"/>
      <point x="348" y="589" type="line"/>
      <point x="535" y="589" type="line" smooth="yes"/>
      <point x="752" y="589"/>
      <point x="855" y="472"/>
      <point x="855" y="161" type="curve" smooth="yes"/>
      <point x="855" y="-124"/>
      <point x="770" y="-261"/>
      <point x="553" y="-261" type="curve" smooth="yes"/>
      <point x="347" y="-261"/>
      <point x="299" y="-144"/>
      <point x="271" y="64" type="curve"/>
      <point x="87" y="64" type="line"/>
      <point x="114" y="-209"/>
      <point x="251" y="-418"/>
      <point x="553" y="-418" type="curve" smooth="yes"/>
      <point x="843" y="-418"/>
      <point x="1039" y="-245"/>
      <point x="1039" y="161" type="curve" smooth="yes"/>
      <point x="1039.0" y="565.303625"/>
      <point x="846.575191328125" y="737.710685703125"/>
      <point x="541.126350402832" y="739.9730072021484" type="curve"/>
      <point x="975" y="1319" type="line"/>
      <point x="975" y="1456" type="line"/>
      <point x="120" y="1456" type="line"/>
    </contour>
  </outline>
</glyph>
<glyph name="uni01B9" format="1">
  <advance width="1010"/>
  <unicode hex="01B9"/>
  <outline>
    <contour>
      <point x="380" y="929" type="line"/>
      <point x="882" y="929" type="line"/>
      <point x="882" y="1082" type="line"/>
      <point x="152" y="1082" type="line"/>
      <point x="151" y="964" type="line"/>
      <point x="485.41542053222656" y="469.75367736816406" type="line"/>
      <point x="243.506254938841" y="449.682605309113"/>
      <point x="103.99999999999997" y="295.36395600000003"/>
      <point x="103.99999999999989" y="31.0" type="curve" smooth="yes"/>
      <point x="104" y="-240"/>
      <point x="280" y="-395"/>
      <point x="524" y="-395" type="curve" smooth="yes"/>
      <point x="718" y="-395"/>
      <point x="921" y="-268"/>
      <point x="921" y="29" type="curve"/>
      <point x="745" y="29" type="line"/>
      <point x="745" y="-120"/>
      <point x="657" y="-243"/>
      <point x="524" y="-243" type="curve" smooth="yes"/>
      <point x="370" y="-243"/>
      <point x="281" y="-130"/>
      <point x="281" y="27" type="curve" smooth="yes"/>
      <point x="281" y="239"/>
      <point x="372" y="326"/>
      <point x="544" y="326" type="curve" smooth="yes"/>
      <point x="674" y="326" type="line"/>
      <point x="674" y="477" type="line"/>
    </contour>
  </outline>
</glyph>
<glyph name="uni01BB" format="1">
  <advance width="1018"/>
  <unicode hex="01BB"/>
  <outline>
    <contour>
      <point x="931" y="152" type="line"/>
      <point x="329" y="152" type="line"/>
      <point x="652" y="575" type="line" smooth="yes"/>
      <point x="670.522625" y="599.005322"/>
      <point x="688.4963097809749" y="623.361965740176"/>
      <point x="705.6771850585938" y="648" type="curve"/>
      <point x="931" y="648" type="line"/>
      <point x="931" y="799" type="line" name="hr00"/>
      <point x="797.4950790405273" y="799" type="line"/>
      <point x="846.2315675750999" y="894.339502054506"/>
      <point x="876.9999999999999" y="991.592804"/>
      <point x="876.9999999999999" y="1087.0" type="curve" smooth="yes"/>
      <point x="877" y="1320"/>
      <point x="738" y="1476"/>
      <point x="504" y="1476" type="curve" smooth="yes"/>
      <point x="232" y="1476"/>
      <point x="95" y="1274"/>
      <point x="95" y="1028" type="curve"/>
      <point x="272" y="1028" type="line"/>
      <point x="272" y="1202"/>
      <point x="341" y="1324"/>
      <point x="504" y="1324" type="curve" smooth="yes"/>
      <point x="628" y="1324"/>
      <point x="700" y="1208"/>
      <point x="700" y="1065" type="curve" smooth="yes"/>
      <point x="700.0" y="980.933208"/>
      <point x="680.96699806856" y="909.3738172692321"/>
      <point x="612.0229873657227" y="799" type="curve"/>
      <point x="256" y="799" type="line"/>
      <point x="256" y="648" type="line"/>
      <point x="505.9171371459961" y="648" type="line"/>
      <point x="117" y="133" type="line"/>
      <point x="117" y="0" type="line"/>
      <point x="931" y="0" type="line"/>
    </contour>
  </outline>
</glyph>
<glyph name="wynn" format="1">
  <advance width="1010"/>
  <unicode hex="01BF"/>
  <outline>
    <contour>
      <point x="915.0000000000001" y="534.0" type="curve" smooth="yes"/>
      <point x="915" y="555" type="line" smooth="yes"/>
      <point x="915" y="883"/>
      <point x="789" y="1102"/>
      <point x="558" y="1102" type="curve" smooth="yes"/>
      <point x="447.580785" y="1102.0"/>
      <point x="362.771687750676" y="1058.506955199283"/>
      <point x="301.3940963745117" y="979.2957763671875" type="curve"/>
      <point x="293" y="1082" type="line"/>
      <point x="133" y="1082" type="line"/>
      <point x="133" y="-416" type="line"/>
      <point x="310" y="-416" type="line"/>
      <point x="310" y="-152.1056900024414" type="line"/>
      <point x="686.231225993472" y="-23.50952301715202"/>
      <point x="915.0" y="138.59131999999997"/>
    </contour>
    <contour>
      <point x="503.0" y="946.0" type="curve" smooth="yes"/>
      <point x="667" y="946"/>
      <point x="738" y="768"/>
      <point x="738" y="555" type="curve" smooth="yes"/>
      <point x="738" y="534" type="line" smooth="yes"/>
      <point x="738.0" y="231.632675"/>
      <point x="558.826680803553" y="82.47152148681698"/>
      <point x="310" y="-1.2572097778320312" type="curve"/>
      <point x="310" y="808.1108474731445" type="line"/>
      <point x="349.54832850688" y="888.32004698624"/>
      <point x="411.854176" y="946.0"/>
    </contour>
  </outline>
</glyph>
<glyph name="uni01C6" format="1">
  <advance width="1770"/>
  <unicode hex="01C6"/>
  <outline>
    <contour>
      <point x="724" y="0" type="line"/>
      <point x="876" y="0" type="line"/>
      <point x="876" y="1560" type="line"/>
      <point x="700" y="1560" type="line"/>
      <point x="700" y="992.5606231689453" type="line"/>
      <point x="641.3564278422" y="1063.3511639747"/>
      <point x="561.64562" y="1102.0"/>
      <point x="458.00000000000006" y="1102.0" type="curve" smooth="yes"/>
      <point x="241" y="1102"/>
      <point x="95" y="880"/>
      <point x="95" y="550" type="curve" smooth="yes"/>
      <point x="95" y="529" type="line"/>
      <point x="95" y="213"/>
      <point x="243" y="-20"/>
      <point x="456" y="-20" type="curve" smooth="yes"/>
      <point x="568.221776" y="-20.0"/>
      <point x="652.1791187179999" y="24.54474685243199"/>
      <point x="711.9580154418945" y="105.36737823486328" type="curve"/>
    </contour>
    <contour>
      <point x="1204" y="1515" type="line"/>
      <point x="1057" y="1515" type="line"/>
      <point x="1057" y="1494" type="line"/>
      <point x="1273" y="1252" type="line"/>
      <point x="1376" y="1252" type="line"/>
      <point x="1595" y="1497" type="line"/>
      <point x="1595" y="1515" type="line"/>
      <point x="1445" y="1515" type="line"/>
      <point x="1324" y="1365" type="line"/>
    </contour>
    <contour>
      <point x="969" y="929" type="line"/>
      <point x="1461.4154357910156" y="929" type="line"/>
      <point x="966" y="136" type="line"/>
      <point x="966" y="0" type="line"/>
      <point x="1689" y="0" type="line"/>
      <point x="1689" y="152" type="line"/>
      <point x="1168.2597274780273" y="152" type="line"/>
      <point x="1669" y="951" type="line"/>
      <point x="1669" y="1082" type="line"/>
      <point x="969" y="1082" type="line"/>
    </contour>
    <contour>
      <point x="272" y="529" type="curve" smooth="yes"/>
      <point x="272" y="550" type="line"/>
      <point x="272" y="765"/>
      <point x="340" y="946"/>
      <point x="504" y="946" type="curve" smooth="yes"/>
      <point x="598.086421" y="946.0"/>
      <point x="660.571561398943" y="885.39480432674"/>
      <point x="700" y="802.0459976196289" type="curve"/>
      <point x="700" y="281.5426788330078" type="line"/>
      <point x="661.209980134336" y="196.64726717305604"/>
      <point x="601.866848" y="137.00000000000003"/>
      <point x="501.9999999999999" y="137.00000000000003" type="curve" smooth="yes"/>
      <point x="340" y="137"/>
      <point x="272" y="314"/>
    </contour>
  </outline>
</glyph>
<glyph name="gbar" format="1">
  <advance width="1010"/>
  <unicode hex="01E5"/>
  <outline>
    <contour>
      <point x="498" y="1290" type="move" name="top"/>
    </contour>
    <contour>
      <point x="498" y="-484" type="move" name="bottom"/>
    </contour>
    <contour>
      <point x="497" y="-116" type="move" name="parenthesses.w3"/>
    </contour>
    <contour>
      <point x="498" y="-484" type="move" name="markbottom"/>
    </contour>
    <contour>
      <point x="990" y="1290" type="move" name="top0315"/>
    </contour>
    <contour>
      <point x="974" y="-169" type="line"/>
      <point x="974" y="-54" type="line" name="hr00"/>
      <point x="890.8847351074219" y="-54" type="line"/>
      <point x="890.9614585404" y="-49.770278896399965"/>
      <point x="891.0" y="-45.39970999999998"/>
      <point x="891.0" y="-40.99999999999999" type="curve" smooth="yes"/>
      <point x="891" y="1082" type="line"/>
      <point x="731" y="1082" type="line"/>
      <point x="723.7121276855469" y="979.9698257446289" type="line"/>
      <point x="664.272446573812" y="1058.753750496268"/>
      <point x="581.6369559999999" y="1102.0"/>
      <point x="472.00000000000006" y="1102.0" type="curve" smooth="yes"/>
      <point x="249" y="1102"/>
      <point x="110" y="880"/>
      <point x="110" y="550" type="curve" smooth="yes"/>
      <point x="110" y="529" type="line"/>
      <point x="110" y="213"/>
      <point x="251" y="-20"/>
      <point x="470" y="-20" type="curve" smooth="yes"/>
      <point x="574.677695" y="-20.0"/>
      <point x="654.950453120813" y="19.087581830893008"/>
      <point x="714" y="90.46890258789062" type="curve"/>
      <point x="714" y="-50" type="line" smooth="yes"/>
      <point x="713.975212097168" y="-54" type="line"/>
      <point x="45" y="-54" type="line"/>
      <point x="45" y="-169" type="line"/>
      <point x="699.2029571533203" y="-169" type="line"/>
      <point x="667.964404736274" y="-281.083891181819"/>
      <point x="589.398742" y="-340.0"/>
      <point x="483.9999999999999" y="-340.0" type="curve" smooth="yes"/>
      <point x="408" y="-340"/>
      <point x="321" y="-304"/>
      <point x="244" y="-193" type="curve"/>
      <point x="154" y="-304" type="line"/>
      <point x="238" y="-445"/>
      <point x="411" y="-491"/>
      <point x="498" y="-491" type="curve" smooth="yes"/>
      <point x="690.373282" y="-491.0"/>
      <point x="836.87623018134" y="-375.971316731668"/>
      <point x="878.8190002441406" y="-169" type="curve"/>
    </contour>
    <contour>
      <point x="287" y="529" type="curve" smooth="yes"/>
      <point x="287" y="550" type="line"/>
      <point x="287" y="765"/>
      <point x="354" y="946"/>
      <point x="518" y="946" type="curve" smooth="yes"/>
      <point x="612.314935" y="946.0"/>
      <point x="674.874898687175" y="885.1000550164999"/>
      <point x="714" y="801.4400787353516" type="curve"/>
      <point x="714" y="282.6983108520508" type="line"/>
      <point x="675.3065717216971" y="197.185390648939"/>
      <point x="615.6385110000001" y="137.0"/>
      <point x="516.0" y="136.99999999999997" type="curve" smooth="yes"/>
      <point x="354" y="137"/>
      <point x="287" y="314"/>
    </contour>
  </outline>
</glyph>
<glyph name="uni01EF" format="1">
  <advance width="1046"/>
  <unicode hex="01EF"/>
  <outline>
    <contour>
      <point x="370" y="1515" type="line"/>
      <point x="223" y="1515" type="line"/>
      <point x="223" y="1494" type="line"/>
      <point x="439" y="1252" type="line"/>
      <point x="542" y="1252" type="line"/>
      <point x="761" y="1497" type="line"/>
      <point x="761" y="1515" type="line"/>
      <point x="611" y="1515" type="line"/>
      <point x="490" y="1365" type="line"/>
    </contour>
    <contour>
      <point x="484" y="326" type="line" smooth="yes"/>
      <point x="656" y="326"/>
      <point x="747" y="239"/>
      <point x="747" y="27" type="curve" smooth="yes"/>
      <point x="747" y="-130"/>
      <point x="658" y="-243"/>
      <point x="503" y="-243" type="curve" smooth="yes"/>
      <point x="371" y="-243"/>
      <point x="283" y="-120"/>
      <point x="283" y="29" type="curve"/>
      <point x="106" y="29" type="line"/>
      <point x="106" y="-268"/>
      <point x="309" y="-395"/>
      <point x="503" y="-395" type="curve" smooth="yes"/>
      <point x="747" y="-395"/>
      <point x="923" y="-240"/>
      <point x="923" y="31" type="curve" smooth="yes"/>
      <point x="923.0" y="295.42104"/>
      <point x="784.300364224" y="449.7492441028"/>
      <point x="542.4142303466797" y="469.7685012817383" type="curve"/>
      <point x="876" y="964" type="line"/>
      <point x="875" y="1082" type="line"/>
      <point x="146" y="1082" type="line"/>
      <point x="146" y="929" type="line"/>
      <point x="648" y="929" type="line"/>
      <point x="354" y="477" type="line"/>
      <point x="354" y="326" type="line"/>
    </contour>
  </outline>
</glyph>
<glyph name="uni01F7" format="1">
  <advance width="1172"/>
  <unicode hex="01F7"/>
  <outline>
    <contour>
      <point x="1054.0" y="818.0" type="curve" smooth="yes"/>
      <point x="1054" y="871" type="line" smooth="yes"/>
      <point x="1054" y="1278"/>
      <point x="862" y="1476"/>
      <point x="552" y="1476" type="curve" smooth="yes"/>
      <point x="471.160056" y="1476.0"/>
      <point x="401.52569592648" y="1450.227156969096"/>
      <point x="341" y="1402.444320678711" type="curve"/>
      <point x="341" y="1456" type="line"/>
      <point x="157" y="1456" type="line"/>
      <point x="157" y="-418" type="line"/>
      <point x="341" y="-418" type="line"/>
      <point x="341" y="-149.6187515258789" type="line"/>
      <point x="746.166377731488" y="-40.72123803339203"/>
      <point x="1054.0" y="346.935664"/>
    </contour>
    <contour>
      <point x="552.0" y="1318.0" type="curve" smooth="yes"/>
      <point x="769" y="1318"/>
      <point x="871" y="1182"/>
      <point x="871" y="873" type="curve" smooth="yes"/>
      <point x="871" y="818" type="line" smooth="yes"/>
      <point x="871.0" y="495.0151"/>
      <point x="710.050306745356" y="131.15408742739203"/>
      <point x="341" y="12.468521118164062" type="curve"/>
      <point x="341" y="1202.385009765625" type="line"/>
      <point x="382.686156375" y="1276.303288"/>
      <point x="448.1235" y="1318.0"/>
    </contour>
  </outline>
</glyph>
<glyph name="uni021C" format="1">
  <advance width="1072"/>
  <unicode hex="021C"/>
  <outline>
    <contour>
      <point x="964" y="327" type="curve" smooth="yes"/>
      <point x="964.0" y="516.845112"/>
      <point x="909.228297986436" y="639.438893679548"/>
      <point x="810.6533126831055" y="708.6303100585938" type="curve"/>
      <point x="895.5885572837279" y="811.2402604304"/>
      <point x="945.0" y="928.917296"/>
      <point x="944.9999999999999" y="1060.9999999999998" type="curve" smooth="yes"/>
      <point x="945" y="1334"/>
      <point x="776" y="1476"/>
      <point x="508" y="1476" type="curve" smooth="yes"/>
      <point x="282" y="1476"/>
      <point x="94" y="1321"/>
      <point x="94" y="1073" type="curve"/>
      <point x="278" y="1073" type="line"/>
      <point x="278" y="1220"/>
      <point x="383" y="1319"/>
      <point x="508" y="1319" type="curve" smooth="yes"/>
      <point x="686" y="1319"/>
      <point x="761" y="1202"/>
      <point x="761" y="1065" type="curve" smooth="yes"/>
      <point x="761" y="753"/>
      <point x="551" y="615"/>
      <point x="169" y="474" type="curve"/>
      <point x="170" y="329" type="line"/>
      <point x="379.277648" y="394.883704"/>
      <point x="567.668674119831" y="487.05169620875205"/>
      <point x="706.2957992553711" y="604.1407623291016" type="curve"/>
      <point x="760.0323895986879" y="555.343572271187"/>
      <point x="779.9999999999999" y="471.18721999999997"/>
      <point x="780.0" y="329.0" type="curve" smooth="yes"/>
      <point x="780" y="-27"/>
      <point x="554" y="-179"/>
      <point x="170" y="-280" type="curve"/>
      <point x="170" y="-437" type="line"/>
      <point x="626" y="-321"/>
      <point x="964" y="-144"/>
    </contour>
  </outline>
</glyph>
<glyph name="uni021D" format="1">
  <advance width="905"/>
  <unicode hex="021D"/>
  <outline>
    <contour>
      <point x="793" y="192" type="curve" smooth="yes"/>
      <point x="793.0" y="326.807145"/>
      <point x="750.946854743353" y="442.924003219268"/>
      <point x="671.7488784790039" y="511.4403762817383" type="curve"/>
      <point x="736.3629964443041" y="590.66657977782"/>
      <point x="776.0000000000001" y="682.875196"/>
      <point x="776.0" y="787.0" type="curve" smooth="yes"/>
      <point x="776" y="991"/>
      <point x="647" y="1101"/>
      <point x="435" y="1101" type="curve" smooth="yes"/>
      <point x="243" y="1101"/>
      <point x="84" y="978"/>
      <point x="84" y="781" type="curve"/>
      <point x="260" y="781" type="line"/>
      <point x="260" y="876"/>
      <point x="336" y="951"/>
      <point x="435" y="951" type="curve" smooth="yes"/>
      <point x="554" y="951"/>
      <point x="599" y="871"/>
      <point x="599" y="786" type="curve" smooth="yes"/>
      <point x="599" y="531"/>
      <point x="355" y="421"/>
      <point x="157" y="354" type="curve"/>
      <point x="158" y="214" type="line"/>
      <point x="302.37925399999995" y="252.24616"/>
      <point x="449.95831465100594" y="317.690676533551"/>
      <point x="564.6787109375" y="407.71671295166016" type="curve"/>
      <point x="598.937477466592" y="358.317964783268"/>
      <point x="615.0" y="281.686336"/>
      <point x="615.0000000000001" y="191.0" type="curve" smooth="yes"/>
      <point x="615" y="-94"/>
      <point x="429" y="-210"/>
      <point x="157" y="-288" type="curve"/>
      <point x="157" y="-437" type="line"/>
      <point x="568" y="-367"/>
      <point x="793" y="-180"/>
    </contour>
  </outline>
</glyph>
<glyph name="uni0220" format="1">
  <advance width="1183"/>
  <unicode hex="0220"/>
  <outline>
    <contour>
      <point x="1052" y="993" type="line" smooth="yes"/>
      <point x="1052" y="1315"/>
      <point x="838" y="1476"/>
      <point x="604" y="1476" type="curve" smooth="yes"/>
      <point x="500.399242" y="1476.0"/>
      <point x="406.78030282774" y="1441.396361397168"/>
      <point x="334" y="1395.5251007080078" type="curve"/>
      <point x="334" y="1456" type="line"/>
      <point x="157" y="1456" type="line"/>
      <point x="157" y="0" type="line"/>
      <point x="334" y="0" type="line"/>
      <point x="334" y="1243.853126525879" type="line"/>
      <point x="405.084021230248" y="1291.356822359508"/>
      <point x="490.55348200000003" y="1320.0"/>
      <point x="604.0" y="1319.9999999999998" type="curve" smooth="yes"/>
      <point x="769" y="1320"/>
      <point x="875" y="1218"/>
      <point x="875" y="993" type="curve" smooth="yes"/>
      <point x="875" y="-418" type="line"/>
      <point x="1052" y="-418" type="line"/>
    </contour>
  </outline>
</glyph>
<glyph name="uni0221" format="1">
  <advance width="1272"/>
  <unicode hex="0221"/>
  <outline>
    <contour>
      <point x="700" y="1536" type="line"/>
      <point x="700" y="992.5606231689453" type="line"/>
      <point x="641.3564278422" y="1063.3511639747"/>
      <point x="561.64562" y="1102.0"/>
      <point x="458.00000000000006" y="1102.0" type="curve" smooth="yes"/>
      <point x="241" y="1102"/>
      <point x="95" y="880"/>
      <point x="95" y="550" type="curve" smooth="yes"/>
      <point x="95" y="529" type="line"/>
      <point x="95" y="213"/>
      <point x="243" y="-20"/>
      <point x="456" y="-20" type="curve" smooth="yes"/>
      <point x="560.931264" y="-20.0"/>
      <point x="641.151215328" y="18.945028771072003"/>
      <point x="700" y="90.07644653320312" type="curve"/>
      <point x="700" y="-54.166664123535156" type="line"/>
      <point x="503" y="-284" type="line"/>
      <point x="605" y="-395" type="line"/>
      <point x="717.2506484985352" y="-254.68668365478516" type="line"/>
      <point x="747.933694596896" y="-359.046118322564"/>
      <point x="822.8617879999999" y="-437.0"/>
      <point x="968.0" y="-437.0" type="curve" smooth="yes"/>
      <point x="1121" y="-437"/>
      <point x="1227" y="-326"/>
      <point x="1227" y="-174" type="curve" smooth="yes"/>
      <point x="1227" y="-4"/>
      <point x="1120" y="89"/>
      <point x="981" y="89" type="curve" smooth="yes"/>
      <point x="944.711776" y="89.0"/>
      <point x="909.931797232384" y="81.595887041024"/>
      <point x="876" y="68.15321350097656" type="curve"/>
      <point x="876" y="1536" type="line"/>
    </contour>
    <contour>
      <point x="272" y="529" type="curve" smooth="yes"/>
      <point x="272" y="550" type="line"/>
      <point x="272" y="765"/>
      <point x="340" y="946"/>
      <point x="504" y="946" type="curve" smooth="yes"/>
      <point x="598.086421" y="946.0"/>
      <point x="660.571561398943" y="885.39480432674"/>
      <point x="700" y="802.0459976196289" type="curve"/>
      <point x="700" y="281.5426788330078" type="line"/>
      <point x="661.209980134336" y="196.64726717305604"/>
      <point x="601.866848" y="137.00000000000003"/>
      <point x="501.9999999999999" y="137.00000000000003" type="curve" smooth="yes"/>
      <point x="340" y="137"/>
      <point x="272" y="314"/>
    </contour>
    <contour>
      <point x="876" y="-164" type="curve" smooth="yes"/>
      <point x="876" y="-92.77830505371094" type="line"/>
      <point x="904.874846737136" y="-73.470851349024"/>
      <point x="932.516748" y="-63.0"/>
      <point x="959.9999999999999" y="-63.00000000000001" type="curve" smooth="yes"/>
      <point x="1016" y="-63"/>
      <point x="1050" y="-111"/>
      <point x="1050" y="-174" type="curve" smooth="yes"/>
      <point x="1050" y="-237"/>
      <point x="1018" y="-285"/>
      <point x="970" y="-285" type="curve" smooth="yes"/>
      <point x="908" y="-285"/>
      <point x="876" y="-233"/>
    </contour>
  </outline>
</glyph>
<glyph name="uni0222" format="1">
  <advance width="1181"/>
  <unicode hex="0222"/>
  <outline>
    <contour>
      <point x="1064" y="433" type="curve" smooth="yes"/>
      <point x="1064.0" y="604.816958"/>
      <point x="994.193984642292" y="728.147964446124"/>
      <point x="883.4174346923828" y="800.7661590576172" type="curve"/>
      <point x="991.312040632736" y="856.046142463932"/>
      <point x="1064.0" y="955.7316440000001"/>
      <point x="1064.0" y="1117.0" type="curve" smooth="yes"/>
      <point x="1064" y="1356"/>
      <point x="915" y="1466"/>
      <point x="729" y="1476" type="curve"/>
      <point x="729" y="1327" type="line"/>
      <point x="831" y="1299"/>
      <point x="882" y="1245"/>
      <point x="882" y="1117" type="curve" smooth="yes"/>
      <point x="882" y="938"/>
      <point x="755" y="892"/>
      <point x="608" y="892" type="curve" smooth="yes"/>
      <point x="573" y="892" type="line"/>
      <point x="426" y="892"/>
      <point x="299" y="938"/>
      <point x="299" y="1117" type="curve" smooth="yes"/>
      <point x="299" y="1245"/>
      <point x="350" y="1299"/>
      <point x="452" y="1327" type="curve"/>
      <point x="452" y="1476" type="line"/>
      <point x="266" y="1466"/>
      <point x="117" y="1356"/>
      <point x="117" y="1117" type="curve" smooth="yes"/>
      <point x="117.0" y="955.84757"/>
      <point x="189.5834950326" y="856.189489958175"/>
      <point x="297.35009765625" y="800.8870391845703" type="curve"/>
      <point x="186.62807795767196" y="728.101375901252"/>
      <point x="116.99999999999997" y="604.19627"/>
      <point x="117.00000000000003" y="431.0" type="curve" smooth="yes"/>
      <point x="117" y="128"/>
      <point x="319" y="-21"/>
      <point x="582" y="-21" type="curve" smooth="yes"/>
      <point x="598" y="-21" type="line" smooth="yes"/>
      <point x="861" y="-21"/>
      <point x="1064" y="128"/>
    </contour>
    <contour>
      <point x="598" y="729" type="line"/>
      <point x="771" y="729"/>
      <point x="882" y="636"/>
      <point x="882" y="433" type="curve" smooth="yes"/>
      <point x="882" y="229"/>
      <point x="771" y="143"/>
      <point x="598" y="143" type="curve" smooth="yes"/>
      <point x="582" y="143" type="line" smooth="yes"/>
      <point x="407" y="143"/>
      <point x="299" y="229"/>
      <point x="299" y="431" type="curve" smooth="yes"/>
      <point x="299" y="636"/>
      <point x="407" y="729"/>
      <point x="582" y="729" type="curve" smooth="yes"/>
    </contour>
  </outline>
</glyph>
<glyph name="uni0223" format="1">
  <advance width="1145"/>
  <unicode hex="0223"/>
  <outline>
    <contour>
      <point x="1044" y="433" type="curve" smooth="yes"/>
      <point x="1044.0" y="607.635856"/>
      <point x="972.105248142576" y="731.122709434768"/>
      <point x="858.050422668457" y="802.1685562133789" type="curve"/>
      <point x="969.0202126831941" y="862.135104044439"/>
      <point x="1044.0" y="971.606946"/>
      <point x="1044.0" y="1148.0" type="curve" smooth="yes"/>
      <point x="1044" y="1402"/>
      <point x="896" y="1547"/>
      <point x="711" y="1557" type="curve"/>
      <point x="711" y="1416" type="line"/>
      <point x="812" y="1369"/>
      <point x="867" y="1294"/>
      <point x="867" y="1148" type="curve" smooth="yes"/>
      <point x="867" y="939"/>
      <point x="737" y="884"/>
      <point x="590" y="884" type="curve"/>
      <point x="555" y="884" type="line" smooth="yes"/>
      <point x="408" y="884"/>
      <point x="278" y="939"/>
      <point x="278" y="1148" type="curve" smooth="yes"/>
      <point x="278" y="1295"/>
      <point x="332" y="1369"/>
      <point x="432" y="1416" type="curve"/>
      <point x="432" y="1557" type="line"/>
      <point x="249" y="1547"/>
      <point x="101" y="1401"/>
      <point x="101" y="1148" type="curve" smooth="yes"/>
      <point x="101.0" y="971.733596"/>
      <point x="175.87215517685598" y="862.292339844764"/>
      <point x="286.7101135253906" y="802.2956771850586" type="curve"/>
      <point x="172.70725816819998" y="731.094289828055"/>
      <point x="100.99999999999999" y="607.0410260000001"/>
      <point x="100.99999999999996" y="431.0" type="curve" smooth="yes"/>
      <point x="101" y="128"/>
      <point x="301" y="-21"/>
      <point x="564" y="-21" type="curve" smooth="yes"/>
      <point x="580" y="-21" type="line" smooth="yes"/>
      <point x="843" y="-21"/>
      <point x="1044" y="128"/>
    </contour>
    <contour>
      <point x="580" y="733" type="line"/>
      <point x="753" y="733"/>
      <point x="867" y="635"/>
      <point x="867" y="433" type="curve" smooth="yes"/>
      <point x="867" y="229"/>
      <point x="753" y="131"/>
      <point x="580" y="131" type="curve" smooth="yes"/>
      <point x="564" y="131" type="line" smooth="yes"/>
      <point x="389" y="131"/>
      <point x="278" y="229"/>
      <point x="278" y="431" type="curve" smooth="yes"/>
      <point x="278" y="635"/>
      <point x="389" y="733"/>
      <point x="564" y="733" type="curve" smooth="yes"/>
    </contour>
  </outline>
</glyph>
<glyph name="uni0234" format="1">
  <advance width="806"/>
  <unicode hex="0234"/>
  <outline>
    <contour>
      <point x="234" y="1536" type="line"/>
      <point x="234" y="-54.166664123535156" type="line"/>
      <point x="37" y="-284" type="line"/>
      <point x="139" y="-395" type="line"/>
      <point x="251.25064849853516" y="-254.68668365478516" type="line"/>
      <point x="281.933694596896" y="-359.046118322564"/>
      <point x="356.861788" y="-437.0"/>
      <point x="502.0" y="-437.0" type="curve" smooth="yes"/>
      <point x="655" y="-437"/>
      <point x="761" y="-326"/>
      <point x="761" y="-174" type="curve" smooth="yes"/>
      <point x="761" y="-4"/>
      <point x="654" y="89"/>
      <point x="515" y="89" type="curve" smooth="yes"/>
      <point x="478.711776" y="89.0"/>
      <point x="443.931797232384" y="81.595887041024"/>
      <point x="410" y="68.15321350097656" type="curve"/>
      <point x="410" y="1536" type="line"/>
    </contour>
    <contour>
      <point x="410" y="-164" type="curve" smooth="yes"/>
      <point x="410" y="-92.77830505371094" type="line"/>
      <point x="438.874846737136" y="-73.470851349024"/>
      <point x="466.516748" y="-63.0"/>
      <point x="494.0" y="-63.00000000000001" type="curve" smooth="yes"/>
      <point x="550" y="-63"/>
      <point x="584" y="-111"/>
      <point x="584" y="-174" type="curve" smooth="yes"/>
      <point x="584" y="-237"/>
      <point x="552" y="-285"/>
      <point x="504" y="-285" type="curve" smooth="yes"/>
      <point x="442" y="-285"/>
      <point x="410" y="-233"/>
    </contour>
  </outline>
</glyph>
<glyph name="uni0235" format="1">
  <advance width="1255"/>
  <unicode hex="0235"/>
  <outline>
    <contour>
      <point x="568" y="1102" type="curve" smooth="yes"/>
      <point x="460.354825" y="1102.0"/>
      <point x="369.876292519675" y="1051.64451527562"/>
      <point x="304.9962387084961" y="966.5868835449219" type="curve"/>
      <point x="300" y="1082" type="line"/>
      <point x="133" y="1082" type="line"/>
      <point x="133" y="0" type="line"/>
      <point x="310" y="0" type="line"/>
      <point x="310" y="787.4374923706055" type="line"/>
      <point x="353.629639859784" y="882.0537806969561"/>
      <point x="426.88236" y="946.0000000000001"/>
      <point x="513.0" y="946.0" type="curve" smooth="yes"/>
      <point x="626" y="946"/>
      <point x="682" y="880"/>
      <point x="682" y="711" type="curve" smooth="yes"/>
      <point x="682" y="-55.333335876464844" type="line"/>
      <point x="486" y="-284" type="line"/>
      <point x="588" y="-395" type="line"/>
      <point x="699.6627044677734" y="-255.42161560058594" type="line"/>
      <point x="730.772103632735" y="-359.411748707089"/>
      <point x="806.2025620000001" y="-436.99999999999994"/>
      <point x="951.0" y="-436.99999999999994" type="curve" smooth="yes"/>
      <point x="1103" y="-437"/>
      <point x="1210" y="-326"/>
      <point x="1210" y="-174" type="curve" smooth="yes"/>
      <point x="1210" y="-4"/>
      <point x="1103" y="89"/>
      <point x="964" y="89" type="curve" smooth="yes"/>
      <point x="927.803798" y="89.0"/>
      <point x="892.9717828380101" y="81.633391074746"/>
      <point x="859" y="68.2540054321289" type="curve"/>
      <point x="859" y="709" type="line" smooth="yes"/>
      <point x="859" y="993"/>
      <point x="745" y="1102"/>
    </contour>
    <contour>
      <point x="859" y="-164" type="curve" smooth="yes"/>
      <point x="859" y="-92.77830505371094" type="line"/>
      <point x="887.874846737136" y="-73.470851349024"/>
      <point x="915.516748" y="-63.0"/>
      <point x="942.9999999999999" y="-63.00000000000001" type="curve" smooth="yes"/>
      <point x="999" y="-63"/>
      <point x="1033" y="-111"/>
      <point x="1033" y="-174" type="curve" smooth="yes"/>
      <point x="1033" y="-237"/>
      <point x="1000" y="-285"/>
      <point x="952" y="-285" type="curve" smooth="yes"/>
      <point x="891" y="-285"/>
      <point x="859" y="-233"/>
    </contour>
  </outline>
</glyph>
<glyph name="uni0236" format="1">
  <advance width="802"/>
  <unicode hex="0236"/>
  <outline>
    <contour>
      <point x="757" y="243" type="curve" smooth="yes"/>
      <point x="757" y="413"/>
      <point x="650" y="506"/>
      <point x="512" y="506" type="curve" smooth="yes"/>
      <point x="477.916576" y="506.0"/>
      <point x="442.32340746937604" y="498.314027844096"/>
      <point x="407" y="484.61539459228516" type="curve"/>
      <point x="407" y="940" type="line"/>
      <point x="569" y="940" type="line"/>
      <point x="569" y="1082" type="line"/>
      <point x="407" y="1082" type="line"/>
      <point x="407" y="1345" type="line"/>
      <point x="230" y="1345" type="line"/>
      <point x="230" y="1082" type="line"/>
      <point x="65" y="1082" type="line"/>
      <point x="65" y="940" type="line"/>
      <point x="230" y="940" type="line"/>
      <point x="230" y="361.71219635009766" type="line"/>
      <point x="33" y="133" type="line"/>
      <point x="136" y="22" type="line"/>
      <point x="247.64517974853516" y="161.5564727783203" type="line"/>
      <point x="278.700308068694" y="57.579592360991"/>
      <point x="353.92742100000004" y="-20.0"/>
      <point x="498.00000000000006" y="-20.000000000000014" type="curve" smooth="yes"/>
      <point x="651" y="-20"/>
      <point x="757" y="91"/>
    </contour>
    <contour>
      <point x="407" y="253" type="curve" smooth="yes"/>
      <point x="407" y="324.3189468383789" type="line"/>
      <point x="435.850922" y="343.619179149535"/>
      <point x="463.42546100000004" y="354.0"/>
      <point x="491.0" y="354.0" type="curve" smooth="yes"/>
      <point x="546" y="354"/>
      <point x="580" y="306"/>
      <point x="580" y="243" type="curve" smooth="yes"/>
      <point x="580" y="180"/>
      <point x="548" y="132"/>
      <point x="500" y="132" type="curve" smooth="yes"/>
      <point x="438" y="132"/>
      <point x="407" y="184"/>
    </contour>
  </outline>
</glyph>
<glyph name="uni0239" format="1">
  <advance width="1577"/>
  <unicode hex="0239"/>
  <outline>
    <contour>
      <point x="1126.9999999999998" y="-19.999999999999943" type="curve" smooth="yes"/>
      <point x="1354" y="-20"/>
      <point x="1482" y="213"/>
      <point x="1482" y="529" type="curve" smooth="yes"/>
      <point x="1482" y="550" type="line"/>
      <point x="1482" y="880"/>
      <point x="1356" y="1102"/>
      <point x="1124" y="1102" type="curve" smooth="yes"/>
      <point x="1013.665385" y="1102.0"/>
      <point x="929.122098026477" y="1058.573575887043"/>
      <point x="867.8860855102539" y="979.4808654785156" type="curve"/>
      <point x="860" y="1082" type="line"/>
      <point x="714" y="1082" type="line"/>
      <point x="707.4334716796875" y="990.9441299438477" type="line"/>
      <point x="647.563544704083" y="1062.760988912003"/>
      <point x="566.433966" y="1102.0"/>
      <point x="462.0000000000001" y="1102.0" type="curve" smooth="yes"/>
      <point x="231" y="1102"/>
      <point x="95" y="880"/>
      <point x="95" y="550" type="curve" smooth="yes"/>
      <point x="95" y="529" type="line"/>
      <point x="95" y="213"/>
      <point x="233" y="-20"/>
      <point x="460" y="-20" type="curve" smooth="yes"/>
      <point x="560.66319" y="-20.0"/>
      <point x="639.674896380712" y="16.146968415252005"/>
      <point x="699" y="82.3988037109375" type="curve"/>
      <point x="699" y="-416" type="line"/>
      <point x="876" y="-416" type="line"/>
      <point x="876" y="89.13214111328125" type="line"/>
      <point x="937.099420018272" y="18.70585324976001"/>
      <point x="1020.030524" y="-19.999999999999964"/>
    </contour>
    <contour>
      <point x="272" y="529" type="curve" smooth="yes"/>
      <point x="272" y="550" type="line"/>
      <point x="272" y="765"/>
      <point x="344" y="950"/>
      <point x="508" y="950" type="curve" smooth="yes"/>
      <point x="595.710766" y="950.0"/>
      <point x="657.839051873008" y="895.44912325862"/>
      <point x="699" y="819.566162109375" type="curve"/>
      <point x="699" y="263.07103729248047" type="line"/>
      <point x="658.4815295518" y="185.80546513360002"/>
      <point x="598.46153" y="132.00000000000003"/>
      <point x="506.00000000000006" y="132.00000000000006" type="curve" smooth="yes"/>
      <point x="344" y="132"/>
      <point x="272" y="314"/>
    </contour>
    <contour>
      <point x="1069.0" y="946.0" type="curve" smooth="yes"/>
      <point x="1233" y="946"/>
      <point x="1305" y="765"/>
      <point x="1305" y="550" type="curve" smooth="yes"/>
      <point x="1305" y="529" type="line"/>
      <point x="1305" y="314"/>
      <point x="1233" y="132"/>
      <point x="1071" y="132" type="curve" smooth="yes"/>
      <point x="973.759912" y="132.0"/>
      <point x="914.668847523424" y="188.336348691568"/>
      <point x="876" y="267.6391906738281" type="curve"/>
      <point x="876" y="806.6670913696289" type="line"/>
      <point x="915.2154304796001" y="887.622779336"/>
      <point x="977.30492" y="946.0"/>
    </contour>
  </outline>
</glyph>
<glyph name="uni023A" format="1">
  <advance width="1181"/>
  <unicode hex="023A"/>
  <outline>
    <contour>
      <point x="-116" y="-125" type="line"/>
      <point x="33" y="-125" type="line"/>
      <point x="116.95079803466797" y="0" type="line"/>
      <point x="231" y="0" type="line"/>
      <point x="323.0307922363281" y="306.84637451171875" type="line"/>
      <point x="372.8328399658203" y="381" type="line"/>
      <point x="836.7287139892578" y="381" type="line"/>
      <point x="951" y="0" type="line"/>
      <point x="1139" y="0" type="line"/>
      <point x="807.7022705078125" y="1028.5063858032227" type="line"/>
      <point x="1166" y="1562" type="line"/>
      <point x="1018" y="1562" type="line"/>
      <point x="759.6541519165039" y="1177.6706848144531" type="line"/>
      <point x="670" y="1456" type="line"/>
      <point x="512" y="1456" type="line"/>
      <point x="111.98529815673828" y="214.16331481933594" type="line"/>
    </contour>
    <contour>
      <point x="591" y="1200.3015060424805" type="line"/>
      <point x="647.7274627685547" y="1011.1624603271484" type="line"/>
      <point x="442.86707305908203" y="706.4010162353516" type="line"/>
    </contour>
    <contour>
      <point x="478.94664764404297" y="539" type="line"/>
      <point x="693.5178451538086" y="858.489501953125" type="line"/>
      <point x="789.3406143188477" y="539" type="line"/>
    </contour>
  </outline>
</glyph>
<glyph name="uni023B" format="1">
  <advance width="1161"/>
  <unicode hex="023B"/>
  <outline>
    <contour>
      <point x="601.0" y="-20.000000000000007" type="curve" smooth="yes"/>
      <point x="904" y="-20"/>
      <point x="1044" y="187"/>
      <point x="1070" y="463" type="curve"/>
      <point x="886" y="463" type="line"/>
      <point x="858" y="258"/>
      <point x="803" y="137"/>
      <point x="601" y="137" type="curve" smooth="yes"/>
      <point x="563.562626" y="137.0"/>
      <point x="530.042609245568" y="144.100210007592"/>
      <point x="500.21514892578125" y="157.34854888916016" type="curve"/>
      <point x="834.0461502075195" y="1190.6933135986328" type="line"/>
      <point x="860.7569600486399" y="1137.538303293632"/>
      <point x="876.5073279999999" y="1069.292184"/>
      <point x="886.0" y="989.0000000000001" type="curve"/>
      <point x="1070" y="989" type="line"/>
      <point x="1055.203525" y="1158.863533"/>
      <point x="998.7216979701609" y="1298.2512203983529"/>
      <point x="896.4078674316406" y="1383.7285690307617" type="curve"/>
      <point x="954" y="1562" type="line"/>
      <point x="833" y="1562" type="line"/>
      <point x="794.8965759277344" y="1444.2701873779297" type="line"/>
      <point x="743.4488717469001" y="1464.9333694200002"/>
      <point x="684.57009" y="1476.0000000000002"/>
      <point x="618.0" y="1476.0000000000002" type="curve" smooth="yes"/>
      <point x="309" y="1476"/>
      <point x="117" y="1208"/>
      <point x="117" y="800" type="curve"/>
      <point x="117" y="655" type="line"/>
      <point x="117.0" y="381.713032"/>
      <point x="203.14275303187202" y="171.687148257781"/>
      <point x="347.7801818847656" y="62.79517364501953" type="curve"/>
      <point x="287" y="-125" type="line"/>
      <point x="409" y="-125" type="line"/>
      <point x="451.33475494384766" y="6.043540954589844" type="line"/>
      <point x="497.5004383849" y="-11.062638552316994"/>
      <point x="547.576556" y="-20.0"/>
    </contour>
    <contour>
      <point x="301.00000000000006" y="655.0" type="curve" smooth="yes"/>
      <point x="301" y="802" type="line" smooth="yes"/>
      <point x="301" y="1111"/>
      <point x="405" y="1318"/>
      <point x="618" y="1318" type="curve" smooth="yes"/>
      <point x="668.90382" y="1318.0"/>
      <point x="710.530508169484" y="1307.923115425474"/>
      <point x="744.5989837646484" y="1288.8635330200195" type="curve"/>
      <point x="403.79273223876953" y="235.85958862304688" type="line"/>
      <point x="332.204341804134" y="330.041787923526"/>
      <point x="301.0" y="482.724182"/>
    </contour>
  </outline>
</glyph>
<glyph name="uni023C" format="1">
  <advance width="946"/>
  <unicode hex="023C"/>
  <outline>
    <contour>
      <point x="508.0" y="-20.000000000000043" type="curve"/>
      <point x="703" y="-20"/>
      <point x="866" y="149"/>
      <point x="874" y="342" type="curve"/>
      <point x="708" y="342" type="line"/>
      <point x="699" y="220"/>
      <point x="613" y="132"/>
      <point x="508" y="132" type="curve" smooth="yes"/>
      <point x="467.37414" y="132.0"/>
      <point x="433.37926096155" y="141.24601570695"/>
      <point x="405.04681396484375" y="157.67284393310547" type="curve"/>
      <point x="652.0264358520508" y="876.7177124023438" type="line"/>
      <point x="684.4457328973119" y="833.632618311776"/>
      <point x="703.6073879999999" y="774.913044"/>
      <point x="707.9999999999999" y="710.0000000000001" type="curve"/>
      <point x="874" y="710" type="line"/>
      <point x="868.841032" y="853.806233"/>
      <point x="809.62044513667" y="975.1561012413861"/>
      <point x="709.2107009887695" y="1043.2012939453125" type="curve"/>
      <point x="851" y="1456" type="line"/>
      <point x="730" y="1456" type="line"/>
      <point x="604.1748504638672" y="1090.2473983764648" type="line"/>
      <point x="574.204245724792" y="1097.9430225303638"/>
      <point x="542.08636" y="1101.9999999999998"/>
      <point x="508.00000000000006" y="1101.9999999999998" type="curve" smooth="yes"/>
      <point x="228" y="1102"/>
      <point x="97" y="852"/>
      <point x="97" y="562" type="curve" smooth="yes"/>
      <point x="97" y="520" type="line" smooth="yes"/>
      <point x="97.0" y="338.64937"/>
      <point x="147.83765315317" y="172.94109481636"/>
      <point x="254.64852905273438" y="74.23300170898438" type="curve"/>
      <point x="86" y="-416" type="line"/>
      <point x="208" y="-416" type="line"/>
      <point x="354.20338439941406" y="9.649658203125" type="line"/>
      <point x="399.258306113775" y="-9.518847493750034"/>
      <point x="450.463845" y="-20.000000000000036"/>
    </contour>
    <contour>
      <point x="274.0" y="520.0" type="curve" smooth="yes"/>
      <point x="274" y="562" type="line" smooth="yes"/>
      <point x="274" y="750"/>
      <point x="322" y="950"/>
      <point x="508" y="950" type="curve"/>
      <point x="524.2312" y="950.0"/>
      <point x="539.5659318876" y="948.0424063668"/>
      <point x="553.97216796875" y="944.3166046142578" type="curve"/>
      <point x="318.33861541748047" y="259.36939239501953" type="line"/>
      <point x="285.024863784824" y="332.049072385248"/>
      <point x="274.0" y="426.98322"/>
    </contour>
  </outline>
</glyph>
<glyph name="uni023E" format="1">
  <advance width="1066"/>
  <unicode hex="023E"/>
  <outline>
    <contour>
      <point x="61" y="1298" type="line"/>
      <point x="443" y="1298" type="line"/>
      <point x="443" y="600.8804779052734" type="line"/>
      <point x="119" y="-125" type="line"/>
      <point x="249" y="-125" type="line"/>
      <point x="443" y="310.78961181640625" type="line"/>
      <point x="443" y="0" type="line"/>
      <point x="625" y="0" type="line"/>
      <point x="625" y="719.6231689453125" type="line"/>
      <point x="882.4754028320312" y="1298" type="line"/>
      <point x="1008" y="1298" type="line"/>
      <point x="1008" y="1456" type="line"/>
      <point x="952.8120956420898" y="1456" type="line"/>
      <point x="1000" y="1562" type="line"/>
      <point x="872" y="1562" type="line"/>
      <point x="824.6864242553711" y="1456" type="line"/>
      <point x="61" y="1456" type="line"/>
    </contour>
    <contour>
      <point x="625" y="1298" type="line"/>
      <point x="754.1624221801758" y="1298" type="line"/>
      <point x="625" y="1008.6281509399414" type="line"/>
    </contour>
  </outline>
</glyph>
<glyph name="uni0242" format="1">
  <advance width="870"/>
  <unicode hex="0242"/>
  <outline>
    <contour>
      <point x="347" y="0" type="line"/>
      <point x="523" y="0" type="line"/>
      <point x="523" y="333.0121612548828" type="line"/>
      <point x="705.9079679197499" y="368.067390966325"/>
      <point x="773.9999999999999" y="514.0369999999999"/>
      <point x="774.0000000000001" y="688.0" type="curve" smooth="yes"/>
      <point x="774" y="957"/>
      <point x="644" y="1102"/>
      <point x="415" y="1102" type="curve" smooth="yes"/>
      <point x="225" y="1102"/>
      <point x="76" y="948"/>
      <point x="76" y="700" type="curve"/>
      <point x="253" y="700" type="line"/>
      <point x="253" y="844"/>
      <point x="316" y="950"/>
      <point x="415" y="950" type="curve" smooth="yes"/>
      <point x="551" y="950"/>
      <point x="597" y="832"/>
      <point x="597" y="692" type="curve" smooth="yes"/>
      <point x="597" y="549"/>
      <point x="554" y="445"/>
      <point x="429" y="445" type="curve" smooth="yes"/>
      <point x="347" y="445" type="line"/>
    </contour>
  </outline>
</glyph>
<glyph name="uni0245" format="1">
  <advance width="1148"/>
  <unicode hex="0245"/>
  <outline>
    <contour>
      <point x="42" y="0" type="line"/>
      <point x="242" y="0" type="line"/>
      <point x="572.5710220336914" y="1176.527976989746" type="line"/>
      <point x="906" y="0" type="line"/>
      <point x="1106" y="0" type="line"/>
      <point x="654" y="1456" type="line"/>
      <point x="494" y="1456" type="line"/>
    </contour>
  </outline>
</glyph>
<glyph name="uni0246" format="1">
  <advance width="1018"/>
  <unicode hex="0246"/>
  <outline>
    <contour>
      <point x="157" y="0" type="line"/>
      <point x="376.11914825439453" y="0" type="line"/>
      <point x="349" y="-125" type="line"/>
      <point x="472" y="-125" type="line"/>
      <point x="498.97095489501953" y="0" type="line"/>
      <point x="940" y="0" type="line"/>
      <point x="940" y="157" type="line"/>
      <point x="532.8464736938477" y="157" type="line"/>
      <point x="644.1825714111328" y="673" type="line"/>
      <point x="855" y="673" type="line"/>
      <point x="855" y="830" type="line"/>
      <point x="678.0580902099609" y="830" type="line"/>
      <point x="779.0373458862305" y="1298" type="line"/>
      <point x="930" y="1298" type="line"/>
      <point x="930" y="1456" type="line"/>
      <point x="813.1286315917969" y="1456" type="line"/>
      <point x="836" y="1562" type="line"/>
      <point x="715" y="1562" type="line"/>
      <point x="692.0029602050781" y="1456" type="line"/>
      <point x="157" y="1456" type="line"/>
    </contour>
    <contour>
      <point x="341" y="830" type="line"/>
      <point x="341" y="1298" type="line"/>
      <point x="657.724365234375" y="1298" type="line"/>
      <point x="556.1902770996094" y="830" type="line"/>
    </contour>
    <contour>
      <point x="341" y="157" type="line"/>
      <point x="341" y="673" type="line"/>
      <point x="522.1286315917969" y="673" type="line"/>
      <point x="410.18079376220703" y="157" type="line"/>
    </contour>
  </outline>
</glyph>
